<svg xmlns="http://www.w3.org/2000/svg" viewBox="0 0 455.731 455.731"><path d="M0 0h455.731v455.731H0z" fill="#1ab7ea"/><path d="M49.642 157.084l17.626 22.474s22.033-17.186 29.965-17.186c4.927 0 15.423 5.729 22.033 25.558s34.441 122.62 36.134 127.351c7.607 21.26 17.626 60.811 48.473 66.54s70.065-25.558 91.657-48.473 106.64-120.741 110.165-179.349c3.26-54.191-14.517-66.765-22.474-71.828-14.542-9.254-38.778-12.338-61.692-4.407s-57.726 33.931-66.98 80.2c0 0 31.287-11.457 42.744-.441s8.373 35.253-1.322 53.32-37.015 59.93-47.151 61.252-18.067-18.508-19.389-23.796-18.067-77.997-24.236-120.3-33.049-49.354-45.829-49.354-34.812 9.696-109.724 78.439z" fill="#fff"/></svg>