<svg xmlns="http://www.w3.org/2000/svg" viewBox="0 0 60 60"><path d="M42.48 37.77c-3 1.19-6.37 3.8-8.45 3-2.39-.92-3.64-4.86-4.78-6.59L51 12.11l6.67 28.35c-10.37 2.06-7.86 8.78-4.66 16.44-3-1.42-5-2-6.63-3.22-4.25-3.09-7.94-2.4-11 1.53-2.31 2.95-4.81 2.84-7.79 1.48L8.52 48.13c2.45-2 4.26-3.68 6.28-5.05 2.37-1.6 3.73-.67 4.68 2 2 5.78 4.92 7.73 9.88 5.09 4.78-2.54 8.69-6.78 12.89-10.38.39-.32.17-1.42.23-2.02zM22.58 4.54a30.41 30.41 0 0 1-4 4.19c-6.4 4.66-7.14 14.37-.95 18.12 1.63 1 5.43 1.07 6.38-.06 2.22-2.63-.17-4.31-2.67-5.41-3.79-1.67-4.55-4.63-2.82-8.18 1.84-3.8 5.28-4.18 8.36-2.39 3.8 2.19 7.1 5.19 11.39 8.5L4.74 46.11 1.26 19.39A3.26 3.26 0 0 1 2.4 16.9c5.65-4.27 11.34-8.48 17.13-12.55.7-.49 2 0 3.09 0a.51.51 0 0 1-.04.19z"/><path d="M22.58 4.54a.51.51 0 0 0 0-.2c-.6-3.15 1.25-3.49 3.39-2.66 6.31 2.44 12.55 5.09 20 8.16-2 .94-3.34 1.91-3.65 1.65-5.68-4.89-12.87-5.44-19.74-6.95z"/></svg>