<svg xmlns="http://www.w3.org/2000/svg" viewBox="0 0 512 512"><defs><linearGradient id="A" x1="257.01" y1="1.11" x2="257.01" y2="510.8" gradientUnits="userSpaceOnUse"><stop offset="0" stop-color="#d49500"/><stop offset="1" stop-color="#00b1bf"/></linearGradient></defs><path d="M512 239.36v33.28c-1.22 8.83-2.13 17.72-3.7 26.48-24.71 138.21-151.82 229.52-290.44 208.74-136.75-20.5-232.92-150-213.31-287.16C24.29 82.7 149.79-13.77 287.9 3c108.86 13.21 197.19 94.65 218.84 202 2.26 11.33 3.53 22.9 5.26 34.36zm-204.44-28L284.43 94.55h-31.78l-13.38 160.63h22.91q2.34-65.77 4.65-130.84l14.07 65.32 15.57 65.5h17.84l30.51-129.95 4.17 129.88h25.07L365.3 94.56h-31.4l-13.39 59.94-12.95 56.86zm-13.23 94.85a19.61 19.61 0 0 0-2.84-1.1c-20.88-3.88-41.91-5-63-2-13.49 1.93-26.11 6.55-35.55 17-17.78 19.78-13.52 51.45 9.69 67.54 8.86 6.14 19.15 10.2 28.81 15.19 9.17 4.75 18.68 9 27.45 14.35 6.83 4.22 10.15 11.22 8.25 19.44-1.78 7.68-8.47 9.67-15.08 10.92a116.48 116.48 0 0 1-43.17.36c-7.81-1.44-15.51-3.47-23.6-5.31l-6.54 30.31c31.68 7.06 62.56 9.49 93.24-.69 13.45-4.45 23.85-12.82 28.7-26.8 8.06-23.2.28-46.65-21.28-60.06-10.37-6.45-22.08-10.76-33.14-16.1-7.23-3.49-14.63-6.68-21.51-10.76-5.68-3.38-7.8-9.17-6.9-15.77.83-6.07 5.07-9.53 10.43-11a80.85 80.85 0 0 1 17.33-3 118.38 118.38 0 0 1 43.7 6.27l5-28.79zm21.78 135.06c27.88 6.25 55 8.45 82.12.18 15.83-4.83 26.88-14.83 29.9-31.75 3.3-18.5-1.29-34.78-16.72-46.22-8.07-6-17.51-10.22-26.56-14.76-8.59-4.3-17.69-7.58-26.17-12.05-5.81-3.07-8.49-8.71-7.49-15.4s5.8-10.13 11.72-10.93a152.69 152.69 0 0 1 27.09-1.58c8.76.41 17.43 2.57 26.41 4l4.43-26.14c-8.06-1-15.44-2.32-22.88-2.76-16.6-1-33.29-1.76-49.35 3.87-15 5.25-25.84 14.83-28.54 31.13-2.84 17.11 1.5 32.44 16.14 42.64 9.4 6.56 20.32 10.94 30.48 16.44 8.25 4.48 16.77 8.64 24.45 14 5 3.5 6.85 9.53 5.29 15.86s-6.81 9-12.36 9.53c-11 1.14-22.07 2.16-33 1.6-9.63-.49-19.15-3.2-29-5l-6 27.34zm-136.6-177.8c-11.89-3.63-23.62-4.22-35.39-3.65-18.3.88-35.32 5.93-49.33 18.18-26 22.72-35.95 51.85-31.9 85.64 3.22 26.86 15.71 48.76 40 61.87 25 13.54 51.94 12.31 78.89 6.52 1-.21 2.48-1.33 2.54-2.12l2-27.86c-9.09 1.52-17.48 3.24-26 4.27-26.63 3.21-47-8.43-57.62-33-6.49-15-6.86-30.6-3-46.23 6.62-26.65 23.76-39.53 51.06-38 8.06.45 16 2.78 24.55 4.34q2.06-14.6 4.2-29.96zM69.32 95.81v129.31H99.8v-57h55.12v57h30.22V95.82h-30.22v50.82H99.58V95.81zm160.92 129.33V69.61l43.91 2V41.06H154.24v30.82l44.52-2.22v155.48zM419.38 69.88h-29.74v158.29h90.13v-25.88l-62.07 1.78 1.68-134.19z" fill="url(#A)"/><path d="M512 239.36c-1.73-11.46-3-23-5.26-34.38C485.09 97.65 396.74 16.21 287.9 3 149.79-13.79 24.29 82.63 4.55 220.68-15.06 357.86 81.11 487.34 217.86 507.84c138.62 20.78 265.73-70.53 290.44-208.74 1.57-8.76 2.48-17.65 3.7-26.48V512H0V0h512zm-204.44-28l13-56.86 13.39-59.94h31.4l8.76 160.53H349l-4.17-129.88-30.51 130h-17.84l-15.57-65.5-14.07-65.32q-2.31 65.11-4.65 130.84h-22.92L252.65 94.6h31.78l23.13 116.76zm-13.23 94.85l-5 28.8a118.35 118.35 0 0 0-43.65-6.27 80.85 80.85 0 0 0-17.33 3c-5.36 1.49-9.6 4.95-10.43 11-.9 6.6 1.22 12.39 6.9 15.77 6.88 4.08 14.28 7.27 21.51 10.76 11.06 5.34 22.77 9.65 33.14 16.1 21.56 13.41 29.34 36.86 21.28 60.06-4.85 14-15.25 22.35-28.7 26.8-30.68 10.18-61.56 7.75-93.24.69l6.54-30.31c8.09 1.84 15.79 3.87 23.6 5.31a116.48 116.48 0 0 0 43.17-.36c6.61-1.25 13.3-3.24 15.08-10.92 1.9-8.22-1.42-15.22-8.25-19.44-8.77-5.4-18.28-9.6-27.45-14.35-9.66-5-20-9.05-28.81-15.19-23.21-16.09-27.47-47.76-9.69-67.54 9.44-10.49 22.06-15.11 35.55-17 21-3 42.07-1.84 63 2a20 20 0 0 1 2.78 1.09zm21.78 135.06l5.9-27.37c9.89 1.8 19.41 4.51 29 5 11 .56 22.08-.46 33-1.6 5.55-.57 10.8-3.17 12.36-9.53s-.24-12.36-5.29-15.86c-7.68-5.32-16.2-9.48-24.45-14-10.16-5.5-21.08-9.88-30.48-16.44-14.64-10.2-19-25.53-16.14-42.64 2.7-16.3 13.56-25.88 28.54-31.13 16.06-5.63 32.75-4.85 49.35-3.87 7.44.44 14.82 1.76 22.88 2.76l-4.43 26.14c-9-1.44-17.65-3.6-26.41-4a152.69 152.69 0 0 0-27.11 1.58c-5.92.8-10.74 4.37-11.72 10.93s1.68 12.33 7.49 15.4c8.48 4.47 17.58 7.75 26.17 12.05 9.05 4.54 18.49 8.77 26.56 14.76 15.43 11.44 20 27.72 16.72 46.22-3 16.92-14.07 26.92-29.9 31.75-27.02 8.3-54.15 6.1-82.04-.15zm-136.6-177.8q-2.16 15.36-4.21 29.95c-8.54-1.56-16.49-3.89-24.55-4.34-27.3-1.52-44.44 11.36-51.06 38-3.88 15.63-3.51 31.24 3 46.23 10.64 24.57 31 36.21 57.62 33 8.47-1 16.86-2.75 26-4.27l-2 27.86c-.06.79-1.55 1.91-2.54 2.12-27 5.79-53.84 7-78.89-6.52-24.26-13.11-36.75-35-40-61.87-4-33.79 5.92-62.92 31.9-85.64 14-12.25 31-17.3 49.33-18.18 11.78-.56 23.51.03 35.4 3.66zM69.32 95.81h30.26v50.83h55.34V95.82h30.22v129.27h-30.22v-57H99.8v57H69.32zm160.92 129.33h-31.48V69.66l-44.52 2.22V41.06h119.91v30.6l-43.91-2zM419.38 69.88l-1.68 134.19 62.07-1.78v25.88h-90.13V69.88z" fill="#fff"/></svg>