<svg xmlns="http://www.w3.org/2000/svg" viewBox="0 0 512 512"><path d="M512 256c0 33.353-6.374 65.212-17.983 94.438-6.207 15.632-13.908 30.511-22.936 44.45-11.243 17.387-24.545 33.322-39.549 47.449a256.66 256.66 0 0 1-28.035 22.925C361.806 494.707 310.93 512 256 512s-105.806-17.293-147.498-46.738c-12.372-8.735-23.928-18.526-34.534-29.268C28.233 389.757 0 326.165 0 256S28.233 122.243 73.968 76.006c11.233-11.368 23.531-21.682 36.728-30.793C151.97 16.697 202.031 0 256 0s104.03 16.697 145.304 45.213c10.083 6.949 19.634 14.618 28.588 22.925a256.32 256.32 0 0 1 41.19 48.974c9.028 13.939 16.729 28.818 22.936 44.45C505.626 190.788 512 222.647 512 256z" fill="#e4ba42"/><path d="M391.05 232.97c-7.125-20.664-36.341-20.664-42.04-3.563s13.539 27.076 43.466 37.053 48.454 36.341 44.891 59.854-13.539 54.154-72.68 54.154c-36.963 0-57.505-23.103-67.714-40.429l33.511-20.138s11.401 24.227 32.777 24.227 29.927-7.125 29.927-23.514c0-19.951-69.118-27.076-79.806-61.279s3.563-82.656 53.441-79.094c31.175 2.227 48.71 17.535 57.478 28.703L391.05 232.97zm-155.336-49.165v136.81c0 16.388-14.251 24.94-28.502 22.089s-20.664-19.951-20.664-19.951l-32.777 22.089s7.125 32.777 52.016 35.628 70.542-24.227 70.542-47.029V183.805h-40.615 0zM73.968 45.213v390.781a256.13 256.13 0 0 0 34.534 29.268h294.996a256.66 256.66 0 0 0 28.035-22.925H96.893V68.138h374.188v326.75c9.028-13.939 16.729-28.818 22.936-44.45V45.213H73.968z" fill="#f2f2f2"/><circle cx="87.855" cy="339.143" r="40.615" fill="#3f4a43"/></svg>