<svg xmlns="http://www.w3.org/2000/svg" viewBox="0 0 512 512"><path d="M481.9,339.4C420.1,469,325,497,256,497c-77.7,0-150.9-38.8-195.9-102.1C14.8,331,4,250,30.1,172.6l4.8-9.9C71.5,75.4,160.3,15,256,15c77.7,0,150.9,38.8,195.9,102.1C497.2,181,508,262,481.9,339.4Z" fill="#1689fc"/><path d="M464.2 108.4C416.2 41.2 338.5 0 256 0 153.1 0 58.9 64.6 20.2 159.7l-5.1 10.5c-27.55 83.88-16.82 163.32 32.7 233.4C95.8 470.8 173.5 512 256 512c101.7 0 194.7-63.1 234.6-156.1l4.5-9c30-85.32 19.48-167.28-30.9-238.5zM72.4 386.2c-42.6-60-52.5-135.9-27.9-208.8l3.9-8.1C72.7 111.1 121 66 178.6 44.4 142.3 91.8 120.4 184 123.1 214a8.88 8.88 0 0 0-.6 3c-7.8 100.5 15 197.5 57.9 251.8a229 229 0 0 1-108-82.6zM241 479.3c-10.5-3.6-21-11.5-30.9-22-42-45.3-65.1-141-57.6-237.9v-2.7c0-.9.3-2.1.3-3 8.7-93.3 45.3-166.9 88.2-181v446.6zm30-.3V32.7C317.2 48 355.9 133 360.4 234.4c4.2 93.6-19.2 181.5-59.7 224.1-9.6 9.9-19.5 17.2-29.7 20.5zm196.5-144.4c-33.6 70.8-81 114.4-135.9 133.9 40.2-50.7 63-141.1 58.8-235.3-3.6-79.8-26.1-148.6-58.8-190a229 229 0 0 1 108 82.6c42.6 60 52.5 135.9 27.9 208.8z" fill="#96ebe6"/><path d="M466 151H46c-24.9 0-46 20.1-46 45v120c0 24.9 21.1 45 46 45h420c24.9 0 46-20.1 46-45V196c0-24.9-21.1-45-46-45z" fill="#05377f"/><g fill="#e1f1fa"><path d="M329.5,232.6l-30,60a15,15,0,0,1-27,0l-16.5-33-16.5,33c-5.1,10.2-21.9,10.2-27,0l-30-60a15,15,0,1,1,27-13.2l16.5,33,16.5-33a15.58,15.58,0,0,1,27,0l16.5,33,16.5-33a15,15,0,1,1,27,13.2Z"/><path d="M436 301a15 15 0 0 1-13.42-8.29L406 259.55l-16.58 33.16c-5.1 10.17-21.74 10.17-26.84 0l-28.74-57.5a14.44 14.44 0 0 1-3.26-8.21c-.53-8.27 5.28-15.37 13.54-15.91 6.27-.15 12.6 2.81 15.3 8.2L376 252.46l16.58-33.17c5.1-10.17 21.74-10.17 26.84 0L436 252.46l16.58-33.17a15.004 15.004 0 0 1 26.84 13.42l-30 60A15 15 0 0 1 436 301zm-269-90c-5.91-.06-11.69 2.87-14.39 8.26L136 252.46l-16.58-33.17c-5.41-10.77-21.49-10.69-26.84 0L76 252.46l-16.58-33.17a15.004 15.004 0 0 0-26.84 13.42l30 60a15 15 0 0 0 26.84 0L106 259.55l16.58 33.16a15 15 0 0 0 26.84 0l28.26-56.52a15.51 15.51 0 0 0 3.75-9.19c.52-8.27-6.2-15.43-14.46-16z"/></g></svg>