<svg id="Layer_1" data-name="Layer 1" xmlns="http://www.w3.org/2000/svg" xmlns:xlink="http://www.w3.org/1999/xlink" viewBox="0 0 512 512">
  <defs>
    <style>
      .cls-1 {
        fill: url(#linear-gradient);
      }

      .cls-2 {
        fill: #fff;
      }
    </style>
    <linearGradient id="linear-gradient" x1="257.01" y1="1.11" x2="257.01" y2="510.8" gradientUnits="userSpaceOnUse">
      <stop offset="0" stop-color="#d49500"/>
      <stop offset="1" stop-color="#00b1bf"/>
    </linearGradient>
  </defs>
  <g>
    <path class="cls-1" d="M512,239.36v33.28c-1.22,8.83-2.13,17.72-3.7,26.48C483.59,437.33,356.48,528.64,217.86,507.86,81.11,487.36-15.06,357.86,4.55,220.7,24.29,82.7,149.79-13.77,287.9,3,396.76,16.21,485.09,97.65,506.74,205,509,216.33,510.27,227.9,512,239.36Zm-204.44-28c-7.28-36.74-15.17-76.61-23.13-116.81H252.65c-4.48,53.71-8.93,107.14-13.38,160.63h22.91q2.34-65.77,4.65-130.84c4.68,21.8,9.16,43.61,14.07,65.32s10.29,43.37,15.57,65.5h17.84c10.29-43.85,20.56-87.59,30.51-129.95,1.35,42.17,2.76,86,4.17,129.88h25.07c-2.93-53.67-5.84-107-8.76-160.53H333.9c-4.53,20.28-8.92,40.12-13.39,59.94C316,174.49,311.41,194.46,307.56,211.36Zm-13.23,94.85a19.61,19.61,0,0,0-2.84-1.1c-20.88-3.88-41.91-5-63-2-13.49,1.93-26.11,6.55-35.55,17-17.78,19.78-13.52,51.45,9.69,67.54,8.86,6.14,19.15,10.2,28.81,15.19,9.17,4.75,18.68,9,27.45,14.35,6.83,4.22,10.15,11.22,8.25,19.44-1.78,7.68-8.47,9.67-15.08,10.92a116.48,116.48,0,0,1-43.17.36c-7.81-1.44-15.51-3.47-23.6-5.31-2.17,10-4.3,19.9-6.54,30.31,31.68,7.06,62.56,9.49,93.24-.69,13.45-4.45,23.85-12.82,28.7-26.8,8.06-23.2.28-46.65-21.28-60.06-10.37-6.45-22.08-10.76-33.14-16.1-7.23-3.49-14.63-6.68-21.51-10.76-5.68-3.38-7.8-9.17-6.9-15.77.83-6.07,5.07-9.53,10.43-11a80.85,80.85,0,0,1,17.33-3,118.38,118.38,0,0,1,43.7,6.27c1.68-9.82,3.35-19.23,5-28.79Zm21.78,135.06c27.88,6.25,55,8.45,82.12.18,15.83-4.83,26.88-14.83,29.9-31.75,3.3-18.5-1.29-34.78-16.72-46.22-8.07-6-17.51-10.22-26.56-14.76-8.59-4.3-17.69-7.58-26.17-12.05-5.81-3.07-8.49-8.71-7.49-15.4s5.8-10.13,11.72-10.93A152.69,152.69,0,0,1,390,308.76c8.76.41,17.43,2.57,26.41,4,1.42-8.38,2.87-16.9,4.43-26.14-8.06-1-15.44-2.32-22.88-2.76-16.6-1-33.29-1.76-49.35,3.87-15,5.25-25.84,14.83-28.54,31.13-2.84,17.11,1.5,32.44,16.14,42.64,9.4,6.56,20.32,10.94,30.48,16.44,8.25,4.48,16.77,8.64,24.45,14,5,3.5,6.85,9.53,5.29,15.86s-6.81,9-12.36,9.53c-11,1.14-22.07,2.16-33,1.6-9.63-.49-19.15-3.2-29-5-1.94,8.61-3.85,17.48-6,27.34Zm-136.6-177.8c-11.89-3.63-23.62-4.22-35.39-3.65-18.3.88-35.32,5.93-49.33,18.18-26,22.72-35.95,51.85-31.9,85.64,3.22,26.86,15.71,48.76,40,61.87,25,13.54,51.94,12.31,78.89,6.52,1-.21,2.48-1.33,2.54-2.12.79-9.34,1.35-18.7,2-27.86-9.09,1.52-17.48,3.24-26,4.27-26.63,3.21-47-8.43-57.62-33-6.49-15-6.86-30.6-3-46.23,6.62-26.65,23.76-39.53,51.06-38,8.06.45,16,2.78,24.55,4.34Q177.37,278.83,179.51,263.47ZM69.32,95.81V225.12H99.8v-57h55.12v57h30.22V95.82H154.92v50.82H99.58V95.81ZM230.24,225.14V69.61l43.91,2V41.06H154.24V71.88l44.52-2.22V225.14ZM419.38,69.88H389.64V228.17h90.13V202.29l-62.07,1.78C418.27,158.91,418.82,114.66,419.38,69.88Z"/>
    <path class="cls-2" d="M512,239.36c-1.73-11.46-3-23-5.26-34.38C485.09,97.65,396.74,16.21,287.9,3,149.79-13.79,24.29,82.63,4.55,220.68-15.06,357.86,81.11,487.34,217.86,507.84,356.48,528.62,483.59,437.31,508.3,299.1c1.57-8.76,2.48-17.65,3.7-26.48V512H0V0H512Z"/>
    <path class="cls-2" d="M307.56,211.36c3.85-16.9,8.44-36.87,13-56.86,4.47-19.82,8.86-39.66,13.39-59.94h31.4c2.92,53.57,5.83,106.86,8.76,160.53H349c-1.41-43.88-2.82-87.71-4.17-129.88-10,42.36-20.22,86.1-30.51,130H296.48c-5.28-22.13-10.64-43.76-15.57-65.5s-9.39-43.52-14.07-65.32q-2.31,65.11-4.65,130.84H239.27c4.45-53.49,8.9-106.92,13.38-160.63h31.78C292.39,134.75,300.28,174.62,307.56,211.36Z"/>
    <path class="cls-2" d="M294.33,306.21l-5,28.8a118.35,118.35,0,0,0-43.65-6.27,80.85,80.85,0,0,0-17.33,3c-5.36,1.49-9.6,4.95-10.43,11-.9,6.6,1.22,12.39,6.9,15.77,6.88,4.08,14.28,7.27,21.51,10.76,11.06,5.34,22.77,9.65,33.14,16.1,21.56,13.41,29.34,36.86,21.28,60.06-4.85,14-15.25,22.35-28.7,26.8-30.68,10.18-61.56,7.75-93.24.69,2.24-10.41,4.37-20.26,6.54-30.31,8.09,1.84,15.79,3.87,23.6,5.31a116.48,116.48,0,0,0,43.17-.36c6.61-1.25,13.3-3.24,15.08-10.92,1.9-8.22-1.42-15.22-8.25-19.44-8.77-5.4-18.28-9.6-27.45-14.35-9.66-5-20-9.05-28.81-15.19-23.21-16.09-27.47-47.76-9.69-67.54,9.44-10.49,22.06-15.11,35.55-17,21-3,42.07-1.84,63,2A20,20,0,0,1,294.33,306.21Z"/>
    <path class="cls-2" d="M316.11,441.27c2.13-9.86,4-18.73,5.9-27.37,9.89,1.8,19.41,4.51,29,5,11,.56,22.08-.46,33-1.6,5.55-.57,10.8-3.17,12.36-9.53s-.24-12.36-5.29-15.86c-7.68-5.32-16.2-9.48-24.45-14-10.16-5.5-21.08-9.88-30.48-16.44-14.64-10.2-19-25.53-16.14-42.64,2.7-16.3,13.56-25.88,28.54-31.13,16.06-5.63,32.75-4.85,49.35-3.87,7.44.44,14.82,1.76,22.88,2.76-1.56,9.24-3,17.76-4.43,26.14-9-1.44-17.65-3.6-26.41-4a152.69,152.69,0,0,0-27.11,1.58c-5.92.8-10.74,4.37-11.72,10.93s1.68,12.33,7.49,15.4c8.48,4.47,17.58,7.75,26.17,12.05,9.05,4.54,18.49,8.77,26.56,14.76,15.43,11.44,20,27.72,16.72,46.22-3,16.92-14.07,26.92-29.9,31.75C371.13,449.72,344,447.52,316.11,441.27Z"/>
    <path class="cls-2" d="M179.51,263.47q-2.16,15.36-4.21,29.95c-8.54-1.56-16.49-3.89-24.55-4.34-27.3-1.52-44.44,11.36-51.06,38-3.88,15.63-3.51,31.24,3,46.23,10.64,24.57,31,36.21,57.62,33,8.47-1,16.86-2.75,26-4.27-.6,9.16-1.16,18.52-2,27.86-.06.79-1.55,1.91-2.54,2.12-27,5.79-53.84,7-78.89-6.52-24.26-13.11-36.75-35-40-61.87-4-33.79,5.92-62.92,31.9-85.64,14-12.25,31-17.3,49.33-18.18C155.89,259.25,167.62,259.84,179.51,263.47Z"/>
    <path class="cls-2" d="M69.32,95.81H99.58v50.83h55.34V95.82h30.22V225.09H154.92v-57H99.8v57H69.32Z"/>
    <path class="cls-2" d="M230.24,225.14H198.76V69.66l-44.52,2.22V41.06H274.15v30.6l-43.91-2Z"/>
    <path class="cls-2" d="M419.38,69.88c-.56,44.78-1.11,89-1.68,134.19l62.07-1.78v25.88H389.64V69.88Z"/>
  </g>
</svg>
