<svg xmlns="http://www.w3.org/2000/svg" viewBox="0 0 512 512"  fill="#00b3fa"><path d="M469.33 358.4a8.53 8.53 0 0 0-8.53 8.53v59.74h-17.07V332.8a8.53 8.53 0 0 0-8.53-8.53H332.8a8.53 8.53 0 0 0-8.53 8.53v68.27a8.54 8.54 0 0 0 17.07 0v-59.74h85.33v85.34H409.6a8.53 8.53 0 1 0 0 17.06h17.07v51.2H307.2v-17.06h25.6a8.54 8.54 0 1 0 0-17.07h-42.66v-17.07h42.66a8.53 8.53 0 1 0 0-17.06H230.41v-34.14h34.13a34.13 34.13 0 0 0 34.13-34.13v-34.13a25.61 25.61 0 0 0-16.21-23.77 4.17 4.17 0 0 1 3.41-1.83 21.33 21.33 0 0 0 21.33-21.34v-4.26h17.07a8.53 8.53 0 0 0 7.31-12.93L306 217.47a8.86 8.86 0 0 0-12.32-2.3 9 9 0 0 0-2.3 2.3l-25.6 42.67a8.54 8.54 0 0 0 7.31 12.93h17.07v4.26a4.27 4.27 0 0 1-4.27 4.27 21.33 21.33 0 0 0-21.05 18.55 25.61 25.61 0 0 0-17.35 24.12v17.06H208.6a33.7 33.7 0 0 0 4.74-17.06V307.2a8.53 8.53 0 0 0 8.53-8.53v-8.54a42.74 42.74 0 0 0-34.13-41.81v-.85a8.53 8.53 0 1 0-17.06 0v.85a42.75 42.75 0 0 0-34.14 41.81v8.54a8.53 8.53 0 0 0 8.54 8.53v17.07a33.7 33.7 0 0 0 4.92 17.42A42.6 42.6 0 0 0 110.94 384v8.53H76.81a8.54 8.54 0 0 0 0 17.07h8.54v17.07H51.21V358.4h25.6a8.54 8.54 0 0 0 8.54-8.53v-102.4a8.54 8.54 0 0 0-8.54-8.54h-25.6v-19.27a8.53 8.53 0 1 0-17.06 0v283.81a8.53 8.53 0 0 0 8.53 8.53h426.65a8.53 8.53 0 0 0 8.54-8.53V366.93a8.53 8.53 0 0 0-8.54-8.53zM298.67 238.46L309.2 256h-21.06zM460.8 460.8h-17.07v-17.07h17.07zm-187.73 0h-34.13v-17.07h34.13zm-85.33 0v-17.07h34.13v17.07zm-51.2 0v-17.07h34.14v17.07zm-51.19 0v-17.07h34.13v17.07zm68.26-51.2h34.13v17.07h-34.13zm17.07-52.41a30.73 30.73 0 0 0 17.06 0v1.21a8.53 8.53 0 0 1-17.06 0zm0-91.09v7a8.53 8.53 0 1 0 17.06 0v-7a25.62 25.62 0 0 1 17.07 24h-51.2a25.59 25.59 0 0 1 17.07-24zm25.6 41.1v17.07a17.07 17.07 0 0 1-34.14 0V307.2zM128 384a25.6 25.6 0 0 1 25.6-25.6 25.6 25.6 0 0 0 51.2 0H256a8.53 8.53 0 0 0 8.53-8.53v-25.6a8.3 8.3 0 0 1 1.31-4.27 8.24 8.24 0 0 0 14.44 0 8.31 8.31 0 0 1 1.32 4.27v34.13a17.07 17.07 0 0 1-17.07 17.07h-42.66a8.53 8.53 0 0 0-8.53 8.53v42.67h-8.53v-25.6a8.53 8.53 0 0 0-8.53-8.54H128zm-25.6 25.6h34.13v17.07h-34.12zm-34.12 34.13v17.07H51.21v-17.07zm0-102.4H51.21V307.2h17.07zm0-85.33v34.13H51.21V256zM51.21 477.87h34.14v17.06H51.21zm51.2 0h34.13v17.06h-34.13zm51.2 0h34.13v17.06h-34.13zm51.2 0h34.13v17.06h-34.13zM256 494.93v-17.06h34.13v17.06zm204.79 0h-17.06v-17.06h17.07zM508 154.88l-93.51-58a8.54 8.54 0 1 0-9 14.51l86.92 53.92-9.41 18.75L260.55 44a8.53 8.53 0 0 0-9.09 0L29 184l-9.39-18.77L256 18.58l120.43 74.75a8.54 8.54 0 0 0 9-14.51h0L260.5 1.28a8.52 8.52 0 0 0-9 0L4.05 154.88A8.53 8.53 0 0 0 .91 166L18 200.11a8.53 8.53 0 0 0 11.44 3.83l.74-.42 25-15.79H408.1a8.53 8.53 0 0 0 0-17.06H307.2v-59.74a8.53 8.53 0 0 0-8.53-8.53h-85.33a8.53 8.53 0 0 0-8.53 8.53v59.74H82.28L256 61.29l204.8 128.94V332.8a8.54 8.54 0 0 0 17.07 0V201l4 2.51a8.54 8.54 0 0 0 11.77-2.68l.42-.74 17.06-34.13a8.53 8.53 0 0 0-3.12-11.08zm-243.46 15.79V153.6h25.6v17.07zm25.6-34.14h-25.6v-17.06h25.6zm-42.67-17.06v17.06h-25.6v-17.06zm-25.6 34.13h25.6v17.07h-25.6z"/></svg>