<svg xmlns="http://www.w3.org/2000/svg" viewBox="0 0 512 512"  fill="#ffffff"><path d="M49.19 157.82q9.7 8.73 58.57 51.82 48.87 43.09 74.81 66.36 2.87 2.55 12.14 11.1 9.27 8.55 15.48 13.81 6.15 5.26 14.86 11.82a79.72 79.72 0 0 0 16.43 9.8 36.7 36.7 0 0 0 14.29 3.28h.57a36.74 36.74 0 0 0 14.29-3.28 79.72 79.72 0 0 0 16.43-9.8q8.7-6.56 14.85-11.82 6.15-5.26 15.43-13.82 9.28-8.55 12.14-11.1 26.25-23.26 133.71-118.18a160.35 160.35 0 0 0 34.85-44.72 114.79 114.79 0 0 0 14-54.91q0-24-13.57-41.09Q484.9 0 466.29 0H45.72q-22 0-33.86 18.91Q0 37.82 0 66.18q0 22.91 15.72 49.64 15.72 26.73 33.47 42zm434.24 38.9q-93.7 80.73-142.24 125.46-16.33 15.27-26.47 23.82-10.14 8.55-27 17.45-16.86 8.93-31.42 8.91h-.58q-14.58 0-31.43-8.91-16.85-8.91-27-17.45-10.14-8.55-26.43-23.82-38.56-36-142-125.46A168.64 168.64 0 0 1 0 165.09v288.72q0 24 13.43 41.09 13.43 17.09 32.29 17.1h420.57q18.86 0 32.29-17.1 13.43-17.1 13.42-41.09V165.09a176.55 176.55 0 0 1-28.57 31.63z"/></svg>