<svg xmlns="http://www.w3.org/2000/svg" viewBox="0 0 512 512"  fill="#00b3fa"><ellipse cx="247.74" cy="187.73" rx="16.52" ry="17.07"/><ellipse cx="346.84" cy="187.73" rx="16.52" ry="17.07"/><path d="M444.38 367.57l-81-24.12V314c20.95-16.71 38.77-40 46-66.5h24.16c15.95 0 28.88-13.38 28.9-29.87V166.4c0-16.49-12.95-29.85-28.9-29.87H412.9v-17.06C412.9 53.49 361.14 0 297.29 0S181.68 53.49 181.68 119.47v17.06H161c-15.95 0-28.88 13.38-28.9 29.87v51.2c0 16.49 13 29.85 28.9 29.87h4.13v34.13a8.4 8.4 0 0 0 8.26 8.53h34A149.32 149.32 0 0 0 231.23 314v29.48l-16.52 4.91v-19.86c0-11.77-9.25-21.32-20.65-21.33H20.65C9.25 307.21 0 316.76 0 328.53v128c0 11.78 9.25 21.32 20.65 21.34h42.46l-3.67 17.06H41.29a8.54 8.54 0 0 0 0 17.07h462.45a8.4 8.4 0 0 0 8.26-8.53v-45.16c0-42.59-27.77-79.84-67.62-90.74zm-6.7-213.22a12.79 12.79 0 0 1 8.26 12.05v51.2a12.79 12.79 0 0 1-8.26 12.05zm-24.78-.75h8.26v76.8h-8.26zm-256 76.05a12.78 12.78 0 0 1-8.25-12.05v-51.2a12.78 12.78 0 0 1 8.25-12.05zm221 135.89l-34.06 66.89-33.37-16.9 47.39-56zm-80.6 39.63l-49.55-58.51v-21.22c16.91 10.11 34.54 15.89 49.55 15.89s32.64-5.78 49.55-15.89v21.22zm-99.1-285.7c0-56.56 44.37-102.4 99.1-102.4s99.1 45.84 99.1 102.4v29.13a82.19 82.19 0 0 1-42.65-33.6 8.09 8.09 0 0 0-11.11-2.53c-.62.39-61.15 37.61-144.45 40zm-24.78 34.13h8.26v76.8h-8.26zm8.26 119.47v-25.6h3.51a112.28 112.28 0 0 0 10.67 25.6zm48 17.06h36A24.88 24.88 0 0 0 289 307.2h16.52c13.68 0 24.77-11.46 24.77-25.6S319.23 256 305.55 256H289a24.88 24.88 0 0 0-23.35 17.07h-50.3c-14.52-21-17.16-40.14-17.16-51.2v-52.39C270.72 167.56 326 141 344.55 130.87a96.86 96.86 0 0 0 51.84 35.47v55.53c0 14.66-4.61 43.52-35.45 72.08-19.88 18.41-44.87 30.32-63.65 30.32s-43.77-11.91-63.65-30.27l-3.95-3.87zm51.08-8.53a8.41 8.41 0 0 1 8.26-8.53h16.52a8.53 8.53 0 0 1 0 17.06H289a8.41 8.41 0 0 1-8.23-8.53zm-44 78L284 415.45l-32.76 16.91-34.09-67zM76.36 494.93l12.85-59.72h36.29l12.85 59.72zm71.57-34.13l-7.74-36a8.32 8.32 0 0 0-8.06-6.68H82.58a8.32 8.32 0 0 0-8.06 6.68l-7.74 36H20.65a4.19 4.19 0 0 1-4.13-4.27v-128a4.19 4.19 0 0 1 4.13-4.26h173.41a4.2 4.2 0 0 1 4.13 4.26v128a4.2 4.2 0 0 1-4.13 4.27zm118.63 34.13H155.27l-3.67-17.06h42.46c11.4 0 20.64-9.56 20.65-21.34v-59.35l25.72 50.52a8.15 8.15 0 0 0 11 3.67l5.82-3 14.6 30.17zm17.41 0l2.76-8.53h21.36l3.09 8.53zm24.74-25.6h-22.84L272 440.73l25.06-13 25.48 12.88zm186.77 25.6h-41.29v-25.6a8.26 8.26 0 1 0-16.51 0v25.6H328.82l-6-16.57 14.59-30.19 6.37 3.22a7.94 7.94 0 0 0 3.63.88 8.22 8.22 0 0 0 7.31-4.57l39.39-77.34L439.9 384l.18.05c32.64 8.89 55.39 39.39 55.4 74.26zm-478.96 0H8.26a8.54 8.54 0 0 0 0 17.07h8.26a8.54 8.54 0 0 0 0-17.07z"/></svg>