<svg xmlns="http://www.w3.org/2000/svg" height="512" viewBox="0 0 24 24" width="512"  fill="#00b3fa"><path d="M9.093 8.837a4.27 4.27 0 0 1-2.949-1.183c-.857-.823-1.065-1.862-1.285-2.962-.244-1.224-.497-2.49-1.706-3.652a.5.5 0 0 1-.126-.523c.064-.185.229-.316.423-.334l.137-.014C6.071-.084 9.162-.39 11.59 1.943c.769.738 1.234 1.871 1.245 3.028.011 1.102-.376 2.102-1.09 2.814-.703.703-1.665 1.052-2.652 1.052zM4.525 1.083c.864 1.152 1.101 2.342 1.315 3.414.196.981.365 1.83.996 2.437 1.071 1.028 3.015 1.333 4.201.146.522-.521.805-1.267.797-2.098-.009-.895-.359-1.761-.938-2.317C9.043.884 6.701.891 4.525 1.083zM18.017 7c-.07 0-.141-.002-.211-.007-.812-.048-1.517-.37-1.986-.907-1.336-1.529-.894-3.618.282-4.677 1.983-1.785 4.41-1.467 6.358-1.21l.105.014a.5.5 0 0 1 .413.348.5.5 0 0 1-.143.521c-.942.848-1.166 1.807-1.382 2.734-.193.827-.392 1.682-1.105 2.324-.608.546-1.467.86-2.331.86zM20.129.999c-1.18 0-2.353.247-3.359 1.154-.824.741-1.133 2.204-.198 3.274.292.334.751.535 1.293.567.668.035 1.35-.185 1.813-.6.48-.432.622-1.039.801-1.808.175-.753.384-1.646 1.008-2.502L20.129.999zm-3.693.782h.01z"/><path d="M13.629 12.06a.5.5 0 0 1-.491-.409C12.48 8.096 9.1 5.169 9.065 5.14a.5.5 0 1 1 .65-.76c.15.128 3.683 3.18 4.407 7.089a.5.5 0 0 1-.401.582.48.48 0 0 1-.092.009zM3.5 22h-3a.5.5 0 0 1-.5-.5v-9a.5.5 0 0 1 .5-.5c3.401 0 5.198 1.146 5.273 1.195a.5.5 0 0 1 .212.542l-2 7.886A.5.5 0 0 1 3.5 22zM1 21h2.111l1.809-7.13c-.563-.269-1.889-.786-3.92-.861z"/><path d="M13 24c-2.36 0-6.923-1.984-9.434-3.168a.5.5 0 0 1-.239-.665.5.5 0 0 1 .666-.239C5.953 20.852 10.753 23 13 23c2.432 0 8.165-2.857 9.814-3.706-.26-.34-.797-.794-1.814-.794-.923 0-2.093.369-3.225.727-1.203.379-2.448.773-3.525.773-2.064 0-4.805-.988-4.921-1.03a.5.5 0 1 1 .342-.94c.026.01 2.692.97 4.579.97.923 0 2.093-.369 3.225-.727 1.203-.379 2.448-.773 3.525-.773 2.333 0 2.949 1.767 2.974 1.842a.5.5 0 0 1-.239.6C23.424 20.106 16.089 24 13 24z"/><path d="M16.5 19.59a.5.5 0 0 1-.5-.5v-.5a1.48 1.48 0 0 0-1.144-1.452l-9.654-2.331a.5.5 0 0 1-.369-.604c.064-.27.339-.429.603-.369l9.65 2.33C16.212 16.427 17 17.425 17 18.59v.5a.5.5 0 0 1-.5.5zm-2.87-7.532a.5.5 0 0 1-.5-.5c0-.173.063-4.247 4.612-6.986a.501.501 0 1 1 .516.858c-4.047 2.437-4.126 5.983-4.127 6.133a.5.5 0 0 1-.501.495z"/></svg>