<svg xmlns="http://www.w3.org/2000/svg" viewBox="0 0 512 512"  fill="#00b3fa"><path d="M454.72 150.94l10.47-12.85 10.21 9.26a7.33 7.33 0 0 0 4.92 1.92h.57a7.42 7.42 0 0 0 5.11-2.77l16.21-19.89a8.27 8.27 0 0 0-.8-11.23L445.7 64.83a7.24 7.24 0 0 0-5.49-1.9 7.39 7.39 0 0 0-5.16 2.74l-16.21 19.89a8.28 8.28 0 0 0 .81 11.23l10.2 9.25-11.27 13.83A194.22 194.22 0 0 0 341 89V65h26c12.14 0 22-10.42 22-23.22V23.21C389 10.41 379.12 0 367 0H253.61c-12.14 0-22 10.41-22 23.21v18.53c0 12.8 9.87 23.22 22 23.22h26V89a194.39 194.39 0 0 0-78.9 31.78l-12-14.76 10.21-9.25a8.15 8.15 0 0 0 2.6-5.44 8.28 8.28 0 0 0-1.8-5.79l-16.24-19.87a7.29 7.29 0 0 0-10.65-.84l-55.75 50.55a8.12 8.12 0 0 0-2.6 5.44 8.22 8.22 0 0 0 1.8 5.79l16.21 19.89a7.29 7.29 0 0 0 10.65.85l10.2-9.26 11.46 14.07A213.06 213.06 0 0 0 138.5 188a6.57 6.57 0 0 0-.78 0H90.05a8 8 0 0 0 0 15.92h40a218.27 218.27 0 0 0-10.37 25.86H43.44a8 8 0 0 0 0 15.93h71.7a221.52 221.52 0 0 0-5.63 34.08H7.55a8 8 0 0 0 0 15.92h101.14v3.58a225.33 225.33 0 0 0 2.08 30.5H36.39a8 8 0 0 0 0 15.93h77.11a221.61 221.61 0 0 0 7.15 25.86H83a8 8 0 0 0 0 15.93h43.83C158.67 460.89 228.94 512 310.33 512c42.5 0 83.16-13.79 117.57-39.87a8.25 8.25 0 0 0 1.72-11.13 7.3 7.3 0 0 0-10.54-1.82 178.8 178.8 0 0 1-108.75 36.87c-102.88 0-186.58-88.28-186.58-196.79s83.7-196.8 186.58-196.8c49.8 0 95.1 20.69 128.6 54.35l.21.22c35.57 35.86 57.76 86.36 57.76 142.23 0 52.63-19.45 102.09-54.76 139.28a8.27 8.27 0 0 0 0 11.26 7.28 7.28 0 0 0 10.68 0C491 409.63 512 356.17 512 299.28c0-57.64-21.86-110-57.28-148.34zM441.58 82.1l44.3 40.17-6.36 7.81-44.3-40.17zm-.28 34.33l12.44 11.28-10 12.23q-6.15-5.73-12.72-10.95zM276.94 49V15.93h12.19V49zm27.29-33.1h12.19V49h-12.19zM331.52 49V15.93h12.19V49zM374 23.21v18.53a7.12 7.12 0 0 1-7 7.26h-8.23V15.93H367a7.11 7.11 0 0 1 7 7.28zM246.7 41.74V23.21a7.11 7.11 0 0 1 6.91-7.28h8.23V49h-8.23a7.12 7.12 0 0 1-6.91-7.29zM139 130.08l-6.37-7.81L177 82.1l6.37 7.81-34.1 30.92zm26-2.57l12.21-11.08 11.1 13.57q-6.52 5.25-12.64 11l-10.88-13.35zm129.71-40.32V65h31.23v22.19q-7.72-.63-15.61-.63-7.89 0-15.62.63zM247.1 154.2a7.36 7.36 0 0 0-10.19-3.37c-45.9 25.3-77.3 72.71-84 126.81-11.29 91.55 50.09 175.73 136.91 187.65a150 150 0 0 0 20.62 1.42c78.46 0 146.87-61.57 157.28-145.8 5.48-44.34-5.74-88.28-31.6-123.73S372.88 139 330.83 133.26a149.86 149.86 0 0 0-60.8 4 8 8 0 0 0-5.38 9.72 7.52 7.52 0 0 0 9.22 5.68 135.8 135.8 0 0 1 28.9-4.73v20.92a7.56 7.56 0 1 0 15.1 0V148q5.5.31 11 1.06a139.44 139.44 0 0 1 77.79 37.83L393 201.3a8.29 8.29 0 0 0 0 11.26 7.28 7.28 0 0 0 10.68 0l13.63-14.38q3.57 4.2 6.86 8.71a155.46 155.46 0 0 1 29.63 84.61h-18.74a8 8 0 0 0 0 15.93h18.69q-.3 5.7-1 11.42a154.42 154.42 0 0 1-35.48 81.46l-12.93-13.64a7.28 7.28 0 0 0-10.68 0 8.27 8.27 0 0 0 0 11.26l12.95 13.65c-23.78 22.65-54.57 36.86-87.79 38.93V431a7.56 7.56 0 1 0-15.1 0v19.6q-6-.28-12-1.1a139.52 139.52 0 0 1-76.54-36.77l13.37-14.1a8.27 8.27 0 0 0 0-11.26 7.28 7.28 0 0 0-10.68 0l-13.45 14.18A155.81 155.81 0 0 1 167 308.42h19.57a8 8 0 0 0 0-15.92h-19.72a159.17 159.17 0 0 1 1.05-12.8 155.45 155.45 0 0 1 35.28-81.28l14.07 14.84a7.28 7.28 0 0 0 10.68 0 8.27 8.27 0 0 0 0-11.26l-14.11-14.88a143.81 143.81 0 0 1 30.08-22.18 8.17 8.17 0 0 0 3.2-10.74zm63.23 72.03a7.77 7.77 0 0 0-7.55 8v47.27a19.57 19.57 0 0 0-10.94 17.78c0 10.75 8.29 19.5 18.49 19.5a17.64 17.64 0 0 0 7.81-1.85l50.37 53.12a7.26 7.26 0 0 0 10.68 0 8.29 8.29 0 0 0 0-11.26l-51.15-54a20.34 20.34 0 0 0 .77-5.56 19.58 19.58 0 0 0-10.93-17.78V234.2a7.77 7.77 0 0 0-7.55-8zm-3.39 73a3.39 3.39 0 1 1 3.39 3.57 3.49 3.49 0 0 1-3.39-3.52z"/></svg>