<svg xmlns="http://www.w3.org/2000/svg" height="681.333" viewBox="0 0 511.998 511" width="681.333" fill="#00b3fa"><path d="M8.535 512.488h409.598c4.715 0 8.535-3.82 8.535-8.531v-76.801h59.73c4.715 0 8.535-3.82 8.535-8.531v-85.336c0-4.711-3.82-8.531-8.535-8.531h-59.73v-76.801c0-4.715-3.82-8.535-8.535-8.535h-15.66c1.203-5.578-.07-11.406-3.488-15.977l-38.559-51.398 17.805-13.355A29.5 29.5 0 0 0 390 133.41l-.855-15.367c-.234-4.168 1.633-8.176 4.973-10.68l17.801-13.352 7.492 9.984c1.355 1.809 3.375 3.008 5.617 3.328a8.28 8.28 0 0 0 1.207.082c1.848.004 3.645-.598 5.121-1.707l70.406-52.816c11.305-8.48 13.598-24.523 5.117-35.832l-4.742-6.328c-8.492-11.293-24.527-13.578-35.84-5.109l-70.398 52.813a8.54 8.54 0 0 0-1.707 11.949l7.488 9.984-17.801 13.355a29.48 29.48 0 0 0-11.77 25.277l.852 15.367c.238 4.168-1.629 8.18-4.969 10.68l-17.801 13.355-38.562-51.398a19.79 19.79 0 0 0-17.367-7.98c-6.465.469-12.242 4.219-15.309 9.934l-70.117 130.473H8.535c-4.715 0-8.535 3.82-8.535 8.535v85.332c0 4.715 3.82 8.535 8.535 8.535h59.73v68.266H8.535C3.82 410.09 0 413.91 0 418.625v85.332c0 4.711 3.82 8.531 8.535 8.531zM476.539 19.262c3.766-2.828 9.113-2.066 11.945 1.703l4.742 6.328c2.824 3.77 2.059 9.113-1.707 11.941l-63.582 47.699-14.98-19.977zM153.602 427.156h119.465v68.266H153.602zm68.266-85.332h119.465v68.266H221.867zm187.734 153.598H290.133v-68.266h119.469zm68.266-85.332h-119.47v-68.266h119.469zm-68.266-85.332H290.133v-49.691l87.344-18.578h32.125zm-115.61-207.723c.289-.598.891-.98 1.555-1l.168-.008a2.81 2.81 0 0 1 2.262 1.207l38.555 51.398-35.203 26.41a8.54 8.54 0 0 0-1.707 11.949 8.54 8.54 0 0 0 11.949 1.707l35.203-26.41 38.559 51.398a2.76 2.76 0 0 1 .469 2.672 1.79 1.79 0 0 1-1.395 1.215l-169.293 36c-1.051.164-2.105-.285-2.711-1.16a2.72 2.72 0 0 1-.352-2.922zm-95.238 165.621c4.547 6.254 12.352 9.234 19.91 7.609l54.402-11.57v46.063H153.602v-68.27h46.059l-2.645 4.922c-3.656 6.809-2.973 15.125 1.738 21.246zm-181.687 7.969h17.066c4.715 0 8.535-3.82 8.535-8.535a8.53 8.53 0 0 0-8.535-8.531H17.066v-17.07h119.469v68.27H17.066zm68.266 51.199h119.469v68.266H85.332zm-68.266 85.332h119.469v68.266H17.066zm93.867-145.066c0-4.711-3.82-8.531-8.535-8.531H68.266c-4.711 0-8.531 3.82-8.531 8.531s3.82 8.535 8.531 8.535h34.133c4.715 0 8.535-3.82 8.535-8.535zm0 0"/></svg>