<svg xmlns="http://www.w3.org/2000/svg" viewBox="0 0 480 480"  fill="#00b3fa"><path d="M136 272h16v16h-16zm32 0h16v16h-16zm0 0"/><path d="M200 272h16v16h-16zm-64 32h16v16h-16zm32 0h16v16h-16zm32 0h16v16h-16zm32 0h16v16h-16zm32 0h16v16h-16zm-128 32h16v16h-16zm32 0h16v16h-16zm32 0h16v16h-16zm32 0h16v16h-16zm0 0"/><path d="M264 336h16v16h-16zm-128 32h16v16h-16zm0 0"/><path d="M168 368h16v16h-16zm32 0h16v16h-16zm32 0h16v16h-16zm32 0h16v16h-16zm-128 32h16v16h-16zm32 0h16v16h-16zm32 0h16v16h-16zm32 0h16v16h-16zm0 0"/><path d="M264 400h16v16h-16zm-128 32h16v16h-16zm0 0"/><path d="M168 432h16v16h-16zm32 0h16v16h-16zm32 0h16v16h-16zm32 0h16v16h-16zM472 24h-56V8a8 8 0 0 0-8-8h-80a8 8 0 0 0-8 8v16H8a8 8 0 0 0-8 8v32a8 8 0 0 0 8 8h24v152a8 8 0 0 0 8 8 8 8 0 1 1-8 8H16c.023 5.855 2.199 11.5 6.121 15.852l-20.52 27.352.102.078A7.83 7.83 0 0 0 0 288v32c0 2.125.844 4.156 2.344 5.656l16 16A8 8 0 0 0 24 344h32a8 8 0 0 0 5.656-2.344l16-16c1.5-1.5 2.344-3.531 2.344-5.656v-32c-.035-1.715-.633-3.375-1.703-4.719l.102-.078-20.52-27.352A23.85 23.85 0 0 0 48 217.371V72h272v8a8 8 0 0 0 8 8h16v376h-32V144h-16v32h-48v-16h-16v16h-48v-8h-16v8h-48v-24h104v-16H120v-32h-16v360H91.313l-37.656-37.652a8 8 0 0 0-11.312 0L4.688 464H0v16h480v-16h-6.238a23.78 23.78 0 0 0-11.523-39.07 24 24 0 0 0-7.676-28.098c-8.598-6.566-20.527-6.566-29.125 0a24 24 0 0 0-7.676 28.098A23.78 23.78 0 0 0 406.238 464H392V88h16a8 8 0 0 0 8-8v-8h56a8 8 0 0 0 8-8V32a8 8 0 0 0-8-8zM44 264l12 16H24l12-16zm20 52.691L52.688 328H27.313L16 316.691V296h48zM437.602 40L416 54.402V40zM336 16h32v32h-32zM120 41.602L141.602 56H98.398zm-48 12.8L50.398 40h43.203zM146.398 40h43.203L168 54.402zM216 41.602L237.602 56h-43.203zM242.398 40h43.203L264 54.402zM16 40h5.602l24 16H16zm274.398 16l24-16H320v16zM376 437.602L361.602 416 376 394.402zm0-192L361.602 224 376 202.402zm-16 4.801L374.398 272 360 293.602zm0-52.801v-43.199L374.398 176zm0 148.801L374.398 368 360 389.602zm16-4.848L361.602 320 376 298.402zM361.602 128L376 106.402v43.199zM360 101.602V88h9.055zM296 192v80h-48v-80zm-64 0v68.801l-18.398-18.184a8.02 8.02 0 0 0-5.602-2.312h-24V192zm-64 0v13.336h-48V192zM48 443.313L68.688 464H27.313zM120 464V221.336h48v27a8 8 0 0 0 8 8h28.711l29.688 29.355A8 8 0 0 0 240 288h56v176zm240-21.598L374.398 464H360zM456 456a8 8 0 1 1 0-16 8 8 0 1 1 0 16zm-16-48a8 8 0 1 1 0 16 8 8 0 1 1 0-16zm-16 32a8 8 0 1 1 0 16 8 8 0 1 1 0-16zM400 72h-64v-8h40a8 8 0 0 0 8-8V16h16zm42.398-16L464 41.602V56zm0 0"/></svg>