<svg xmlns="http://www.w3.org/2000/svg" viewBox="0 0 460.3 460.3"  fill="#ffffff"><path d="M230.15 92.92L65.99 262.98a5.75 5.75 0 0 1-.15 1.07 6.49 6.49 0 0 0-.14 1.07v172.21a25.12 25.12 0 0 0 5.45 16.14q5.42 6.81 12.84 6.82H193.6V322.53h73.1V460.3h109.63q7.43 0 12.85-6.83a25.16 25.16 0 0 0 5.43-16.14V265.15a6.29 6.29 0 0 0-.29-2.14zm227 131.31l-62.52-65.29V12.56a12.79 12.79 0 0 0-2.57-8.25 8 8 0 0 0-6.6-3.23h-54.81a8 8 0 0 0-6.57 3.23 12.87 12.87 0 0 0-2.57 8.25v70L251.85 9.33a29.89 29.89 0 0 0-43.39 0L3.15 224.23a11.51 11.51 0 0 0-3.14 7.71 13.76 13.76 0 0 0 2 8.44l17.7 26.55a9.32 9.32 0 0 0 6 3.94c2.28.24 4.57-.59 6.85-2.51L230.15 61.35l197.57 207a7.74 7.74 0 0 0 6 2.5h.85a9.28 9.28 0 0 0 6-3.94l17.7-26.55a13.66 13.66 0 0 0 2-8.43 11.46 11.46 0 0 0-3.12-7.7z"/></svg>