<svg xmlns="http://www.w3.org/2000/svg" viewBox="0 0 127.85 54.57" fill="#ffffff"><path d="M103.85 54.55V31.67c0-.89.21-1.13 1.11-1.12q10.91.06 21.81 0c.9 0 1.11.23 1.11 1.12v22.88zm20.23-13.6l-.14-.28c-1.67 0-3.34-.05-5 0a1.07 1.07 0 0 1-1.29-1 10.16 10.16 0 0 0-1.52-3.68c-.12-.2-.14-.45-.47-.41s-.28.31-.35.52l-1.11 3.66a1.05 1.05 0 0 1-1.24.93c-1.69-.06-3.39 0-5.19 0a11.2 11.2 0 0 0 3 2.36c2 1.06 2.08 1.16 1.38 3.29l-1.34 4.15 3.79-2.75a1.7 1.7 0 0 1 2.31-.06 31.83 31.83 0 0 1 2.86 1.86c.15.15.31.4.59.17s.15-.34.15-.59a13.5 13.5 0 0 0-.64-2.54c-.11-.46-.34-.62-.87-.52a4.77 4.77 0 0 1-2.08.31 51.51 51.51 0 0 1 7.16-5.42zm-98.16 13.6V31.67c0-.89.21-1.13 1.11-1.12q10.9.06 21.81 0c.9 0 1.11.23 1.11 1.12v22.88zM46.2 40.93l-.12-.26h-5.14a1 1 0 0 1-1.16-.88 15.72 15.72 0 0 0-1.38-3.74c-.13-.27-.18-.52-.54-.5s-.36.25-.44.49l-1 3.3c-.22.93-.55 1.43-1.66 1.34-1.6-.12-3.22 0-4.83 0a12.83 12.83 0 0 0 3.52 2.71 1.78 1.78 0 0 1 .91 2.62c-.49 1.27-.85 2.6-1.33 4.12a15.59 15.59 0 0 0 3.28-2.11c1.75-1.2 1.73-1.22 3.45 0l3.36 2.39-.74-2.47a5.76 5.76 0 0 0-.67-1.77c-.47-.6-1.17.19-1.78 0-.09 0-.25 0-.25-.21.64-1.27 2-1.82 3.07-2.64l3.45-2.39zm5.88 13.62V31.67c0-.89.21-1.13 1.11-1.12q10.9.06 21.8 0c.91 0 1.12.23 1.11 1.12v22.88zm20.19-13.88c-1.92 0-3.52-.09-5.1 0-1 .07-1.39-.34-1.61-1.25a12.34 12.34 0 0 0-1.21-3.47c-.12-.21-.15-.45-.48-.4a.31.31 0 0 0-.3.3c-.13 1.37-1.19 2.4-1.36 3.76-.1.8-.52 1.09-1.38 1-1.65-.08-3.31 0-5 0a21 21 0 0 0 3.71 2.86 1.67 1.67 0 0 1 .73 2.38l-1.39 4.31h.21l3.12-2.19c1.76-1.21 1.76-1.2 3.43 0 .65.47 1.27 1 2 1.39.47.29.82.88 1.53.79 0-.89-.67-1.43-.87-2.21-.51-2-.59-2-2.7-1.71-.08 0-.19-.13-.31-.22 1.85-2.16 4.71-3.11 6.98-5.34zM.02 30.57h22.89c.89 0 1.11.22 1.11 1.11v22.89H.94c-.75 0-.92-.17-.92-.92V30.57zm4.06 10.1l-.1.3a35.94 35.94 0 0 0 3.38 2.42c1.23.69 1.23 1.53.81 2.67l-1.39 4.36 4.38-3a1.17 1.17 0 0 1 1.67 0l4.39 3L16 46.5c-.14-.49-.41-.56-.9-.47a4 4 0 0 1-2.07 0c2.31-1.93 4.84-3.31 7.25-5.42-2 0-3.67-.06-5.33 0-.87 0-1.19-.31-1.38-1.08a13.53 13.53 0 0 0-1.24-3.59c-.11-.19-.09-.47-.44-.46s-.33.26-.39.49l-1.06 3.55a1.23 1.23 0 0 1-1.49 1.08l-4.87.07zm84.1-10.13h12.44c1.15 0 1.34.35 1.33 1.39v22.62h-24V31.73c0-.91.19-1.22 1.16-1.19h6.57zm3.1 15.57c.5-.46.59-1 1.1-1.25a48.21 48.21 0 0 0 5.1-3.53c.19-.14.56-.22.38-.66-1.58 0-3.18-.09-4.77 0-1.11.09-1.44-.41-1.66-1.34s-.65-2.13-1-3.19c-.09-.26-.08-.57-.47-.6s-.46.33-.56.63l-1 3.42c-.2.73-.49 1.13-1.38 1.08-1.68-.09-3.37 0-5.06 0a22.76 22.76 0 0 0 3.21 2.65c1.51 1.1 1.47 1.09.91 2.91a22.09 22.09 0 0 0-1.18 4.07l3.9-2.65a1.63 1.63 0 0 1 2.38 0c1.2.92 2.5 1.72 4 2.72l-.72-2.44c-.6-1.86-.61-1.86-2.56-1.79a5 5 0 0 1-.62-.03zM7.08 27.84l3.05-9.43a1.21 1.21 0 0 0-.55-1.66L1.63 11a1 1 0 0 1-.16-.18c.22-.36.57-.18.85-.18h9.34a1.14 1.14 0 0 0 1.32-1L16.17 0c.51.23.46.74.59 1.11l2.8 8.63a1.08 1.08 0 0 0 1.27.9h10.56l-9.31 6.83a39.51 39.51 0 0 0-5.31 3.95l6-1.52 2.75 8.1-.22.15-7.22-5.3c-1.76-1.27-1.74-1.25-3.48 0l-7.31 5.16z"/><path d="M7.26 27.98l-.18.12a2.5 2.5 0 0 0 0-.26zm80.92 2.56h-2.52V15.7c0-.52.07-.87.7-.76s2-.6 1.78 1.2a5 5 0 0 1 5.93-1c2.14 1 2.82 2.9 2.91 5.09a9.8 9.8 0 0 1-.1 2c-.83 4.3-5 5.75-8.65 2.8zm6.19-9.79c0-2.46-1.28-4.12-3.21-4.08s-3 1.43-3 3.73 1.07 4 2.83 4.17c2.09.16 3.36-1.34 3.38-3.82zm19.49 5.87c-3.58 0-5.81-2.27-5.82-6s2.27-6.06 5.78-6a5.62 5.62 0 0 1 5.81 6.06c-.04 3.59-2.31 5.93-5.77 5.94zm3.22-6.07a5.12 5.12 0 0 0-.64-2.38 3 3 0 0 0-4.53-.77 4.73 4.73 0 0 0 .1 6.55 2.78 2.78 0 0 0 1.64.63c1.94.08 3.35-1.51 3.43-4.03zM76.2 18.14h-2a.78.78 0 0 1-.79-.36 2.61 2.61 0 0 0-3.23-.94c-.46.17-.9.39-.92 1a1.11 1.11 0 0 0 .74 1 11.67 11.67 0 0 0 2.52.71 20.67 20.67 0 0 1 2.17.63 2.76 2.76 0 0 1 1.89 2.4 3.19 3.19 0 0 1-1.39 3.11 7.32 7.32 0 0 1-7.06.2 3.57 3.57 0 0 1-1-1c-.43-.65-1-1.52-.54-2.07s1.42-.14 2.17-.16c.32 0 .3.29.4.5a3.19 3.19 0 0 0 4.52.87c.67-.63.46-1.55-.51-2a21.16 21.16 0 0 0-3.46-.89c-2-.54-2.91-1.49-3-3.07a2.67 2.67 0 0 1 1.58-2.72 6.73 6.73 0 0 1 6.1-.08 3.34 3.34 0 0 1 1.81 2.87zm-13.99 6.75a4.6 4.6 0 0 1-2.62 1.67c-3 .52-4.88-1-4.93-4v-6.83c0-1.12.69-.83 1.25-.82s1.41-.38 1.37.85v6c0 2 .64 2.79 2.13 2.81a2.56 2.56 0 0 0 2.67-2.76v-6c0-.67.17-.86.85-.86 1.77 0 1.77 0 1.77 1.76v8.39c0 .61.18 1.38-.89 1.18-.73-.11-1.95.58-1.6-1.39zm-22.99-5.21v-5.75c0-.66-.15-.92-.85-.88-1.07.06-2.16-.06-3.23 0-1.23.11-.84-.72-.88-1.31s-.15-1.2.9-1.18a310.28 310.28 0 0 0 11 0c1.13 0 .82.69.82 1.25s.32 1.33-.82 1.23-2 0-3 0-1.22.17-1.2 1.15l.06 11c0 1.24-.62 1.09-1.38 1.08s-1.59.25-1.49-1.11c.16-1.8.07-3.64.07-5.48zm82.96 1.03v-2.87c0-.71-.13-1.06-.9-.94s-1.09 0-1.07-.91.21-1.2 1.06-1c.61.1.89-.14.82-.78 0-.44.06-.89 0-1.32-.18-1.09.3-1.28 1.31-1.3s1.49.32 1.32 1.38v1c-.16.95.27 1.18 1.13 1.08.64-.08 1.23-.14 1.2.9 0 .88-.32 1.15-1.11 1-1-.17-1.3.19-1.24 1.2.1 1.63 0 3.27 0 4.91 0 1 .37 1.53 1.44 1.4.54-.07.94 0 .85.72s.24 1.37-.81 1.35a15.19 15.19 0 0 1-1.91 0 2.06 2.06 0 0 1-2-2.11v-3.58zm-43.1.18v-2.27c.06-1 .13-1.94-1.44-1.76-.79.09-.33-.78-.43-1.2s0-.84.59-.72c1.28.25 1.42-.47 1.28-1.41a1.55 1.55 0 0 1 0-.48c.08-.48-.3-1.21.25-1.4a5.62 5.62 0 0 1 2 0c.32 0 .3.33.3.56a6.86 6.86 0 0 1 0 1.2c-.16 1.18.17 1.82 1.51 1.57.83-.15.74.44.75 1s0 1.1-.78.95c-1.35-.26-1.57.41-1.49 1.58.1 1.47.05 3 0 4.43 0 1 .29 1.64 1.44 1.5.49 0 1-.09.85.68-.1.56.33 1.38-.76 1.38a17.81 17.81 0 0 1-1.79 0 2.17 2.17 0 0 1-2.25-2.42c-.06-1 0-2.08 0-3.12zm24.48-2.55v-6.83c0-.61 0-.91.81-.91 1.77 0 1.77 0 1.77 1.75v12.94c0 1.32-.76 1-1.45 1s-1.23.05-1.18-1l.05-6.95zm-54.62-1.76a4.38 4.38 0 0 1 3.11-2c.65 0 1.28 0 1.08.91-.14.61.62 1.67-.93 1.6-1.95-.09-3.14 1.27-3.21 3.49v4.9c0 .65-.2.79-.81.8-1.78 0-1.78 0-1.78-1.74v-8.49c0-.64-.13-1.32.91-1.16.69.1 1.74-.38 1.51 1.05a2.63 2.63 0 0 0 .12.64zm49.87 4.04v-4.79c0-.77.23-.93.94-.91 2.07.08 1.66-.18 1.68 1.62v8.75c0 .73-.13 1.05-1 1-1.65 0-1.65 0-1.65-1.62zm1.27-7.6c-1.21.35-1.19-.33-1.29-1.24-.13-1.3.61-1.09 1.41-1.18 1.13-.14 1.25.34 1.28 1.32.02 1.21-.54 1.31-1.4 1.1z"/></svg>