<svg xmlns="http://www.w3.org/2000/svg" viewBox="0 0 186.24 286.08"><path d="M186.22 230.39h-7c-.94 0-.64.64-.64 1.07v21.48c0 1.26-.33 1.62-1.56 1.52a38.68 38.68 0 0 0-4.44 0c-.88 0-1.16-.23-1.15-1.15v-21.59c0-1-.17-1.41-1.29-1.34-1.71.11-3.43 0-5.15.05-.68 0-.92-.18-.9-.87v-4.31c0-.74.27-1 1-1q10 0 19.91 0c.38 0 .84.46 1.19-.08zm-91.99.51l-3.45 10.56-3 9.81-.71 2.2c-.28.87-.69 1-1.41.92s-1.19 0-1.79 0c-2 0-2.07 0-2.63-1.84l-2.54-8.91-2.22-7.26c-.39-1.55-1.13-3-1.19-4.77-.7.53-.49 1.09-.49 1.56v19.91c0 1.09-.31 1.39-1.35 1.33-1.31-.08-2.64 0-4 0-.59 0-.82-.15-.82-.81q0-14.16 0-28.31c0-.71.26-1 1-1h9.24a1.11 1.11 0 0 1 1.14 1c.43 1.86 1 3.67 1.56 5.5l1.74 5.93c.37 1.65 1.16 3.19 1.23 5.07 1.06-.67 1-1.78 1.33-2.65l2.77-8.68 1.53-5a1.31 1.31 0 0 1 1.49-1.13h8.4c1.05 0 1.26.36 1.26 1.31v27.68c0 1-.3 1.19-1.2 1.15q-2.34-.1-4.68 0c-.83 0-1-.27-1-1v-22.48zm41.71 8.5v-13.68c0-1.05.25-1.5 1.4-1.49 4.24.06 8.48-.11 12.71.07 3.27.13 6.5.65 8.54 3.77 2.64 4.06 2.25 9.14-1.65 12.06-.61.46-1.76.51-1.79 1.39 0 .69.54 1.41.84 2.11l4.17 9.66c.32.74.42 1.15-.65 1.12-2-.07-3.92 0-5.88 0-.54 0-.81-.09-1.06-.75-1.34-3.49-2.84-6.92-4.23-10.39-.22-.55-.58-.47-.94-.48-1.08 0-2.16.05-3.23 0-.87-.06-1.16.17-1.14 1.1l.05 9.47c0 .94-.27 1.13-1.14 1.1a61.84 61.84 0 0 0-4.91 0c-.83 0-1.1-.24-1.09-1.09V239.4zm11.18-9.53h-3.37c-.58 0-.75.18-.74.75v6.1c0 .57.12.89.8.84 2.08-.15 4.18.24 6.25-.37a3.55 3.55 0 0 0 2.58-2.63c.31-2-.25-3.49-1.5-4.2s-2.85-.32-4.02-.49zM7.33 239.45v-13.78c0-1.12.38-1.45 1.46-1.43l8.87.05c3.72.2 7.37.76 10.09 3.76a15.67 15.67 0 0 1 4.07 8.06c1 5.66-.27 10.6-4.29 14.72a11.65 11.65 0 0 1-8.16 3.51c-3.67.12-7.35 0-11 .06-.79 0-1-.26-1-1l-.04-13.95zm7.09-.26v8.52c0 .32-.29.9.41.9a16.6 16.6 0 0 0 4.18-.12c3.33-.89 4.88-3.53 5.41-6.69a12.86 12.86 0 0 0-.46-7 7.17 7.17 0 0 0-3.14-4c-1.67-.9-3.38-.78-5.12-.87-1 0-1.37.14-1.33 1.27.12 2.63.05 5.31.05 7.99zm94.53.21v-13.79c0-1.12.33-1.39 1.42-1.38q9.34.08 18.7 0c1.15 0 1.59.32 1.48 1.5a19.12 19.12 0 0 0 0 3.12c.09 1.09-.27 1.47-1.4 1.45H117.4c-1.15 0-1.43.35-1.35 1.41a30.71 30.71 0 0 1 0 3.59c0 .74.19 1 .94.95h9.35c.93 0 1.31.27 1.26 1.23a24.87 24.87 0 0 0 0 3.23c.08 1-.23 1.32-1.25 1.3-3.07-.06-6.15 0-9.23 0-.81 0-1.12.17-1.07 1a39.23 39.23 0 0 1 0 4.2c-.06 1 .27 1.39 1.34 1.38 3.84-.06 7.68 0 11.51 0 1.63 0 1.63 0 1.64 1.61v3.47c0 .65-.22.83-.82.82h-20c-.85 0-.74-.46-.74-1zm-71.06-3.48v-10.44c0-.89.19-1.3 1.21-1.25 1.75.09 3.51.06 5.27 0 .94 0 1.25.31 1.24 1.25q0 9.84 0 19.67a3.87 3.87 0 0 0 3.93 3.95 7.33 7.33 0 0 0 4.45-.73 3.37 3.37 0 0 0 1.67-3.1q.08-9.77 0-19.54c0-1.17.32-1.59 1.49-1.5s2.48 0 3.72 0c.7 0 1 .28 1 1l-.13 20.39c-.07 2.65-.77 5.24-3.23 7a11.72 11.72 0 0 1-6.21 2.26 46.89 46.89 0 0 1-5 0c-3.92-.27-7-1.94-8.65-5.68a12 12 0 0 1-.77-5l.01-8.28zm10.51 36.89v4.32c0 .81.09 1.59 1.1 1.6s1.26-.78 1.28-1.64c0-1.17.41-1.49 1.51-1.27.41.08.72.31.67.71-.16 1.28-.13 2.68-1.38 3.52a3.47 3.47 0 0 1-3.94.1 3.68 3.68 0 0 1-1.44-3.21v-8.38c.09-2.79 1.54-3.89 4.16-3.58a3.36 3.36 0 0 1 2.38 4.19c-.25.54-.75.33-1.16.35-.56 0-.8-.33-.82-.81a5.75 5.75 0 0 0-.13-1.17c-.17-.73-.64-.81-1.24-.76a.92.92 0 0 0-1 1v5zm15.59 1.52v-5c0-.75.88-1.15 1.79-.64a1.38 1.38 0 0 0 1.5 0 2.17 2.17 0 0 1 3.21 1.81v9.23c0 .85-.54.7-1 .73-.71 0-1-.24-1-1v-7.19a3.78 3.78 0 0 0-.1-1.07c-.18-.52-.4-1.14-1.13-1s-1.16.44-1.15 1.25v7.56c0 .81-.09 1.4-1.06 1.43s-1.07-.68-1.06-1.46v-4.68zm67.25-.05v-4.44c0-1.28.64-1.79 1.78-1.16a1.36 1.36 0 0 0 1.49 0 2.18 2.18 0 0 1 3.17 1.77v9.35c0 .89-.63.63-1.1.67-.75.07-.94-.32-.92-1v-7.08a2.87 2.87 0 0 0 0-.83c-.17-.6-.29-1.37-1.15-1.28a1.25 1.25 0 0 0-1.22 1.42v7.68c0 .89-.42 1.1-1.12 1.13s-1-.4-1-1.14l.07-5.09zm-76.3.01a20.5 20.5 0 0 1 .25-3.72 3.51 3.51 0 0 1 3.35-2.17 3.08 3.08 0 0 1 2.87 2.64 34.85 34.85 0 0 1 0 6.54 3 3 0 0 1-3.27 3 3.19 3.19 0 0 1-3.21-3.35l.01-2.94zm4.62.29h0v-3.1c-.07-.71-.39-1.37-1.34-1.29s-1.11.61-1.11 1.36v5.84c0 .79.25 1.46 1.14 1.45s1.31-.68 1.35-1.52-.04-1.83-.04-2.74zm62.56-.26a22.43 22.43 0 0 1 .24-3.71 3.58 3.58 0 0 1 3.45-2.22 3.12 3.12 0 0 1 2.79 2.76 32 32 0 0 1 0 6.42c-.22 2-1.47 3.17-3.23 3-2.07-.18-2.92-1-3.23-3.31a23.83 23.83 0 0 1-.02-2.94zm2.13.1h0v3.11a1.16 1.16 0 0 0 1 1.31 1.21 1.21 0 0 0 1.39-1.17 63.44 63.44 0 0 0 0-6.32 1.14 1.14 0 0 0-1.32-1.17c-.86.09-1.1.63-1.1 1.38l.03 2.86zm-47.24 3.15a2.28 2.28 0 0 0-1.12-2.2 6.11 6.11 0 0 1-2.64-2.66 3.42 3.42 0 0 1 .92-3.67 2.89 2.89 0 0 1 4.81 2.12c.07.43.06 1-.59.92s-1.22.35-1.41-.62c-.09-.45.21-1.26-.71-1.26-.35 0-.83-.21-1 .4s-.35 1.49.36 2.06 1.31.95 2 1.44a4 4 0 0 1 .9 5.39c-.63 1-2.39 1.35-4 .78a3.2 3.2 0 0 1-1.72-2.83.64.64 0 0 1 .71-.64c.45.07 1.08-.34 1.33.4a5.36 5.36 0 0 1 .17.57c.16.61.4 1.17 1.17 1.1s.74-.83.82-1.3zm23.3-3.09v4.68c0 .36.23.93-.23 1.06s-1.24.33-1.57-.13-.42-.22-.73 0a2.4 2.4 0 0 1-2.79.07 1.94 1.94 0 0 1-.9-1.93v-8.63c0-.69.07-1.13 1-1.14s1 .44.94 1.13v7.43c0 .91.24 1.72 1.16 1.76s1.23-.93 1.28-1.71c.1-1.27 0-2.56 0-3.84v-3.83c0-.66.2-.93.89-.93s1 .21 1 1l-.05 5.01zm4.62.03v2.87c.05.65 0 1.49 1 1.5s1.13-.77 1.12-1.48.38-.86 1-.87.86.27.86.91a2.82 2.82 0 0 1-2.56 3.12 2.71 2.71 0 0 1-3.24-2 17.52 17.52 0 0 1 .08-8.27 3 3 0 0 1 3.53-1.84 3.21 3.21 0 0 1 2.27 3.42c-.08.47-.45.59-.89.56s-1 .14-1.06-.61a2.24 2.24 0 0 0-.29-1.13.88.88 0 0 0-1-.48c-.48 0-.67.29-.78.74a7.09 7.09 0 0 0-.13 1.78v1.8zm6.99.2v-2.88c0-.62.14-1.21-.78-1.46-.62-.18-.65-1.49 0-1.69 1.08-.34.81-1.1.82-1.8s-.1-1.2.88-1.15c.82.05 1.28.25 1.24 1.17 0 .77-.23 1.65 1.06 1.67.58 0 .47.62.49 1.05s-.12.85-.61.84c-1 0-1 .59-1 1.28l.11 6.35c0 .46.09.88.73.81s.75.2.74.77-.29.84-.86.9c-1.77.21-2.72-.56-2.8-2.39v-3.47zm-30.11-.06v-2.76c0-.62.15-1.27-.79-1.47-.46-.1-.54-1.65-.1-1.76 1.15-.31.89-1.15.88-1.9s.35-1 1-1 1.17.15 1.11 1-.38 1.81 1.12 1.81c.52 0 .32.71.35 1.12s-.06.8-.53.76c-1-.07-1 .5-1 1.21v5.88c0 .69 0 1.42 1 1.34.52 0 .43.34.44.65s0 .78-.48 1a2.35 2.35 0 0 1-3-1.56 3.4 3.4 0 0 1-.12-.71v-3.59zm5.64-.25v-4.79c0-.38-.23-.9.29-1s1.11-.3 1.45.2c.47.7.82.6 1.4.12.31-.25.81-.75 1.27-.34s.14 1.07.21 1.61-.22.72-.63.88c-1.68.64-1.86.86-1.88 2.66v5.51c0 .76-.18 1.25-1 1.24s-1.13-.42-1.1-1.27l-.01-4.82zm32.33.08v4.78c0 .88-.34 1.16-1.2 1.21-1 .06-.92-.57-.92-1.21v-9.57c0-.87.25-1.19 1.15-1.2s1 .49 1 1.21l-.03 4.78zm-2.1-8.76c0-.76-.21-1.49 1-1.43 1 .05 1.16.5 1.18 1.36s-.18 1.19-1.12 1.21-1.15-.5-1.06-1.14z" fill="#414141"/><path d="M79.79 16.93c-.34.47-.19 1-.19 1.5q0 24.95 0 49.9c0 1.91-.07 2-1.79 2.64l-6.23 2.33c-1.06.46-1.45.2-1.45-.93V1.59c0-.68-.24-1.43 1-.72l14.63 8 15.6 8.58c4.05 2.15 8 4.44 12 6.65a1.59 1.59 0 0 1 .84 1.62q0 19.6 0 39.23c0 1.63.08 1.62 1.65 1 2.32-.92 4.69-1.7 7-2.56l6.82-2.59c.38-.15.77-.19 1.13-.33s.66-.05.65.44v1q0 47.27-.05 94.54a2.18 2.18 0 0 0 1.74 2.46c3.85 1.32 7.69 2.67 11.45 4.26 1 .44 2.14.72 3.21 1.08a1.27 1.27 0 0 1 1 1.37q0 23.63 0 47.27c0 .86-.22 1.16-1.14 1.16q-20.76 0-41.51 0c-1 0-1.43-.38-1.43-1.4q0-22 0-43.91c0-.79 0-1.15 1-.75l10 3.78 8.41 3.06c2.21.74 4.39 1.59 6.56 2.43a1.09 1.09 0 0 1 .72 1.09q0 7.68 0 15.36c0 .57-.2.79-.76.79q-4 0-7.91 0c-.73 0-.83-.4-.82-1v-8.27a1.51 1.51 0 0 0-1-1.7c-2.09-.81-4.28-1.37-6.3-2.38-.28-.14-.45 0-.47.28s0 .56 0 .84v20.64c0 .95.26 1.18 1.19 1.17q11.52-.06 23 0c1 0 1.25-.32 1.25-1.28v-30a2.15 2.15 0 0 0-1.75-2.34l-11.33-4.21-20.71-7.73-14.63-5.41c-3.69-1.32-7.35-2.72-11-4.12-.54-.21-.64 0-.66.41v43.71c0 1.13-.32 1.41-1.41 1.41q-12-.06-24.11 0c-1 0-1.27-.24-1.27-1.26q0-21.84 0-43.67c0-.87-.15-1.37 1.18-.84 2.22.88 4.47 1.75 6.76 2.49a1.48 1.48 0 0 1 1.21 1.68q0 15.12 0 30.23c0 1.66 0 1.66 1.7 1.67s3.44-.08 5.15 0c1.1.07 1.32-.32 1.32-1.34v-36.47c0-1.91 0-1.85-1.8-2.48-2.94-1-5.83-2.16-8.76-3.22l-8.51-3.09c-1.89-.75-3.79-1.4-5.68-2.12-.59-.23-.71-.1-.68.45v.84q0 32.57 0 65.14c0 1.18.25 1.54 1.48 1.53q20-.07 39.95 0c1.08 0 1.4-.24 1.39-1.36v-40c0-1.51 0-1.51 1.45-1l7 2.49c.8.29.94.9.94 1.69q0 16.68 0 33.36v13.19c0 1.13-.41 1.54-1.54 1.54q-29.27 0-58.54 0c-1.14 0-1.29-.41-1.29-1.38q0-22.68 0-45.35v-44.12c0-.36.07-.72.71-.48l12.2 4.59c1 .38 2.05.7 3.06 1.1 1.34.53 1.33.55 1.33-.89V90.85a1.76 1.76 0 0 1 1.33-2l10.84-3.94c2.76-1 5.49-2.13 8.24-3.16l8.45-3.06 5.34-1.94a.63.63 0 0 0 .43-.63 9.74 9.74 0 0 0 0-1.08V32.61c0-1.58 0-1.63 1.42-.87l7.1 4a1.68 1.68 0 0 1 .9 1.7q0 16.86 0 33.71c0 2 0 2.07 1.86 1.26a45 45 0 0 1 5.12-1.9c.68-.21.91-.7.91-1.45V32.83a2.88 2.88 0 0 0-1.57-2.92l-14.08-7.79zm34.41 125.45c-2.87-.71-5.41-2-8.12-2.8a1.75 1.75 0 0 1-1.39-2V99.91c0-.36-.07-.6-.65-.36a50 50 0 0 1-4.81 1.73c-2.19.69-2.4.91-2.4 3.23v40.11c0 .49.15.72.68.91l10.45 3.84q6.51 2.48 13 4.89c1.18.43 1-.07 1-.74V74.93c0-1.09-.38-1.36-1.38-.92-2.94 1.29-6 2.28-9 3.38-4.1 1.49-8.16 3.13-12.25 4.66l-8.43 3q-5 2-10.12 3.79a1.64 1.64 0 0 0-1.26 1.78v38.19c0 .57-.11.83-.87.51-2.36-1-4.79-1.76-7.2-2.62a1.82 1.82 0 0 1-1.43-2V94.23c0-1.32 0-1.3-1.24-.82-1.52.59-3.05 1.17-4.6 1.64-2.3.69-2.31.65-2.31 3v31.44c0 2.6 0 2.63 2.48 3.61l10.71 4.14 10.93 4c1.38.5 1.37.55 1.37-.91V96.75a1.17 1.17 0 0 1 .89-1.21l11.53-4.3 13.5-5c.62-.24.8-.14.82.46v55.69z" fill="#06b4f9"/></svg>