<svg id="Layer_1" data-name="Layer 1" xmlns="http://www.w3.org/2000/svg" viewBox="0 0 874 688"><defs><style>.cls-1{fill:#fefefe;}.cls-2{fill:#81d9fc;}.cls-3{fill:#333030;}.cls-4{fill:#68d1fb;}.cls-5{fill:#00b2f9;}.cls-6{fill:#fe9d9a;}.cls-7{fill:#2e317b;}.cls-8{fill:#e09a00;}.cls-9{fill:#01b3f9;}.cls-10{fill:#0db6f9;}.cls-11{fill:#4bc9fa;}.cls-12{fill:#05b4f9;}.cls-13{fill:#04b4f9;}.cls-14{fill:#10b7f9;}.cls-15{fill:#18b9f9;}.cls-16{fill:#1abafa;}.cls-17{fill:#22bcfa;}.cls-18{fill:#91defc;}.cls-19{fill:#91ddfc;}.cls-20{fill:#5142b1;}.cls-21{fill:#4fcafb;}.cls-22{fill:#fe807c;}.cls-23{fill:#87bcfc;}.cls-24{fill:#4ec9fb;}.cls-25{fill:#37c2fa;}.cls-26{fill:#27bdfa;}.cls-27{fill:#fcfafb;}.cls-28{fill:#86bdfc;}.cls-29{fill:#17a4ee;}.cls-30{fill:#02b3f9;}.cls-31{fill:#03b3f9;}.cls-32{fill:#0eb6f9;}.cls-33{fill:#07b5f9;}.cls-34{fill:#09b5f9;}.cls-35{fill:#06b4f9;}.cls-36{fill:#55ccfb;}.cls-37{fill:#60cffb;}.cls-38{fill:#1096dd;}.cls-39{fill:#51cbf1;}.cls-40{fill:#534480;}.cls-41{fill:#524480;}.cls-42{fill:#30327b;}.cls-43{fill:#fe827f;}.cls-44{fill:#33347b;}.cls-45{fill:#32337b;}.cls-46{fill:#35357c;}.cls-47{fill:#34367e;}.cls-48{fill:#0fb7f9;}.cls-49{fill:#25bdfa;}.cls-50{fill:#9c9dc0;}.cls-51{fill:#999bbe;}</style></defs><path class="cls-2" d="M3.11,688.76c8.17-5.08,17-9,25-14.44,31.8-21.55,56.46-49,69.5-85.62,5-14.16,6.44-29.11,7.54-44,1.7-23.33,1.49-46.79,5.76-69.94,7.08-38.47,30.33-63.42,65.21-78.57,23.52-10.21,48.61-14.43,73.77-18.27,32.79-5,65.88-8.13,97.85-17.81,41.84-12.67,71.17-38.22,85.56-80.14,6.92-20.15,11.84-40.83,17.64-61.28a335.12,335.12,0,0,1,13-36.56,6.05,6.05,0,0,1,1.84-2.09c.87-.76,1.87-1.36,2.72-2.13,2.94-2.69,5.78-2.67,8.75,0a7.21,7.21,0,0,0,3.69,2.09c-2.36-5.7-2.75-10.84,4.25-13.94-3.13-1.58-6.51.25-8.71-2.28a2.49,2.49,0,0,1-.4-2.75c5.28-3,8.14-8.5,12.51-12.52,17.8-16.38,39-25.83,62.22-31.07a248.28,248.28,0,0,1,71.28-5.63c12.26.81,24.55,1.38,36.83,2.08,19.58,1.13,39.17,2.9,58.82,2.11,24-1,47.67-3.64,70-13.57,18-8,32.11-20.53,43.74-36.12C845.05,48,854.83,27.54,866.4,8.12c1.33-2.25,3.37-4.19,3.58-7,.63.42,2.12-1,2,1-.06,1.17,0,2.34,0,3.5V556.83c-1.79.9-3.6.31-5.38,0-5.65-1.08-11.24-.67-16.89.22-3.37.52-4.54,2.24-4.4,5.4.08,2,0,4,0,6,0,2.88-.78,5.17-3.76,6.38s-5.93,1.23-8.22-1.38c-7.34-8.32-9.63-7-17.22.68-.59.59-1.18,1.17-1.76,1.77-7.26,7.53-7.29,8.34-.22,15.67,2.15,2.23,4,4.3,2.63,7.87s-3.87,4.47-7.32,4.82c-11.12,1.13-11.11,1.22-11.11,12.41v1.5c0,11.93,0,12,11.6,12.3,3.27.09,5.68.84,7.08,4.24s.5,6.06-2,8.49c-6.58,6.38-8.71,6.81.52,15.73,2.15,2.08,4.23,4.24,6.5,6.21,3,2.64,5.8,2.89,8.61-.33,1.31-1.5,2.85-2.8,4.26-4.22,2.15-2.16,4.48-2.49,7.29-1.3a6.07,6.07,0,0,1,4.11,6.18c0,.66,0,1.33,0,2,.16,9.23.85,10,10,10,3.83,0,7.67.27,11.47-.44,1.51-.27,3-.38,4.24.79v11H786c-.34-2.18,1.55-3.16,2.58-4.53,7.61-10.08,9.3-20.82,3.12-32.07-7.81-14.25-17-27.67-25.31-41.63-1.61-2.7-4.63-5-3.52-8.82,5,1,9.33-.86,13.73-3,7.53-3.74,14.16-8.7,20.67-13.92,3-2.43,3.52-5,1.32-8.2-2.63-3.86-4.81-8-7.53-11.79-1.9-2.66-2.11-5.14.14-7.68a18.84,18.84,0,0,0,2-2.87c2.12-3.69,5-4.94,9.24-3.65,4,1.21,8.16,1.66,12.15,2.84,3.74,1.1,6-.29,7.52-3.75,4.55-10.2,6.29-21,7.17-32,.26-3.24-2.07-4.34-4.61-4.95-4.54-1.07-9-2.35-13.66-3-5.46-.77-5.33-5.08-6.27-8.88-.87-3.53-.75-6.46,2.84-8.61,4.14-2.48,8.2-5.11,12.3-7.67,2.65-1.67,3.76-3.73,2.47-6.7-4.35-10-9.5-19.44-17.09-27.41-2.61-2.75-5.06-3.2-8.32-1-3.74,2.49-7.64,4.74-11.41,7.19-3.17,2.05-5.85,1.59-8.65-.66-3.1-2.5-6.93-4.5-5.77-9.51,1-4.38,1.73-8.83,3-13.15,1.15-4-.3-6.34-4-7.88-9.94-4.18-20.42-6-31.06-7-3.19-.32-4.91,1.64-5.59,4.58-1,4.38-2.23,8.73-2.91,13.16-.92,6-5.61,6.07-10,7.13s-6.56-1-8.42-4.37c-2.18-3.94-4.8-7.6-7.31-11.33-1.77-2.63-4-3.25-6.91-2A102.06,102.06,0,0,0,671.28,442c-2.8,2.43-3.33,5.17-1.34,8.43,2.17,3.55,4.43,7.05,6.67,10.56,3.51,5.52,2.86,8-2.93,11.81-5.95-.41-11.88-.67-17.76.84-2.37.6-4.59-.51-6.71-1.44a161.65,161.65,0,0,0-36.1-11c-2.1-.39-4.3-.7-5.73-2.64-1.65-4.3-.38-8.77-.78-13.14a34.49,34.49,0,0,1,.28-6.66c.77-3.09,3.59-4.13,5.8-5.79,10.91-8.22,18.75-18.47,21.21-32.25,1.19-3.33,2.52-6.59,4.92-9.27,5.2-1.73,10.49-3.15,14.1-7.86,2.75-3.58,3.26-7.92,4.67-12,5.43-4.32,11.32-7.95,15.25-14.1,11.73-18.28,5.75-42.22-13.42-52.42-.29-.16-.61-.28-.89-.46-2.37-1.5-5.67-1.7-7.24-4.19s.91-5,1.29-7.57c2.33-16-10.61-27.14-25.7-21.65-4.1,1.49-6.35.43-9-2.65-9.4-11.16-21-18.88-35.61-21.46a58.74,58.74,0,0,0-40.89,7.34,13.21,13.21,0,0,1-10.4,1.72c-13.46-3.13-26.6,2.67-34.2,14.06-6.44,9.67-6.39,27.36,1.91,36.56,3.49,3.87,4.65,8,4.77,13.09.22,8.93,5.38,15.11,12.74,19.63,1.67,1,3.81,1.4,4.7,3.48,2.06,7.11,1.71,14.5,2.42,21.77,1.08,11.08,1.25,22.27,3.17,33.24,2.58,14.78,10.21,26.55,22.5,35.25,2.15,1.52,4.69,2.62,5.9,5.22a79.86,79.86,0,0,1,.05,19.42c-1,2.33-3.27,2.7-5.36,3.08a174.3,174.3,0,0,0-37.56,11.51,14.37,14.37,0,0,1-9.22.51,28.14,28.14,0,0,0-30.08,12.73c-7.32,11.68-14.39,23.52-21.75,35.17-1.06,1.68-1.9,3.55-4,4.29-4.12-2-7.92-5.11-13-4a72,72,0,0,0-11.45-.8q-93.48,0-186.95,0a128.69,128.69,0,0,0-14.43,1.12c-6.31.7-8.86,4-7.63,10.25,2,10.13,4.51,20.15,6.88,30.2q11.87,50.34,23.45,100.73c2.09,9,4,10.59,13.3,10.67a27.09,27.09,0,0,1,7,.47,4.36,4.36,0,0,1,2.1,1.37c1,4.76,4.17,8.75,4.81,13.64Z" transform="translate(2 -1)"/><path class="cls-3" d="M608.15,458.86a181.16,181.16,0,0,1,43,12.57c1.47.64,2.9,1.72,4.72,1.06,6-2.18,12.11-1.65,18.21-.49,7.45.64,12.41,5.19,16.39,10.89,5.52,7.9,10.18,16.35,15.4,24.45,6.77,11.54,14.09,22.74,21,34.22,11.23,18.34,22.63,36.57,33.8,55,1,1.66,2.6,3.1,2.16,5.35q14.16,23.17,28.3,46.34c9,14.74,7.26,28.44-5,40.56H698a4.71,4.71,0,0,1-2.33-3.6c-6.11-28.22-36.61-43.29-62.35-32.59a53.71,53.71,0,0,0-29.25,14.83c-9.11,1.25-16.44,5-20.33,13.94-1.06,2.43-.91,5.29-2.72,7.42H565c-.72-4,3.53-6.83,2.57-10.88-1.43-2.44-3.82-1.67-5.86-1.67-26.91-.05-53.81,0-80.71-.05-2.31,0-4.66.27-6.92-.46-2.54-1.5-.68-2.84.35-3.84,3.11-3,3.39-6.49,2.43-10.48-1.57-6.57-3.11-13.16-4.53-19.77-.44-2-1.54-4.1-.17-6.2,2.27-1.43,4.85-1.13,7.29-1,4,.24,5.22-1.5,5.19-5.3-.12-14.29-.05-28.58-.05-42.88,0-2.16,0-4.32.17-5.71-5.77,8.44-9.94,18.71-17.68,26.68-3.28.39-3.25-2.28-3.73-4.23-4.75-19.37-9.16-38.82-13.68-58.25-1.09-4.69-2.42-9.33-3.22-14.09-.33-1.92-1.09-3.92.52-5.69q11.78-19.08,23.56-38.17c8.14-13.14,20.06-18.16,34.88-14.54a6.68,6.68,0,0,0,4.73-.33A178.63,178.63,0,0,1,554,458.84c2.79,3.8,1.12,8.15,1.57,12.23a52.86,52.86,0,0,0,.82,14.36c2,10,8.9,15.85,19.25,16,3.32.06,6.65,0,10,0,11.24,0,18.42-6,20.58-17a47.53,47.53,0,0,0,.37-11.43C607,468.32,605.09,463.3,608.15,458.86Z" transform="translate(2 -1)"/><path class="cls-4" d="M872,677.77c-5.89,1.29-11.88,1-17.84,1-8.21-.08-9.06-1.07-9.18-9.23-.06-3.7,1.57-8.19-4.31-9.56-1.88-.44-3.07-.54-4.33.94-1.08,1.26-2.33,2.37-3.51,3.55-6.25,6.25-7.19,6.33-13.62,0-3.53-3.5-7.26-6.8-10.35-10.77-1.93-2.49-1.65-4.45.34-6.51,1.61-1.67,3.26-3.32,4.92-4.95s3.5-3.19,2.06-6.36c-1.36-3-2.79-4.71-6.22-4.06a13.79,13.79,0,0,1-2.49,0c-10,0-10.45-.35-10.41-10.7,0-4.46-.6-9,.49-13.4.63-2.57,1.79-4,4.76-4s6.23-.79,9.35-.87,3.05-2.51,4.05-4.3.81-3-.75-4.33c-1.15-1-2.14-2.1-3.2-3.16-6.31-6.3-6.46-7.14-.57-13.8,3-3.35,6.38-6.3,9.67-9.35s6.58-2.26,9.53.8a56.19,56.19,0,0,1,4.2,4.26c2.12,2.74,4.43,1.3,6.75.61s2.88-2.47,2.68-4.68c-.08-.82,0-1.66,0-2.49,0-9.95,0-10.21,9.36-11.37,6.25-.77,12.59-.53,18.63,1.79v46c-2.24.66-3.73-1-5.48-1.82-8.12-3.6-16.62-1.32-22.06,6-4.66,6.31-4.17,15.46,1.16,21.66,5.15,6,14.62,7.58,21.91,3.75,1.41-.74,2.55-2.27,4.47-1.64Z" transform="translate(2 -1)"/><path class="cls-5" d="M569.15,679c0,3.84-2.62,6.58-4.12,9.79h-294c-2.76-3.9-5.39-7.86-5-13,2.24-2.09,5-1.39,7.62-1.39,31.11-.06,62.23,0,93.35,0,9,0,18,.08,26.94,0,57-.47,114,1.64,171,1C567.37,675.27,570.56,674.57,569.15,679Z" transform="translate(2 -1)"/><path class="cls-6" d="M604.07,666.66c7.25-9.44,17.56-13,28.72-14.9,14.94-4.14,35,7.92,41.9,21.57,2.44,4.83,5.66,9.52,4.32,15.43H638c-1.25-1.27-1.25-3-1.7-4.57-2.75-9.74-10.64-15.71-20.76-16.11C611.72,667.93,607.62,669.34,604.07,666.66Z" transform="translate(2 -1)"/><path class="cls-7" d="M604.07,666.66c4.31,0,8.62-.06,12.91.1a21.89,21.89,0,0,1,21,22H581C581.32,676.14,590.63,667.21,604.07,666.66Z" transform="translate(2 -1)"/><path class="cls-2" d="M872,630.79c-6.56,5.76-14,6.77-21.67,3.05-7.46-3.61-10.61-10-10.34-18.26.36-11.22,12.93-20.27,23.65-17a30.17,30.17,0,0,1,8.36,4.27Z" transform="translate(2 -1)"/><path class="cls-8" d="M679,688.76c-2.77-13.1-9.27-23.62-21-30.69-7.8-4.73-16.35-6.2-25.26-6.32,25.27-12.41,58.38,4.69,64.23,33.17.27,1.29.65,2.56,1,3.84Z" transform="translate(2 -1)"/><path class="cls-5" d="M266.28,212.36c1.23,2.85,3.21,3.52,6.29,2.92,2.9-.56,6.25-1.56,7.65,3.07.72,2.41,2.68.28,3.91-.23,16.39-6.75,32.67-6.72,48.87.62,24.31,11,38.16,37.12,34,63.94-4,25.71-25.29,46.16-51.31,49.35-34.84,4.27-64-19.88-67.17-55.91-.36-4.15-1.75-4.61-5.1-3.93a36.53,36.53,0,0,1-5.45.44c-3.62.17-5.48-1.38-5.77-5.18-.17-2.22,1.07-5.31-2.41-6.34s-3.74,2.67-5.74,3.82c-1,.15-1.32-.49-1.47-1.31.77-3.61,2.54-6.34,6.68-5.82,3.71.46,6,2.67,6.1,6.67,0,3,.69,5.21,4.44,5.14,5.17-.11,7.44-1.44,8-5.45,2-14.6,8.7-26.72,19.49-36.66,2.22-2,4.68-3.74,7.07-5.54.78-.59,1.85-1.21,1.54-2.33-.39-1.45-1.8-1.19-2.93-1.19-1.65,0-3.29.64-4.95.2-3.64-1-5.09-5.43-2.64-8C266.14,210.94,266.7,211.38,266.28,212.36Z" transform="translate(2 -1)"/><path class="cls-9" d="M436.58,182c-3.71-.7-5.91-5.33-9.1-5.09-3,.23-5.79,3.36-8.87,5.34-1.43-2.33-.21-4.21.55-5.78,1.9-3.92.78-6.43-2.86-8.39a9.16,9.16,0,0,1-4.08-3.68c3.71-1.72,8.2.91,10.65-1.55,2.22-2.21,2.72-6.13,3.89-9.08,1.27-.38,1.66.42,1.75.9,1.17,6.37,3.76,10.83,11.41,9,.7-.16,1.72-.15,2,.92a1.29,1.29,0,0,1-.86,1.57c-7.7,3.13-6.91,8.61-4.14,14.68C437,181.1,436.77,181.48,436.58,182Z" transform="translate(2 -1)"/><path class="cls-10" d="M204.93,216.06c-5.57-3.76-5.68-4.22-2-9.72a53.59,53.59,0,0,1,3.58-4.78c5.32-6.3,5.76-6.34,12.28-1.38,1.31,1,2.33,2.19,4.32,1,1.76-1.08,1.35-2.37,1.24-3.85-.58-8.31-.56-8.34,7.64-9.82a34.29,34.29,0,0,1,5.45-.49c6.95-.16,6.91-.13,8,6.77.28,1.82,0,4,2.69,4.7,2.89.73,3.47-1.68,4.4-3.11,2.81-4.32,5.83-5,9.61-1.31.23.93-.34,1.33-1.07,1.62a6.78,6.78,0,0,0-7.16,3.34c-1.59,2.54-3.93,3.24-6.94,2.51s-3.77-2.74-4.42-5.33c-.51-2.08.23-5.21-2.93-5.7-3.81-.57-7.77-.42-11.11,1.72-1.69,1.09-1.17,3.38-.86,5.15.47,2.77-.14,4.91-2.63,6.42a6.31,6.31,0,0,1-7.05-.19c-2.33-1.4-4.17-4.8-7.63-1.46-5.24,5-6.27,8.08-3.75,13C206.25,215.88,205.88,216.45,204.93,216.06Z" transform="translate(2 -1)"/><path class="cls-11" d="M466.07,181a2.36,2.36,0,0,1-2.14,1.05c-1.64-2.06.06-3.88.77-5.44,1.77-3.88,1.05-6.41-2.74-8.48-1.38-.75-4.16-1.47-3.36-3.56.69-1.82,3.32-1,5-.76,4.18.52,6-1.36,6.88-5.2.36-1.58.27-4.37,2.43-4.37s1.8,2.75,2.47,4.33a23.07,23.07,0,0,1,.73,2.36c.31.69.62,1.38.94,2.07C473.22,169,469.17,174.71,466.07,181Z" transform="translate(2 -1)"/><path class="cls-12" d="M140,318.38c-5.62,1.59-9,4.69-10.38,10.55-1.65-5.58-4.67-9-10.46-10.44,5.39-1.67,8.82-4.65,10.3-10.44C131.22,313.62,134.37,317,140,318.38Z" transform="translate(2 -1)"/><path class="cls-13" d="M289.22,180.88c-1.47-4.09-4.51-6.32-9.29-7.45,5-1.72,8.44-4.59,10.33-9.79,1.86,4.11,3.8,7.27,7.69,8.51.67.39,1.7.58,1,1.75a10.65,10.65,0,0,0-8,8C289.79,182.59,289.6,181.56,289.22,180.88Z" transform="translate(2 -1)"/><path class="cls-14" d="M204.93,216.06l1.14-1c3.5-.12,4.68,2.09,4.6,5s-1.34,5.4-4.74,6.09c-2.13.44-5.09-.49-6,2.41a15.43,15.43,0,0,0,.87,10.67c1,2.46,3.38,1.56,5.26,1.47,3.51-.17,6.23.87,7.38,4.47.51,1.59.94,3.28-1.19,4.19-.92-.11-1.57-.43-1.26-1.54-.51-3.8-3-4.09-6.14-3.66-6.62.89-6.66.79-8-5.87a29.34,29.34,0,0,1-.74-4.89c-.35-10.29-.35-10.08,8.33-10.45a2.82,2.82,0,0,0,2.89-2C208.49,218.11,205.69,217.67,204.93,216.06Z" transform="translate(2 -1)"/><path class="cls-15" d="M211,247.81l1.09,1.17c.17.3.34.69.17.93-2.46,3.47-3.95,6.62.67,9.88,3.13,2.2,5.81,4.91,10.07,4l1,1.13c-1.65,3.76-4.17,3.77-7.19,1.67-1.5-1.05-3.08-2-4.52-3.1C203.61,256.75,203.55,256,211,247.81Z" transform="translate(2 -1)"/><path class="cls-16" d="M260.88,195.09l1.18-1.06a8.41,8.41,0,0,1,1.31.65c10.44,7.21,10.56,7.95,2.91,17.68l-1.2-1.36a2,2,0,0,1,0-1.86c2.84-6.2,2.85-6.2-2.3-10.91C261.88,197.36,260.66,196.68,260.88,195.09Z" transform="translate(2 -1)"/><path class="cls-17" d="M318.62,155.37a3.09,3.09,0,0,1,3.14,3.07,3,3,0,0,1-3,3.24,2.91,2.91,0,0,1-3.2-3C315.46,156.75,316.68,155.68,318.62,155.37Z" transform="translate(2 -1)"/><path class="cls-10" d="M244.88,354.92c-2-.3-3-1.4-2.85-3.35a2.66,2.66,0,0,1,2.89-2.7,2.74,2.74,0,0,1,3.09,3C248,353.83,246.76,354.78,244.88,354.92Z" transform="translate(2 -1)"/><path class="cls-18" d="M289.22,180.88l1.75,1-.3,2.33A3.52,3.52,0,0,1,289.22,180.88Z" transform="translate(2 -1)"/><path class="cls-19" d="M298.94,173.9l-1-1.75a3.47,3.47,0,0,1,3.33,1.46Z" transform="translate(2 -1)"/><path class="cls-5" d="M265,674.81c-3.49,0-7,0-10.48,0-7.14,0-9.75-2.09-11.41-9.21q-8.12-34.89-16.17-69.79c-5-21.65-10.1-43.29-15-65-1.47-6.52,2.28-10.65,9-11.21,13.79-1.15,27.59-.61,41.39-.63q81.39-.12,162.79-.06a41.76,41.76,0,0,1,9.4.86c4.1,1.31,6,4.35,6.94,8.38,10.24,43.61,20.26,87.27,30.55,130.87a31.22,31.22,0,0,1,1,5.91c.23,5.27-2.37,8.62-7.69,10a19,19,0,0,1-5.47.31H367q-48.33,0-96.65,0C268.57,675.23,266.72,675.65,265,674.81Z" transform="translate(2 -1)"/><path class="cls-5" d="M705,507.83c-3.79-6-7.85-11.79-11.29-17.95C689.06,481.66,683,475.34,674,472c4.35-3.73,4.29-7.47.64-11.84-2.53-3-4.36-6.67-6.49-10-1.86-2.94-1.71-5.49,1-8a102.84,102.84,0,0,1,29.48-18.38c3.4-1.42,5.37-.13,7.07,2.54,2.85,4.49,5.79,8.93,8.5,13.51,1.28,2.16,2.52,2.74,5.17,2.23,8.84-1.69,8.85-1.52,10.64-10.31.66-3.25,1.37-6.5,2.15-9.72s2.49-5.41,6.26-5c11.63,1.1,23,3.13,33.8,7.9,3.45,1.53,4.3,3.82,3.5,7.17-1.12,4.68-2.11,9.39-3.38,14-.8,2.93-.6,5.27,2.41,6.69,3.18,1.52,5.24,6.41,10.1,2.74,4-3,8.52-5.2,12.61-8,2.83-2,5-1.9,7.42.62,8.46,8.76,14.4,19.06,19,30.21,1.24,3,.37,5.06-2.34,6.69-4.28,2.56-8.41,5.39-12.74,7.85-3,1.69-3.6,3.48-3.17,7.1.71,5.88,2.78,8.81,8.95,9.19,4.08.26,8.09,1.77,12.11,2.78a4.77,4.77,0,0,1,4,5.52c-1.11,11.43-2.93,22.69-7.61,33.34-1.7,3.86-3.91,5.33-8.13,4.11-4.78-1.37-9.76-2-14.52-3.46-2.67-.79-3.93.1-5.34,2.11-5,7.21-5.1,7.17-.3,14.66,1.79,2.8,3.41,5.72,5.35,8.41,2.31,3.18,1.88,5.81-1,8.27a107.93,107.93,0,0,1-27.68,17.6c-3.11,1.34-6,1.82-8.76-.61C750.18,582.09,737.84,562.17,726,542c1.8-1.6,3.84-.5,5.73-.42,15.23.62,26.74-8,30.2-22.76,2.59-11-2.89-23.33-13.1-29.43s-23.48-5.26-32.13,2.29c-4.18,3.65-7.79,7.71-9.37,13.23C706.94,506.14,706.46,507.43,705,507.83Z" transform="translate(2 -1)"/><path class="cls-7" d="M520.19,343c-12.57-5.25-19.39-14.2-18.12-28.28.18-2-1-3-2.13-4.23-10.62-11.67-12.35-27.46-4.49-40.58,7.57-12.64,22.48-18.55,37.65-14.64a7.08,7.08,0,0,0,6-.85c28.44-16.92,60-11.23,80.75,14.63,1.84,2.3,3,2.47,5.62,1.25,8.24-3.84,15.95-2.31,22.65,3.67,6,5.36,8,14.74,4.78,22.5-1.15,2.74-1.57,3.86,1.94,5.19,15,5.72,23.94,16.79,25,32.92,1.15,16.93-6.39,29.48-21.55,37.31-1.3-.54-1.38-1.77-1.63-2.89-2.19-9.51-8.11-15.24-17.75-16.4-4.61-.55-6.47-2.38-6.38-6.92,0-3-.84-5.92-1-8.92-.14-2.35-1.37-2.9-3.31-1.49-17.39,12.61-35.35,8.5-53.24,1.55a59.78,59.78,0,0,1-17.62-10.3c-2.56-2.21-3.75-1.7-5,1.29-4,9.76-11.53,15.21-21.77,17.07C527,345.49,523.34,345.42,520.19,343Z" transform="translate(2 -1)"/><path class="cls-6" d="M520.19,343c11,2.1,20.39-.48,27.63-9.41,2.75-3.4,3.84-7.6,5.52-12.06a79.15,79.15,0,0,0,29.91,17.06c10.79,3.24,21.72,4.77,32.86,1.57a26.45,26.45,0,0,0,11.7-6.32c1.07-1.06,2.09-2.32,3.82-1.58s1.23,2.52,1.38,3.93.13,2.66.25,4c.29,3.31-.28,7.12,1.2,9.78s5.73,1.07,8.69,1.94c8.62,2.52,14,9.38,15.2,20C656.85,384.16,650.29,391,639,392c-2.4-3.45-.25-6.85.11-10.26.79-2,3-2.5,4.37-3.89a8.39,8.39,0,0,0,1.1-10.88A8.61,8.61,0,0,0,634,364a8.31,8.31,0,0,0-4.43,9.58c1,3.47,2.81,6,7.06,5.15,2.19,4.86.83,9.7-.58,14.3-3,9.93-10.48,15.33-20.05,18.24-5.13-3.44-10.51-1.31-15.8-.61a2.35,2.35,0,0,0-2.09,2.43,2,2,0,0,0,1.81,2.05c5.31.25,10.91,2.2,15.49-2.35,5.38-3.12,11.7-4.67,15.94-9.69.91-1.09,1.67-2.59,3.55-2.14-1,9.9-6.28,17.66-12.43,25-4.11,4.91-9.45,8.34-14.61,12a8.55,8.55,0,0,1-3.48,2.76c-16.12,7-32.18,7.5-48.16-.48-.92-.59-1.44-1.58-2.24-2.29-19-10.59-28.53-26.92-30-48.41C522.9,374,521.46,358.46,520.19,343Z" transform="translate(2 -1)"/><path class="cls-6" d="M554,437.9a2.06,2.06,0,0,1,2,1c.3,5.29.57,10.5,3.65,15.22,5.9,9,14.29,12.5,24.7,11.42,9.36-1,15.79-6.12,19.87-14.54,1-2.07.6-5.09,3.58-6q.17,6.94.32,13.91L607.73,474c-1.18,11.69-9.06,19-20.83,19.2-3.5.06-7,0-10.5,0-13.54-.1-21.42-7.63-22-21L554,458.84Q554,448.37,554,437.9Z" transform="translate(2 -1)"/><path class="cls-20" d="M466.37,673.89c4.86-2.25,6.12-6,4.94-11.06q-11.9-51-23.68-101.94c-2.41-10.36-5.12-20.65-7.2-31.07a16.24,16.24,0,0,0-5.9-10c5.3-1.08,9.34.93,12.47,5.14,2.2,13.92,6.09,27.47,9.13,41.21,2.79,12.61,5.91,25.15,8.83,37.73.3,1.3.2,2.72,1.89,3.12,2.45,8.22,4,16.65,5.87,25a4.45,4.45,0,0,1-.52,3.8c2.23,9.36,4.56,18.7,6.65,28.09,1.12,5-1.79,8.15-5.66,10.65C469.15,675.7,468.14,675.6,466.37,673.89Z" transform="translate(2 -1)"/><path class="cls-21" d="M408.48,398.25c2.13-.24,2.51,1.47,3.1,2.75q9.27,20.14,18.45,40.35c.41.9.69,1.87,1.14,2.76,4.38,8.67,4.68,7.65-4.69,12-24.62,11.31-49.34,22.38-74,33.6-6.55,3-6.64,3.12-9.57-3.22-6.82-14.79-13.48-29.65-20.28-44.45-1.35-2.95-1-4.26,2.39-5.79,27-12,53.91-24.42,80.83-36.69C406.76,399.1,407.65,398.65,408.48,398.25Z" transform="translate(2 -1)"/><path class="cls-22" d="M607.83,445c-2.66,9.11-7.17,16.79-16.6,20.27-19.71,7.29-37-7.28-36.21-23.69a3,3,0,0,1,1-2.67c16,7.64,32,7.69,48.17.45,1.2-.54,2.45-.94,3.68-1.4C607.86,440.25,607.85,442.6,607.83,445Z" transform="translate(2 -1)"/><path class="cls-23" d="M775.71,255.82c12.21,1.23,24.4,5,32.51,16.95,6.79,10,5.53,26.65-3.49,35.23-5.51,5.23-11.88,9-17.91,13.34-3.22,2.32-5.83,4.9-7.3,8.56s-4.12,4.93-7.57,3.75c-2.94-1-6-.28-8.85-1.15-4.08-1.22-5.46-3.29-4.3-7.76,2.2-8.51,8.08-13.95,14.58-18.92,4.2-3.21,8.85-5.84,13.13-8.95,3.65-2.66,5.63-6.46,4.23-10.89a13.26,13.26,0,0,0-9.33-9c-8.49-2.47-16.65-1.93-21.77,6.05-4.2,6.53-9.63,5.71-15.52,4.71-8.8-1.5-10.48-5.24-5.44-12.83C747.11,262.24,759.19,256.09,775.71,255.82Z" transform="translate(2 -1)"/><path class="cls-24" d="M578.92,164.37c-2.21,3.79-7,4.21-7.58,7.88-.46,3.09,2.2,6.1,1.91,9.59-.72-.06-1.38.09-1.66-.17-4.8-4.53-9.6-6.26-14.64-.3a1.54,1.54,0,0,1-2.24.13c-.62-.55-.35-1.28,0-1.82,4.32-7,.45-11.16-5.77-14.42.92-.66,1.32-1.19,1.66-1.15,6.18.72,10.76-.77,11.6-7.92a2.49,2.49,0,0,1,1.52-1.72c1.24-.28,1.49,1,1.93,1.87a4.39,4.39,0,0,1,.45,1.41c.76,5,3.48,7.14,8.57,6.28C575.86,163.83,577.16,164.21,578.92,164.37Z" transform="translate(2 -1)"/><path class="cls-25" d="M527.45,181.78c-.66-.18-1.47-.15-1.84-.53-4.68-4.9-9.3-5-14.18-.21-1.44,1.43-2.35.59-2.34-1.31,0-4.63-2.46-11.65-5.28-14.89.15-.88.88-1,1.5-.86,6.27,1.05,10.68-.61,11.53-7.7.12-1,.41-2.13,1.7-2.09s1.55,1.2,1.66,2.16c.72,6.05,3.86,8.79,10,7.64.75-.14,1.79-.22,2.2.69.56,1.24-.56,1.7-1.32,2.28a13.66,13.66,0,0,1-2.39,1.77c-3.56,1.58-3.64,4-2.31,7.22C527.14,177.66,528.44,179.45,527.45,181.78Z" transform="translate(2 -1)"/><path class="cls-26" d="M466.07,181A32.72,32.72,0,0,1,477,163c3.22,2.17,7.11-.19,10.33,1.38a1.18,1.18,0,0,1-.69,1.73c-5.81,2.83-7.86,6.94-4.72,13,.36.69,1.12,1.89-.12,2.58-.83.45-1.55-.23-2.22-.71a3,3,0,0,1-.39-.31C474.71,175.62,470.35,176.72,466.07,181Z" transform="translate(2 -1)"/><path class="cls-27" d="M640,381.08c-.33,3.64-.67,7.28-1,10.91l-4.08,8.95c-5,6.07-11,10.47-18.84,12a1.79,1.79,0,0,1-.32-2.39c1-1.25,2.55-1.41,3.9-2,10.21-4.33,16.08-11.83,16.39-23.1.06-2.09,1.49-4.1.37-6.24a2.55,2.55,0,0,1-2-2.6c.56-2.65-.92-7,3.21-7,3.71,0,2.39,4.28,3.13,6.75a10.37,10.37,0,0,1,.3,1.45A4.44,4.44,0,0,1,640,381.08Z" transform="translate(2 -1)"/><path class="cls-28" d="M754,354.36c.13-10.74,2.26-15.35,7.09-15.36,11.3,0,16.87,2.58,16.9,7.9.06,11.62-2.36,17-7.61,17C757.48,363.79,753.91,361.71,754,354.36Z" transform="translate(2 -1)"/><path class="cls-29" d="M265,674.81l102.1,0c.32.22.43.43.32.64s-.21.32-.32.32l-101,0Z" transform="translate(2 -1)"/><path class="cls-30" d="M696.18,240.1c4.1-.6,5.35-4.07,7.2-7.46,1.25,3.56,2.91,6.42,6.53,7.41a1.14,1.14,0,0,1,0,1.89c-3.68.95-5.16,3.88-6.45,7.49-2-3.21-3.1-7-7.36-7.54C695.43,241.28,695.41,240.68,696.18,240.1Z" transform="translate(2 -1)"/><path class="cls-31" d="M195.22,620.24c-4.89,1.31-7.55,3.72-8.56,8.44-2-3.92-4-7-8.21-8.33,3.13-1.92,6.11-3.61,7.65-7.93C188.36,616,190.68,618.69,195.22,620.24Z" transform="translate(2 -1)"/><path class="cls-32" d="M837.13,325.65c-2-.32-3.25-1.11-3.29-3.17a2.8,2.8,0,0,1,2.53-3.1,2.9,2.9,0,0,1,3.38,2.78C840,324.09,838.57,325,837.13,325.65Z" transform="translate(2 -1)"/><path class="cls-33" d="M684.05,222a2.71,2.71,0,0,1-2.73,2.94,2.74,2.74,0,0,1-3.19-3c0-2,1.25-3,3.23-2.92C683.14,219.11,684,220.21,684.05,222Z" transform="translate(2 -1)"/><path class="cls-34" d="M758.1,200.3c1.9.37,3.08,1.28,3,3.36-.09,1.82-1.11,2.82-2.84,2.73s-3-.93-3.06-2.71C755.07,201.73,756.35,200.73,758.1,200.3Z" transform="translate(2 -1)"/><path class="cls-35" d="M155.19,595.71c-2.06-.12-3-1.06-3.11-2.78A2.67,2.67,0,0,1,155,589.8c1.71,0,2.89.85,2.93,2.6C158,594.32,156.53,595.17,155.19,595.71Z" transform="translate(2 -1)"/><path class="cls-36" d="M710,241.94c0-.63,0-1.26,0-1.89,1,0,2.26,0,2.25,1.11C712.14,242.53,710.75,241.77,710,241.94Z" transform="translate(2 -1)"/><path class="cls-37" d="M696.18,240.1c0,.6,0,1.2,0,1.79-.81-.15-2.23.67-2.25-.73C693.86,240,695.21,240.06,696.18,240.1Z" transform="translate(2 -1)"/><path class="cls-2" d="M705,507.83c3.24-11.8,10.37-19.92,22.44-23,15.29-3.91,31.38,5.62,35.33,20.7,4.12,15.7-4.75,31.75-20,36.21A32.25,32.25,0,0,1,726,542Q714.85,525.27,705,507.83Z" transform="translate(2 -1)"/><path class="cls-2" d="M677,577.17l36.09,58.62c-12,0-23.28-.06-34.5,0-2.44,0-2.59-1.23-2.59-3.1q.06-27.62,0-55.23Z" transform="translate(2 -1)"/><path class="cls-2" d="M472.2,635.83c-1.79-8-3.53-16.08-5.42-24.08-.4-1.66-.83-3.17.07-4.73l18.31-29.68c1.76.61,1,2,1,3,0,17.12,0,34.24.11,51.36,0,3.18-.72,4.48-4.1,4.19S475.52,635.82,472.2,635.83Z" transform="translate(2 -1)"/><path class="cls-8" d="M554.41,472.19C557,486,564.2,492,578.46,491.87c4.62,0,9.28.64,13.85-.68,8.73-2.53,13.27-8.78,15.42-17.19,0,3,.27,6,0,9-1,11.91-9.46,19.87-21.32,20q-5.24.09-10.49,0c-12-.17-20-7.35-21.23-19.4C554.31,479.85,554.5,476,554.41,472.19Z" transform="translate(2 -1)"/><path class="cls-38" d="M367.07,675.75q0-.48,0-1,46.21,0,92.43,0a17.91,17.91,0,0,0,6.86-.9c2.13,1.77,4.53.63,6.83.68q46.23.09,92.46.16c3,0,5.78,0,3.5,4.24-.06-2.16-.86-3.47-3.31-3.23-1.32.13-2.67,0-4,0Z" transform="translate(2 -1)"/><path class="cls-1" d="M260.88,195.09c.48.44.94.93,1.46,1.32,8.34,6.3,8.35,6.3,2.74,14.59-.47,4.58,1.46,6.63,5.45,6.46,2.51-.11,5.94-2.44,7.42,1.2s-2.6,4.05-4.48,5.46c-14,10.49-22.6,24.12-24.59,41.65-.8,7-6.41,4-10,4.89-3.32.8-4.8-1-4.79-4.45,0-3.06.28-6.17-4.14-7.23-4.61-1.11-5,2.72-6.91,4.82-1.73,2-3.59,2.68-5.82.65a24.64,24.64,0,0,0-2.45-1.68c-8-5.83-8.07-6-2.64-13.79,1.35-4.1-.64-7.12-4.63-7-8.44.22-8.84-.14-9.37-8.43-.49-7.65-.51-7.84,7.12-8.55,3.11-.29,3.53-2.12,4.34-4.43,1.24-3.57-1.66-4.12-3.48-5.53-4.27-2.53-3.68-5.49-.81-8.71,1-1.11,1.79-2.39,2.76-3.51,4.35-5.06,4.4-5.09,9.63-.89,2,1.65,3.71,2.66,6.55,1s2.66-3.36,2.09-5.74c-1.11-4.7.12-7.7,5.57-7.75a26.45,26.45,0,0,0,4.43-.48c4.75-.84,7.58.39,7.31,5.93-.12,2.64.47,4.73,4,5.65s4.41-1.32,5.79-3.16C255.41,194.75,257.28,192.31,260.88,195.09Z" transform="translate(2 -1)"/><path class="cls-1" d="M330.69,309a21.1,21.1,0,0,1-2.74-.62q-40.72-13.78-50.39-55.67c-1-4.37.67-7.8,4.26-10.36a6.78,6.78,0,0,1,.86-.52c15.37-8.38,11.84-7.22,19.55,4.52.09.14.19.27.27.42C309,258,311.71,258,298.89,265.31c-2.08,1.18-2.15,2.4-1.12,4.44a43.25,43.25,0,0,0,15.58,17.14c2.31,1.49,3.38.84,4.81-1.1,7.92-10.7,7.3-9.69,17.71-2.13,2.16,1.56,4.12,3.44,6.4,4.77,4.65,2.7,4.61,5.9,1.66,9.82-1.7,2.26-3.1,4.74-4.78,7C337.24,307.83,334.56,309,330.69,309Z" transform="translate(2 -1)"/><path class="cls-39" d="M339.53,572.82c13,.33,24.18,9.57,24.24,24s-10.29,24.54-24.49,24.79c-13.7.25-24.35-11.17-24.22-25C315.17,583.63,326.39,572.72,339.53,572.82Z" transform="translate(2 -1)"/><path class="cls-40" d="M546.85,320.91a10.6,10.6,0,0,1-2.56-.26c-.15-1.24.94-.56,1.5-.67a3.57,3.57,0,0,1,1.3.29Z" transform="translate(2 -1)"/><path class="cls-41" d="M535.87,319.39a3.3,3.3,0,0,1,3.42,0A2.82,2.82,0,0,1,535.87,319.39Z" transform="translate(2 -1)"/><path class="cls-1" d="M571,411.17c8.41-4.39,16.29-8.57,24.23-12.63,2.71-1.39,2.61.31,2.35,2.31C595.82,414.08,582.53,419.62,571,411.17Z" transform="translate(2 -1)"/><path class="cls-42" d="M635.19,377l1.23,2.21c-.9,3.19-2.69,1.59-4.11.64a9.26,9.26,0,0,1-4-10.86,9.09,9.09,0,0,1,8.66-7.05A9.22,9.22,0,0,1,646.8,368c1.73,4.24.7,8.16-2.79,11.25a6.56,6.56,0,0,1-4,1.82c-.22-1.08-.58-2.18.29-3.17a16.49,16.49,0,0,1,1.86-3.88,3.93,3.93,0,0,0-.2-4.54c-3.05-4.07-6-2.25-8.9.16a3.4,3.4,0,0,0-.06,4.23C633.81,374.85,634.9,375.63,635.19,377Z" transform="translate(2 -1)"/><path class="cls-42" d="M615.76,410.51c.11.79.21,1.59.32,2.39-.08.82.13,1.88-.3,2.42-1.56,1.94-16.43,2.4-18.2.69-2.18-2.11-1.47-6.22,1.56-6.78,4.7-.86,9.55-.92,14.33-1.37C615.53,407.67,615.06,409.57,615.76,410.51Z" transform="translate(2 -1)"/><path class="cls-43" d="M568.94,393c-2,2.62-4,1.79-5.68,1.94s-3.6,0-4.54-1.47c-1.11-1.71,1.09-2.44,1.78-3.63a76.1,76.1,0,0,0,8.5-23.2c.22-1.08-.13-2.39,2-3.11-.54,6.85-2.52,13-4.85,19-.9,2.31-2.21,4.46-3.28,6.7-.53,1.12-2.21,1.91-1.28,3.45s2.57,1.28,4,1.14A27.92,27.92,0,0,0,568.94,393Z" transform="translate(2 -1)"/><path class="cls-44" d="M536.11,352.1c-1.89.13-3.27-.17-3.65-1.68s.72-2.54,2-3.07a18,18,0,0,1,10.21-1.22,2.39,2.39,0,0,1,2.23,2.77,2.29,2.29,0,0,1-2.42,2.06A35.47,35.47,0,0,0,536.11,352.1Z" transform="translate(2 -1)"/><path class="cls-45" d="M593.2,345.94c.74.17,2.68.51,4.57,1,1.64.47,3.36,1.32,3,3.32s-2.33,1.94-4,1.71c-2.28-.31-4.55-.72-6.83-.92-1.77-.15-3.61-.42-3.52-2.53.08-1.92,1.81-2.57,3.62-2.61C590.65,345.93,591.31,345.94,593.2,345.94Z" transform="translate(2 -1)"/><path class="cls-46" d="M546.63,365.78c-.35,2.07-1.14,4-3.53,4-2.61.07-3.9-1.72-3.89-4.1s1.32-4.09,4-4C545.64,361.83,546.31,363.71,546.63,365.78Z" transform="translate(2 -1)"/><path class="cls-46" d="M592,365.83c-.41,2.33-1.47,4.14-4.09,4-2.4-.16-3.29-2.05-3.28-4.17s1-3.86,3.47-3.91C590.81,361.65,591.72,363.47,592,365.83Z" transform="translate(2 -1)"/><path class="cls-2" d="M325.73,438,407,401.2c-2.18,7.83-6,14.42-8.81,21.36-4,9.82-8.49,19.46-12.53,29.27-1.52,3.68-3,4.86-7.32,3.41-16.49-5.54-33.18-10.51-49.79-15.72A22.7,22.7,0,0,1,325.73,438Z" transform="translate(2 -1)"/><path class="cls-2" d="M350.44,487l20-29.65c1-1.49,2.42-1.64,4-1.22a61.44,61.44,0,0,1,6.67,2c2.24.89,3.32.77,4.49-1.8,4.17-9.18,4.31-9,15-7.53,9.15,1.25,18.36,2.16,27.88,4.17L351.3,488Z" transform="translate(2 -1)"/><path class="cls-2" d="M409.72,402.25,431.39,450c-8.8.07-16.81-1.85-24.93-2.53-3.95-.32-7.85-1.35-11.79-1.5-3.51-.13-4-1.36-2.72-4.27,4-9.11,7.84-18.31,12-27.37C405.7,410.43,406.79,406.17,409.72,402.25Z" transform="translate(2 -1)"/><path class="cls-2" d="M346.63,489c-5.72-12.62-11.11-24.53-16.51-36.42-1.3-2.87-2.68-5.7-3.95-8.59-.37-.82-1.31-1.73-.37-2.68.68-.68,1.54-.21,2.33,0q19.41,6.17,38.83,12.33c3.55,1.12,1.6,2.81.53,4.41C360.74,468.15,354,478.16,346.63,489Z" transform="translate(2 -1)"/><path class="cls-24" d="M773.23,274c-6.33-.59-11.31,2.5-14.86,7.31-3.22,4.36-6.37,5.78-12,4.89-9.25-1.49-10-2.45-5.68-10.78C747.21,263,768.42,254,785.3,259.55c11.93,3.95,21.88,9.75,24.83,23.19,2.42,11.07-1.6,19.91-9.86,26.94-3.76,3.19-8.32,5.43-12.33,8.37s-8.85,5.45-10.22,11.07a3.36,3.36,0,0,1-3.26,2.69A42.94,42.94,0,0,1,762.27,330c-2.52-.85-2.08-2.72-1.5-4.91,2.84-10.78,11.26-16.38,19.83-21.91,2.09-1.35,4.19-2.68,6.2-4.13,9.15-6.61,8.47-17-1.43-22.39A22.62,22.62,0,0,0,773.23,274Z" transform="translate(2 -1)"/><path class="cls-47" d="M643.08,374.88c-1.38.6-.76,3-2.79,3-1.09-1.75-1.1-3.72-1.21-5.68-.06-1-.24-2.14-1.48-2.18-1.66-.06-1.46,1.32-1.63,2.45-.24,1.49,1.06,3.27-.78,4.48l-3.27-2.11a9,9,0,0,1,.12-6.05c3.67-3.06,7.34-5.41,11,.06A8.66,8.66,0,0,1,643.08,374.88Z" transform="translate(2 -1)"/><path class="cls-24" d="M776,348.08c-.52,10.82-2.06,14.05-6.57,13.8-11.62-.63-13.66-1.92-13.4-8.44.41-9.85,1.69-12.66,5.66-12.39C774.05,341.9,776.22,343,776,348.08Z" transform="translate(2 -1)"/><path class="cls-48" d="M250,222c4.18,7,2.94,14.4-3.19,18.93a13.73,13.73,0,0,1-18.11-1.71,13.89,13.89,0,0,1-.35-18.59c4.79-5.55,12.13-6.21,18.73-1.68.3.94-.28,1.31-1,1.58-2.22.22-4.18-1-6.34-1.15a10.3,10.3,0,0,0-11.36,10.45c-.05,5.45,5.14,10.55,10.57,10.39a10.41,10.41,0,0,0,10.13-11.71c-.21-1.8-1-3.52-.68-5.4C248.68,222.38,249.08,221.82,250,222Z" transform="translate(2 -1)"/><path class="cls-49" d="M250,222l-1.07,1.23c-2-.1-3.11-1.08-3-3.18l1.18-1.1A5.11,5.11,0,0,1,250,222Z" transform="translate(2 -1)"/><path class="cls-50" d="M632,368.82l-.12,6.05C630.36,372.82,630.67,370.81,632,368.82Z" transform="translate(2 -1)"/><path class="cls-51" d="M643.08,374.88c0-2-.05-4-.07-6C644.64,370.86,644.43,372.86,643.08,374.88Z" transform="translate(2 -1)"/><path class="cls-9" d="M245.91,220.06l3,3.18c3.85,10.45-2.06,19.74-11.65,18.23-4.83-.76-8.28-3.46-9.76-8.11a11.78,11.78,0,0,1,15.67-14.5C244.12,219.23,245,219.66,245.91,220.06Z" transform="translate(2 -1)"/></svg>
