<svg xmlns="http://www.w3.org/2000/svg" xmlns:xlink="http://www.w3.org/1999/xlink" viewBox="0 0 468.293 468.293"><path d="M137.366 468.293H18.732C8.386 468.293 0 459.906 0 449.561V18.732C0 8.386 8.386 0 18.732 0h118.634c10.345 0 18.732 8.386 18.732 18.732v430.829c0 10.345-8.387 18.732-18.732 18.732z" fill="#e56353"/><path d="M26.799 32.337h102.462v191.575H26.799z" fill="#ebf0f3"/><circle cx="78.049" cy="368.016" r="45.593" fill="#e1e6e9"/><circle cx="78.049" cy="368.016" r="34.866" fill="#64798a"/><use xlink:href="#B" fill="#3a556a"/><path d="M41.947 60.191h72.198v10.727H41.947zm0 41.728h72.198v10.727H41.947zm0 41.722h72.198v10.727H41.947zm0 41.74h72.198v10.727H41.947z" fill="#d5d6db"/><path d="M293.463 468.293H174.829c-10.345 0-18.732-8.386-18.732-18.732V18.732C156.098 8.386 164.484 0 174.829 0h118.634c10.345 0 18.732 8.386 18.732 18.732v430.829c0 10.345-8.386 18.732-18.732 18.732z" fill="#44c4a1"/><path d="M182.896 32.356h102.462v191.575H182.896z" fill="#ebf0f3"/><circle cx="234.146" cy="368.016" r="45.593" fill="#e1e6e9"/><circle cx="234.146" cy="368.016" r="34.866" fill="#64798a"/><use xlink:href="#B" x="156.097" fill="#3a556a"/><g fill="#d5d6db"><use xlink:href="#C"/><use xlink:href="#C" y="41.728"/><use xlink:href="#C" y="83.45"/><use xlink:href="#C" y="125.19"/></g><path d="M449.561 468.293H330.927c-10.345 0-18.732-8.386-18.732-18.732V18.732C312.195 8.386 320.582 0 330.927 0h118.634c10.345 0 18.732 8.386 18.732 18.732v430.829c0 10.345-8.387 18.732-18.732 18.732z" fill="#27a2db"/><path d="M338.994 32.356h102.462v191.575H338.994z" fill="#ebf0f3"/><circle cx="390.244" cy="368.016" r="45.593" fill="#e1e6e9"/><circle cx="390.244" cy="368.016" r="34.866" fill="#64798a"/><use xlink:href="#B" x="312.195" fill="#3a556a"/><g fill="#d5d6db"><use xlink:href="#C" x="156.097"/><use xlink:href="#C" x="156.097" y="41.728"/><use xlink:href="#C" x="156.097" y="83.45"/><use xlink:href="#C" x="156.097" y="125.19"/></g><defs ><path id="B" d="M56.322 380.094c0-19.223 15.64-34.864 34.864-34.864 5.841 0 11.342 1.461 16.184 4.011-6.208-9.651-17.017-16.071-29.319-16.071-19.223 0-34.864 15.64-34.864 34.864 0 13.382 7.589 25.01 18.68 30.853-3.493-5.431-5.545-11.872-5.545-18.793z"/><path id="C" d="M198.057 60.191h72.198v10.727h-72.198z"/></defs></svg>