<svg height="512" viewBox="0 0 60 60" width="512" xmlns="http://www.w3.org/2000/svg"><g id="Page-1" fill="none" fill-rule="evenodd"><g id="040---Crystal-Ball" fill-rule="nonzero"><path id="Shape" d="m24.27 3.29c-.0003055.76690286-.3828317 1.48320191-1.02 1.91l-6.49 4.32c-.4826439.3243483-.800224.8426974-.87 1.42l-.69 5.45c-.0258604.2148483.092859.4210677.2916414.5065903.1987824.0855227.4301459.0299204.5683586-.1365903l2.75-3.12c.39387-.4695904.9668597-.7521654 1.5791831-.7787881.6123234-.0266228 1.2076763.2051547 1.6408169.6387881.2367695.2372347.4178076.5241631.53.84.2319236.6645202.1235809 1.4005033-.29 1.97l-4.31 5.7c-.2390257.3327443-.5067136.6439315-.8.93v.01c-.3759591.3830474-.7916356.7249748-1.24 1.02l-6.08 4.07c-.00265216 0-.0051957-.0010536-.00707107-.0029289-.00187536-.0018754-.00292893-.0044189-.00292893-.0070711l-3.43-5.84 2.79-1.68c.51220747-.3036299.8609624-.8212556.95-1.41l1.59-10.3c.1763644-1.12766661.8234266-2.12734137 1.78-2.75l7.22-4.68c.7040438-.45947061 1.603303-.49602032 2.3423127-.09520153.7390096.40081879 1.198825 1.17449369 1.1976873 2.01520153z" fill="#ffd7a9"/><path id="Shape" d="m9.14 30.77-1.57.94c-.45302801.2751349-.9971337.3580719-1.51156011.230404-.51442642-.1276679-.9566193-.4553796-1.22843989-.910404l-3.54-6.03c-.27568058-.4528903-.35892731-.9971752-.2312195-1.5117625s.45577718-.9567938.9112195-1.2282375l1.57-.95c.95063531-.5640503 2.17825725-.2560288 2.75.69l.11.19 3.43 5.84c0 .0055228.00447715.01.01.01.269424.4547909.3470353.9980209.2157427 1.5100622-.13129264.5120413-.46072208.950902-.9157427 1.2199378z" fill="#9427a7"/><path id="Shape" d="m53.6 22.19-3.43 5.84c0 .0055228-.0044772.01-.01.01l-6.08-4.07c-.4483644-.2950252-.8640409-.6369526-1.24-1.02v-.01c-.2932864-.2860685-.5609743-.5972557-.8-.93l-4.31-5.7c-.4135809-.5694967-.5219236-1.3054798-.29-1.97.1121924-.3158369.2932305-.6027653.53-.84.4331406-.4336334 1.0284935-.6654109 1.6408169-.6387881.6123234.0266227 1.1853131.3091977 1.5791831.7787881l2.75 3.12c.1382127.1665107.3695762.222113.5683586.1365903.1987824-.0855226.3175018-.291742.2916414-.5065903l-.69-5.45c-.069776-.5773026-.3873561-1.0956517-.87-1.42l-6.49-4.32c-1.0576253-.69587878-1.3508788-2.1173747-.655-3.175s2.1173747-1.35087878 3.175-.655l7.22 4.68c.9565734.62265863 1.6036356 1.62233339 1.78 2.75l1.59 10.3c.0890376.5887444.4377925 1.1063701.95 1.41z" fill="#ffd7a9"/><path id="Shape" d="m58.71 25-3.54 6.03c-.2718206.4550244-.7140135.7827361-1.2284399.910404s-1.0585321.0447309-1.5115601-.230404l-1.57-.94c-.4550206-.2690358-.7844501-.7078965-.9157427-1.2199378s-.0536813-1.0552713.2157427-1.5100622c.0055228 0 .01-.0044772.01-.01l3.43-5.84.11-.19c.5717428-.9460288 1.7993647-1.2540503 2.75-.69l1.57.95c.4554423.2714437.7835117.7136502.9112195 1.2282375s.0444611 1.0588722-.2312195 1.5117625z" fill="#9427a7"/><path id="Shape" d="m43 25c.0002515 4.4708869-2.3007804 8.6271021-6.09 11h-13.82c-3.7892196-2.3728979-6.0902515-6.5291131-6.09-11 .002394-.6863567.0558751-1.3715832.16-2.05v-.01c.2932864-.2860685.5609743-.5972557.8-.93l4.31-5.7c.4135809-.5694967.5219236-1.3054798.29-1.97 4.4695672-3.1193246 10.4104328-3.1193246 14.88 0-.2319236.6645202-.1235809 1.4005033.29 1.97l4.31 5.7c.2390257.3327443.5067136.6439315.8.93v.01c.1041249.6784168.157606 1.3636433.16 2.05z" fill="#00b3cb"/><path id="Shape" d="m42.84 22.95v-.01c-.2932864-.2860685-.5609743-.5972557-.8-.93l-4.31-5.7c-.4135809-.5694967-.5219236-1.3054798-.29-1.97-2.5980834-1.8317098-5.7851798-2.6302664-8.94-2.24 2.1353341.2443254 4.1764918 1.0154295 5.94 2.244-.2319236.6645202-.1235809 1.4005033.29 1.97l4.31 5.7c.2390257.3327443.5067136.6439315.8.93v.01c.1039272.6770967.1574077 1.3609788.16 2.046.0002515 4.4708869-2.3007804 8.6271021-6.09 11h3c3.7892196-2.3728979 6.0902515-6.5291131 6.09-11-.002394-.6863567-.0558751-1.3715832-.16-2.05z" fill="#008086"/><path id="Shape" d="m41 38v4h-22v-4c.0032948-1.1032019.8967981-1.9967052 2-2h18c1.1032019.0032948 1.9967052.8967981 2 2z" fill="#ffd300"/><path id="Shape" d="m39 36h-3c1.1032019.0032948 1.9967052.8967981 2 2v4h3v-4c-.0032948-1.1032019-.8967981-1.9967052-2-2z" fill="#f5b808"/><path id="Shape" d="m43.85 47h-27.7c-.4836592.0003009-.9154393-.3030775-1.0791053-.7582035-.163666-.4551261-.0239792-.9640073.3491053-1.2717965l3.58-2.97h22l3.58 2.97c.3730845.3077892.5127713.8166704.3491053 1.2717965-.163666.455126-.5954461.7585044-1.0791053.7582035z" fill="#959595"/><path id="Shape" d="m44.58 44.97-3.58-2.97h-3l3.58 2.97c.3730845.3077892.5127713.8166704.3491053 1.2717965-.163666.455126-.5954461.7585044-1.0791053.7582035h3c.4836592.0003009.9154393-.3030775 1.0791053-.7582035.163666-.4551261.0239792-.9640073-.3491053-1.2717965z" fill="#707070"/><path id="Shape" d="m59 53c.0003584 1.2001384-.751411 2.2718097-1.88 2.68l-7.3 2.66c-1.2049986.4385428-2.4776828.6619395-3.76.66h-32.94c-1.4011541-.0009722-2.7892734-.269093-4.09-.79l-6.24-2.49c-1.07911047-.4382863-1.7863285-1.4852851-1.79-2.65v-.14c.0036715-1.1647149.71088953-2.2117137 1.79-2.65l6.24-2.49c1.3007266-.520907 2.6888459-.7890278 4.09-.79h32.94c1.2823172-.0019395 2.5550014.2214572 3.76.66l7.3 2.66c1.128589.4081903 1.8803584 1.4798616 1.88 2.68z" fill="#e6314c"/><path id="Shape" d="m57.12 50.32-7.3-2.66c-1.2049986-.4385428-2.4776828-.6619395-3.76-.66l-3-.0000125c1.2823172-.001927 2.5550014.2214697 3.76.6600125l7.3 2.66c1.1285632.4082988 1.8804125 1.4798488 1.8804125 2.68s-.7518493 2.2717012-1.8804125 2.68l-7.3 2.66c-1.2049986.4385428-2.4776828.6619395-3.76.6600125l3-.0000125c1.2823172.0019395 2.5550014-.2214572 3.76-.66l7.3-2.66c1.1285632-.4082988 1.8804125-1.4798488 1.8804125-2.68s-.7518493-2.2717012-1.8804125-2.68z" fill="#b2193b"/><path id="Shape" d="m24.342 33c-.2286912.000756-.4505913-.0776864-.628-.222-2.3532259-1.8954772-3.7192859-4.7563319-3.714-7.778 0-.5522847.4477153-1 1-1s1 .4477153 1 1c-.0045071 2.4177447 1.0887214 4.7068299 2.972 6.223.3291744.2666865.4545815.7118554.3130189 1.1111516-.1415625.3992963-.5193711.66606-.9430189.6658484z" fill="#ececec"/><path id="Shape" d="m34.126 18c-.1594445-.0000217-.3165392-.0384379-.458-.112-1.9633295-1.0055568-4.2531084-1.1620642-6.335-.433-.5208045.1839108-1.0920892-.0891955-1.276-.61s.0891955-1.0920892.61-1.276c2.6036799-.9026863 5.4625889-.707014 7.919.542.4106572.2115193.6229972.6767883.513704 1.1256031-.1092932.4488149-.5117745.7643656-.973704.7633969z" fill="#ececec"/><g fill="#000"><path id="Shape" d="m57.462 49.376-7.3-2.654c-1.3140084-.4782823-2.701654-.7226433-4.1-.722h-.078c.0536029-.688606-.2314452-1.3601854-.764-1.8l-3.22-2.67v-3.53c-.0035249-1.3866633-.9569452-2.590222-2.306-2.911 2.7282442-2.6004548 4.2824895-6.1980308 4.306-9.967l4.967 3.32c-.2760015 1.2493509.2808328 2.5347874 1.381 3.188l1.57.942c.6836715.4102683 1.5025396.5315041 2.2757593.3369327.7732197-.1945715 1.4371778-.6889426 1.8452407-1.3739327l3.537-6.02c.4087057-.6826655.5294805-1.4997297.3357549-2.2714439-.1937256-.7717143-.6860823-1.4348624-1.3687549-1.8435561l-1.569-.942c-1.1622604-.6908503-2.643031-.5188581-3.616.42l-2.042-1.23c-.2519207-.1523773-.4230447-.4088801-.467-.7l-1.591-10.3c-.2199692-1.4099017-1.0284227-2.66002369-2.224-3.439l-7.223-4.683c-.7696451-.49614677-1.7108415-.65018971-2.5984984-.42528882s-1.6419553.8085223-2.0825016 1.61128882c-.8135044 1.49979688-.3495731 3.3724314 1.07 4.319l6.489 4.319c.241551.1634662.3996973.4242432.433.714l.481 3.794-1.641-1.858c-.5738293-.6850085-1.4091025-1.0973537-2.3018492-1.1363424-.8927467-.0389888-1.7607877.298968-2.3921508.9313424-.05.05-.086.108-.133.161-4.398987-2.6087261-9.871013-2.6087261-14.27 0-.046-.052-.083-.11-.133-.16-.6279564-.6292288-1.4904999-.9670831-2.3787621-.9317502s-1.7212448.4406312-2.2972379 1.1177502l-1.656 1.877.482-3.8c.0332264-.2874148.1902768-.546.43-.708l6.493-4.321c1.4601513-1.02151137 1.8427887-3.01922056.8634511-4.50798693-.9793376-1.48876637-2.9652874-1.92837582-4.4814511-.99201307l-7.226 4.682c-1.1926831.77868546-1.9991299 2.02669718-2.219 3.434l-1.591 10.3c-.04721323.2922951-.2215282.5486407-.476.7l-2.033 1.231c-.97296903-.9388581-2.45373961-1.1108503-3.616-.42l-1.569.943c-1.41711865.8504644-1.87946808 2.6868949-1.034 4.107l3.547 6.036c.40935706.6822745 1.07298295 1.173986 1.84488464 1.3669615.77190168.1929754 1.58884759.0714068 2.27111536-.3379615l1.57-.942c1.0999735-.6539184 1.6569801-1.9392253 1.382-3.189l4.962-3.319c.0219434 3.7680817 1.5739665 7.3655268 4.3 9.967-1.3466719.3231401-2.2971416 1.5261041-2.3 2.911v3.53l-3.223 2.67c-.532229.439916-.8166004 1.1116595-.762 1.8h-.9c-1.5264936-.0011573-3.0390799.2900903-4.456.858l-6.238 2.5c-1.46469844.5812756-2.42490754 1.9991804-2.421 3.575v.134c-.00506803 1.5780223.95676069 2.9981481 2.424 3.579l6.238 2.5c1.4171894.5665413 2.9297664.8564293 4.456.854h32.945c1.398346.0006433 2.7859916-.2437177 4.1-.722l7.3-2.654c1.5240732-.5540034 2.5386694-2.0023592 2.5386694-3.624s-1.0145962-3.0699966-2.5386694-3.624zm-1.518-27.2 1.57.943c.2289576.1371461.3935923.3601257.4572617.6193107s.0210898.5330673-.1182617.7606893l-3.538 6.02c-.1364524.2274248-.357661.3913287-.6149615.4556538-.2573006.0643252-.5296159.0238023-.7570385-.1126538l-1.57-.942c-.2287903-.1373111-.3932149-.3603646-.4566932-.619536-.0634782-.2591715-.0207447-.5329637.1186932-.760464l3.539-6.024c.2834087-.473096.8963275-.6274442 1.37-.345zm-16.37-8.308c.3398586.0153002.6567485.1759306.87.441l2.73 3.1c.4227081.5076834 1.1296756.6756163 1.7355365.4122589.605861-.2633574.9653308-.8948525.8824635-1.5502589l-.692-5.453c-.104515-.86782031-.5830526-1.6466311-1.31-2.132l-6.489-4.32c-.3603288-.2401594-.5762548-.6449737-.575-1.078-.0018978-.59059299.400528-1.10581368.974-1.247.3511396-.09061138.724167-.03043399 1.029.166l7.215 4.677c.7199551.46742153 1.207164 1.21895942 1.34 2.067l1.591 10.3c.1299888.8839389.6526703 1.6617126 1.422 2.116l1.946 1.172-2.4 4.085-5.206-3.479c-.6955314-.4654772-1.3021019-1.0517271-1.791-1.731l-4.296-5.68c-.1446765-.1977902-.223715-.435955-.226-.681.0018677-.3175538.1307935-.6211417.358-.843.236342-.2343687.5594101-.3600466.892-.347zm-30.947 16.047-1.57.942c-.47063733.2828524-1.08130938.1333091-1.368-.335l-3.546-6.036c-.13645611-.2274226-.17697896-.4997379-.11265382-.7570385.06432514-.2573005.22822898-.4785091.45565382-.6149615l1.57-.943c.47236941-.2833209 1.08490968-.1313036 1.37.34l3.544 6.032c.13645611.2274226.17697896.4997379.11265382.7570385-.06432514.2573005-.22822898.4785091-.45565382.6149615zm1.534-3.293-2.4-4.085 1.939-1.166c.7729502-.4540113 1.2990014-1.2333464 1.431-2.12l1.591-10.3c.1327881-.84489308.618046-1.59368047 1.335-2.06l7.217-4.679c.3033005-.19729818.6751056-.25926569 1.026-.171.5700676.14486681.9686149.65881563.967 1.247.0028621.43146831-.209852.83588766-.567 1.078l-6.5 4.321c-.7221683.4856238-1.1968277 1.26187443-1.3 2.126l-.689 5.449c-.0826546.6504516.2704827 1.2782724.8692721 1.5454246s1.3018887.1105754 1.7307279-.3854246l2.765-3.137c.2134109-.2545301.5239238-.4077108.8557685-.4221636.3318447-.0144529.6544995.1111515.8892315.3461636.2270769.2223579.3559538.5261907.358.844-.0008617.2350636-.0734259.4642685-.208.657l-4.322 5.719c-.4862569.6723856-1.0887203 1.252498-1.779 1.713zm7.839-1.622c.003627-.5386177.0423759-1.0764256.116-1.61.2270556-.2450954.4400626-.5028406.638-.772l4.327-5.726c.3851187-.5360222.5931432-1.1789752.595-1.839 0-.077-.017-.151-.023-.228 3.8814737-2.4334113 8.8125263-2.4334113 12.694 0-.006.077-.023.151-.023.228.0034233.6699972.2179165 1.3218744.613 1.863l4.3 5.685c.201867.2599893.4178588.5086971.647.745.0745294.5482308.1132781 1.1007332.116 1.654.0053754 4.0338809-2.0299601 7.7967493-5.409 10h-13.182c-3.3790399-2.2032507-5.4143754-5.9661191-5.409-10zm2 13c0-.5522847.4477153-1 1-1h18c.5522847 0 1 .4477153 1 1v3h-16v-1c0-.5522847-.4477153-1-1-1s-1 .4477153-1 1v1h-2zm-3.989 7.9c-.0274111-.0577608-.0087535-.1268787.044-.163l3.305-2.737h21.28l3.3 2.736c.053998.0356101.0736018.1055021.046.164-.0171814.06355-.077413.10567-.143.1h-27.689c-.065587.00567-.1258186-.03645-.143-.1zm40.767 8.844-7.3 2.654c-1.0948992.3979207-2.2510347.600989-3.416.6h-32.944c-1.273496.0019701-2.5355776-.240059-3.718-.713l-6.238-2.5c-.70284014-.28038-1.16339238-.9612997-1.162-1.718v-.134c-.00223787-.7593431.46025419-1.4427683 1.166-1.723l6.234-2.495c1.1822878-.4736252 2.4443739-.7163341 3.718-.715h32.945c1.1649653-.000989 2.3211008.2020793 3.416.6l7.3 2.654c.7340531.2660317 1.2229486.9632267 1.2229486 1.744s-.4888955 1.4779683-1.2229486 1.744z"/><path id="Shape" d="m42 50h-24c-.5522847 0-1 .4477153-1 1s.4477153 1 1 1h24c.5522847 0 1-.4477153 1-1s-.4477153-1-1-1z"/></g></g></g></svg>