<svg xmlns="http://www.w3.org/2000/svg" viewBox="0 0 512 512" fill="#6c757d"><path d="M56.55 512c-26.21.17-51.31-20.56-56.55-46.18V46.53C4 25.34 21.52 9.87 40.76 2.24 49.52-1.71 156.22.92 168.09.2c1.67.31 11.43 3 11.29 4.25-1.27 42.25-10.04 84.68-10.35 126.83-54 32.95-105.86 70.74-151.43 115-1.84 1.93-1.9 2.51-.16 4.58 8.6 10.09 17.82 19.62 27.24 28.92 36.62 35.84 77.44 67.62 122 93 3 1.68 3.06 3.91 2.55 6.71l.21 130.43c-.11.93-.24 1.76-1.33 1.95-37.16.13-74.46-.38-111.56.13z"/><path d="M169.14 511.67c0-.63-43.54-15.71-68.15-31.56l43.5-120.52 30.14 18.24c28.71 15.67 58.45 28.49 89.71 37.51a356.5 356.5 0 0 0 74 13.42 328 328 0 0 0 62.82-1.16 291.34 291.34 0 0 0 93-27.56c.74-.35 1.45-.72 2.18-1.08 1.06-.52 1.63-.25 1.76 1a16.45 16.45 0 0 1-.16 5.42 11.62 11.62 0 0 0-.3 2.76v32.53c0 2.48.71 4.89.6 7.4-.09 2.11-.46 4.22-.35 6.36a78.25 78.25 0 0 1-5.46 20.35 66.43 66.43 0 0 1-10.4 16.37 62.79 62.79 0 0 1-17.56 14.16 50.25 50.25 0 0 1-16.29 6c-2.21.36-4.45.46-6.65.78h-3a4.26 4.26 0 0 0-1.94-.15q-132.74 0-265.47 0a4 4 0 0 1-1.98-.27z"/><path d="M169.14 511.67h267.43a3 3 0 0 1 1.91.32H169.09zm-.41 0l.06.32H56.89a3.88 3.88 0 0 1 2.22-.33zm328.75-328.51A150.73 150.73 0 0 1 497.8 313l-.38.85a3.64 3.64 0 0 1-1.08 2.25c-12.53 24.61-30.31 44.23-53.5 58.49-47.352 29.307-107.532 27.934-153.5-3.5a143.62 143.62 0 0 1-51-61.16c-24.833-55.388-13.874-120.279 27.77-164.44a140.58 140.58 0 0 1 45.4-32.08 140.46 140.46 0 0 1 124.83 5.1q38.64 21.33 59.36 61.07l.57 1.1c.93.54.94 1.58 1.21 2.48zM169.51.43h262.15a71.85 71.85 0 0 1 21.29 2.73 4.85 4.85 0 0 0 .75.11 76.52 76.52 0 0 1 11.77 5.36q27.45 16.65 31.38 49.16l.4 6.32v33.82c0 .49.64 1.62-.77 1.4-14.72-10.18-30.95-16.92-47.91-21.91-31.42-9.24-63.53-11.71-96.05-9.26a328.43 328.43 0 0 0-58.75 10.14c-33.53 8.79-65.43 21.86-96.43 37.7q-13.25 6.8-26.16 14.22c-1.72 1-1.73 1-3.74-.28V2.83c2.04-1.26 2.06-1.83 2.07-2.4z"/></svg>