<svg xmlns="http://www.w3.org/2000/svg" viewBox="0 0 512 512" fill="#6C757d"><path d="M0 598.73a.61.61 0 0 0 .44-.3 9.44 9.44 0 0 0 .32-.89l6.94-22.76 5.65-18.18q5.33-17.05 10.84-34.07l12.18-36.79 9.17-26.6.55-1.68a.48.48 0 0 0-.38-.61l-1.73-.33a40.07 40.07 0 0 0-8.41-.17 79.62 79.62 0 0 0-16.86 3.51c-3.33 1-6.61 2.21-9.86 3.48-.34.13-.68.24-1 .36a.15.15 0 0 1-.12 0v-.22a1.86 1.86 0 0 1 .29-.27 138.81 138.81 0 0 1 13.28-9 62.34 62.34 0 0 1 8.38-4.21 37.59 37.59 0 0 1 7.32-2.11c.45-.08.9-.12 1.35-.2a4.67 4.67 0 0 0 .64-.18.12.12 0 0 0 .07-.11.15.15 0 0 0 0-.11 2.92 2.92 0 0 0-.36-.17 48.58 48.58 0 0 1-11.93-5.84 77.57 77.57 0 0 1-8.77-6.67l-1.22-1.09a.32.32 0 0 1-.07-.24.25.25 0 0 1 .23-.08c.39.11.77.25 1.16.38 2.73.95 5.49 1.83 8.3 2.58a62.63 62.63 0 0 0 8.79 1.72 30.52 30.52 0 0 0 7.46.05 11.9 11.9 0 0 0 1.19-.23.55.55 0 0 0 .42-.62l-.28-2.7a83.36 83.36 0 0 0-5-18.88 132.37 132.37 0 0 0-7.15-15.26c-3.34-6.14-7-12.05-11-17.83l-1-1.47c-.1-.16-.11-.35 0-.35a.68.68 0 0 1 .38.05c.51.29 1 .6 1.51.91a116.2 116.2 0 0 1 13 9.45 58.93 58.93 0 0 1 7.26 7.13c.76.91 1.45 1.86 2.18 2.79l.44.51a.13.13 0 0 0 .12 0 .7.7 0 0 0 .19-.15.18.18 0 0 0 0-.13c.06-.49.14-1 .18-1.48l.31-3.8.51-5.41.58-5.13.92-7.15 1.24-7.92c.64-4 1.41-8 2.19-12a367.22 367.22 0 0 1 2.91-13.56c1.92-8.3 4.1-16.54 6.45-24.73 2.13-7.4 4.43-14.76 6.95-22q7.64-22.11 17-43.55C90 241 96.25 227.9 102.88 215q12.32-24 25.92-47.34 6-10.34 12.29-20.53 12.47-20.28 25.82-40 13.35-19.72 27.67-38.73 8.08-10.68 16.53-21.07 7.13-8.74 14.64-17.18c3.65-4.08 7.38-8.1 11.25-12 2.88-2.89 5.83-5.71 8.91-8.39a69.76 69.76 0 0 1 7.4-5.76 30.34 30.34 0 0 1 2.79-1.68 17.81 17.81 0 0 1 6.55-2.09 4.35 4.35 0 0 0 .78-.23h3.26a1.5 1.5 0 0 0 .77.25 19.88 19.88 0 0 1 5.6 1.57 32.23 32.23 0 0 1 8 5.09 54.22 54.22 0 0 1 9.3 10.42 40 40 0 0 1 4.88 9.67A65.29 65.29 0 0 1 298 37.66c.48 2.73.75 5.48 1 8.24 0 .49 0 1 .06 1.49.1 3.08.12 6.17 0 9.25-.08 1.85-.24 3.71-.42 5.55s-.39 3.43-.62 5.13a123.37 123.37 0 0 1-5.29 22.75c-1.91 5.72-4.15 11.32-6.56 16.85-4.42 10.14-9.38 20-14.76 29.69-4.17 7.49-8.58 14.84-13.33 22-1.66 2.49-3.33 5-5.18 7.33a68 68 0 0 1-5.57 6.32 59.4 59.4 0 0 1-7.7 6.45 80.28 80.28 0 0 1-9.06 5.49c-1.65.86-3.32 1.67-5 2.5-.28.14-.55.31-.82.47a.14.14 0 0 0 0 .13.13.13 0 0 0 .09.07c.54-.07 1.08-.12 1.61-.22a95.29 95.29 0 0 0 20.5-6.21 35.51 35.51 0 0 0 6-3.26 1.61 1.61 0 0 1 .48-.22c0 0 .18.07.19.13a1.08 1.08 0 0 1 0 .4 64.45 64.45 0 0 1-1.89 7.51 156.75 156.75 0 0 1-6.35 16.5c-1.66 3.77-3.44 7.49-5.28 11.19a61.47 61.47 0 0 1-3.58 6.25 68.11 68.11 0 0 1-7.92 10 64.08 64.08 0 0 1-13 10.38 92.51 92.51 0 0 1-10.13 5.25l-1 .47a.27.27 0 0 0-.08.1c0 .09 0 .16.15.14a58.21 58.21 0 0 0 11.3-2.78 72.67 72.67 0 0 0 15.16-7.32c.42-.26.86-.49 1.29-.73h.11c.03 0 0 .09 0 .12a5.33 5.33 0 0 1-.3.75c-1.19 2.29-2.44 4.55-3.78 6.76a91.8 91.8 0 0 1-9.2 12.78 70.38 70.38 0 0 1-21.77 17.12c-1.58.79-3.21 1.47-4.81 2.21a2.14 2.14 0 0 0-.44.3c-.08.05-.07.09 0 .1s.09.05.13 0a74.1 74.1 0 0 0 19.8-5.62l2-.88s.2.1.19.14a4.4 4.4 0 0 1-.15.79l-2.37 7.09c-2.59 7.5-5.33 14.94-8.32 22.29-3.45 8.54-7.21 16.93-11.41 25.13a215.83 215.83 0 0 1-11.88 20.45 160 160 0 0 1-14.75 19.16 126.24 126.24 0 0 1-13.07 12.47 144.57 144.57 0 0 1-21.36 14.7 121.32 121.32 0 0 1-20.77 9.41 81.2 81.2 0 0 1-11.29 3l-2.27.42s-.09.1-.13.16 0 .07.09.08a21.1 21.1 0 0 0 2.94.54c2.37.38 4.77.56 7.16.76.45 0 .9.05 1.36.06h3.53a69 69 0 0 0 17.73-2.24 67.17 67.17 0 0 0 18.79-8.38 80.36 80.36 0 0 0 13-10.42c.35-.35.72-.69 1.08-1a.15.15 0 0 1 .13 0c.11 0 .14.1.09.21s-.1.25-.16.37a141.66 141.66 0 0 1-9.1 15.46 79.89 79.89 0 0 1-8.83 10.76 76.5 76.5 0 0 1-10.93 9.15 105.91 105.91 0 0 1-9.73 6c-3.1 1.69-6.27 3.24-9.48 4.73-.37.17-.73.36-1.09.55v.23c0 .08.06.07.09.08a4.11 4.11 0 0 0 .67.12 52.18 52.18 0 0 0 6.25-.09c1.21-.11 2.43-.18 3.65-.36a31.13 31.13 0 0 0 7.46-2 24.29 24.29 0 0 0 7.69-5c.75-.72 1.45-1.49 2.17-2.25.22-.22.38-.3.43-.21s0 .35-.08.5l-2 3.84a56 56 0 0 1-10.93 13.63 59.07 59.07 0 0 1-11.43 8 75 75 0 0 1-17.58 6.8 99 99 0 0 1-11.06 2.13c-2.07.28-4.14.49-6.22.66-4.52.36-9 .52-13.57.44-1 0-2.09-.08-3.13-.12a5.46 5.46 0 0 0-.8.05.25.25 0 0 0-.11.21 2.14 2.14 0 0 0 .3.44c.73.8 1.5 1.57 2.21 2.4a35.22 35.22 0 0 1 8 16.85c.21 1.11.33 2.24.48 3.36a2 2 0 0 1 0 .54s0 .07-.08.08-.11 0-.12 0a6 6 0 0 1-.47-.65l-3-5a56.81 56.81 0 0 0-5.55-7.55 26.26 26.26 0 0 0-4.73-4.27c-.75-.51-1.55-.94-2.32-1.41a.56.56 0 0 1-.25-.59 15.93 15.93 0 0 1 .19-.65l7.45-21.59q4.92-14 10-27.92 5.64-15.6 11.49-31.13 5.57-14.82 11.31-29.59 6.34-16.29 12.91-32.48 7.17-17.7 14.65-35.28 8.59-20.22 17.62-40.24l10.27-22.36 11.55-24.17q4.45-9.1 9-18.15 6.92-13.73 14.15-27.28c9-16.92 18.44-33.62 28.38-50q6-9.94 12.34-19.7 6.45-10 13.32-19.72 4.5-6.39 9.23-12.62c.3-.39.58-.81.87-1.22a.7.7 0 0 1 .26-.33h0a3.36 3.36 0 0 0 .24-.29h0a.56.56 0 0 0 .22-.24 1 1 0 0 0 .13-.22c.7-1.72 2.2-2.84 3.24-4.3.21-.3.52-.51.7-.83.3-.53.82-.89 1.13-1.41a1.15 1.15 0 0 1 .29-.2c.09-.16 0 .06.08-.1a.94.94 0 0 0 .1-.23c0 .06 0 .11-.06.18s-.27.2-.39.32c-.31.52-.82.87-1.11 1.4-1.2 1.43-2.44 2.82-3.56 4.32a1.55 1.55 0 0 1-.75.53h0a1 1 0 0 0-.25.21h0a.49.49 0 0 0-.22.23l-.36.49a.67.67 0 0 1-.28.32l-3 3.53q-10.83 13.28-20.62 27.35-10.38 14.8-19.92 30.18-12 19.22-22.93 39-6.76 12.18-13.22 24.53-9.81 18.74-19.05 37.75-8.28 17.06-16.16 34.31-7.38 16.14-14.46 32.4-7.08 16.26-14 32.9-9 21.59-17.57 43.34-8.49 21.51-16.61 43.14-5.72 15.28-11.33 30.6-4.83 13.22-9.51 26.48-7.47 20.94-14.57 42-5.93 17.58-11.73 35.21l-9.61 29.9q-4.66 14.7-9.08 29.49a16.75 16.75 0 0 1-1.77 3.9 12.57 12.57 0 0 1-5.68 5.09l-1 .44a1 1 0 0 0-.52.42H.15c-.27 0-.08-.19-.15-.27z"/></svg>
