<svg xmlns="http://www.w3.org/2000/svg" viewBox="0 0 401.76 401.76" fill="#6c757d"><path d="M204.62 11.24a26.24 26.24 0 0 1 30.93-6c19.73 9.52 39.78 18.45 59.2 28.58 8.85 4.6 16.36 11.7 24.77 17.22 12.46 8.19 22.3 19.06 32.47 29.76 13 13.67 21.63 29.82 29.51 46.64 22.2 47.37 20.34 95.7 4.45 143.91a144.94 144.94 0 0 1-29.61 51.53c-16.81 18.71-36 34.66-58.42 46.22-55.05 28.45-113 38.31-174.08 25.09-26-5.63-49.52-16.55-70.06-34-11.64-9.91-20.24-21.69-27.59-34.77C5.59 288.73 3.28 248.77 5 208.18c1-24.89 4.92-49.51 12.77-73.17 7.52-22.65 16.21-45.13 30.45-64.51a176 176 0 0 1 25.16-27.18c14.2-12.63 32.03-17.44 50.53-19.44l85.35-8.76zm-13.86 361.57c25.34-.24 50.46-3.21 74.31-12.91 25.23-10.25 45.41-27.45 62.41-48.27a178 178 0 0 0 31.65-58.43c14.45-45.15 16.31-90.13-8.27-133a173.5 173.5 0 0 0-19.22-27.26c-13.32-15.33-31.1-24.6-49-33.47-3-1.49-5.46-1.82-8.55-.29-7.95 3.93-15.57 3.74-23.5-1.11-7.48-4.57-15.72-7.88-23.63-11.75-15.8-7.75-32.47-9.82-49.89-8.33-23.33 2-45.61 8.05-67.47 16.07a91.14 91.14 0 0 0-32.54 20.63c-12.91 12.61-21.95 28.19-28.55 44.64C28.92 168 25.14 218.52 34.9 269.88c3.2 16.9 8.41 33.14 18.61 47.75 12 17.22 28.1 28.6 46.72 37 28.7 12.89 59.07 17.82 90.53 18.18zm9.82-73.07c-31.34-.86-60.82-7.32-86.57-26.86-17.81-13.49-27.59-30.78-28.62-53-.13-2.83-.56-6.15 3.39-6.9s4.81 2.58 5.55 5.27c4.77 17.34 17.38 28.14 32.1 36.08 44.21 23.86 89.3 27.86 135.12 3.87 12.26-6.42 21.75-15.75 30.26-26.34.45-.56.64-1.46 1.19-1.78 2.43-1.39 5-2.63 7.45-3.93.36 2.66 1.45 5.47 1 8-4.52 23.68-18.6 40-39.36 51.52-17.33 9.58-42.42 14.21-61.51 14.07zm62.18-150.57c9 .09 16.68 7.34 16.62 15.66-.09 11.58-8.94 20.94-19.67 20.79-8.67-.11-15.26-9-15.06-20.25.17-10.12 7.11-16.31 18.11-16.2zM148.07 166.4c.08 10.13-5.27 16-14.72 16.16-11.79.18-19.33-7-19.38-18.36 0-10.78 5.85-17.23 15.58-17.43 8.55-.17 19.1 7.56 18.52 19.63z"/></svg>