<svg xmlns="http://www.w3.org/2000/svg" viewBox="0 0 512.003 512.003" fill="#6c757d"><path d="M510.042 495.168c-8.771-12.365-22.979-22.625-38.021-33.49-16.198-11.677-32.833-23.688-41.167-37.646 31.615-6.604 71.615-18.573 73.542-19.146 3.438-1.031 6.135-3.729 7.156-7.167 1.031-3.438.26-7.167-2.052-9.917-2.063-2.448-50.49-59.271-128.656-87.146-3.448-6.906-7.292-15.76-11.76-26-31.48-72.227-96.834-222.123-269.261-242.29C86.083 23.085 50.073.002 32 .002c-22.427 0-32 9.573-32 32 0 10.917 8.885 23.677 23.375 43.604 7.083 9.74 18.938 26.042 19.292 31.063 0 17.458 20.25 73.979 40.615 98.156l-1.74 3.667C72.521 227.502 64 245.46 64 288.002c0 56.021 26.833 85.333 53.333 85.333 16.448 0 24.635-18.667 28.573-40.521 14.615 29.656 38.49 68.292 71.938 91.906 4.823 3.375 11.479 2.229 14.875-2.563a10.68 10.68 0 0 0-2.563-14.875c-53.042-37.438-81.073-121.74-81.354-122.594-1.625-4.979-6.729-8.063-11.813-7.219a10.67 10.67 0 0 0-8.99 10.531c0 29.292-5.583 60.5-10.667 64-15.385 0-32-24.469-32-64 0-37.74 6.833-52.135 15.479-70.365L105.749 207c1.906-4.302.781-9.344-2.781-12.417C86.531 180.429 64 120.835 64 106.668c0-10.917-8.885-23.677-23.375-43.604-7.083-9.74-18.938-26.042-19.292-31.063 0-10.667 0-10.667 10.667-10.667 8.646 0 36.823 15.635 57.969 30.135 1.448.99 3.125 1.615 4.885 1.802 162.115 17.583 222.333 155.708 254.677 229.917 5.448 12.5 10.156 23.302 14.406 31.198 1.281 2.385 3.417 4.188 5.969 5.052 53.24 18.042 92.938 51.76 111.542 69.865-18.167 5.094-47.177 12.844-67.198 16.177-2.938.49-5.542 2.188-7.167 4.677a10.61 10.61 0 0 0-1.427 8.427c6.552 26.25 31.698 44.396 53.875 60.396 13.573 9.792 26.385 19.042 33.094 28.521 2.083 2.938 5.375 4.5 8.719 4.5a10.63 10.63 0 0 0 6.156-1.958 10.68 10.68 0 0 0 2.542-14.875zM96 85.335c0 5.896 4.771 10.667 10.667 10.667 5.885 0 10.667 4.781 10.667 10.667 0 5.896 4.771 10.667 10.667 10.667s10.667-4.771 10.667-10.667c0-17.646-14.354-32-32-32A10.66 10.66 0 0 0 96 85.335z"/></svg>