<svg xmlns="http://www.w3.org/2000/svg" viewBox="0 0 512 512" fill="#6c757d"  xmlns:v="https://vecta.io/nano"><path d="M0 431.92V79.23A19.68 19.68 0 0 0 .92 76c3.764-35.873 29.933-65.378 65.1-73.4 4.37-1 8.8-1.76 13.2-2.63h352.7l6.59 1.2c42 6.72 72.36 42.06 72.38 84.53q.06 169.94 0 339.87a75.88 75.88 0 0 1-1.13 13.55c-8 43.42-42.07 71.75-86.26 71.76q-167.37 0-334.76 0a115 115 0 0 1-11.88-.64c-36.82-3.76-65.94-29.44-74.29-65.49-1-4.24-1.73-8.55-2.57-12.83zm77.57-165.46v-15.9c.1-3-1-3.89-3.95-3.85l-28.11.06c-5.64 0-5.65 0-5.65 5.85L39.8 473.2c0 3.11.88 4.2 4.1 4.15l31.51-.09a33.59 33.59 0 0 0 3.73-.45v-93.34c2.76 2.19 6 4.93 9.41 7.39a86.69 86.69 0 0 0 11 7.18c26 13.27 60.39 7.78 81.72-12.88 31.6-30.63 33-88.19 2.88-120.35-22.85-24.42-61.28-30.06-89.64-12.64-6.15 3.83-11.28 9.47-16.94 14.29zm169.84 76.78l-26.79 25.27c-.67.65-.4 3.16.3 4.23a70.06 70.06 0 0 0 26.81 24.33c16.94 8.75 35.06 10.95 53.73 8.55 22.27-2.87 41.23-12.15 55-30.45 12.06-16 16.19-34.38 15.17-54.12-1-20.16-8.67-37.14-24.64-49.83-14.16-11.22-30.72-16.22-48.58-16.61-10.13-.19-20.28.78-30.89 1.25q1-22.74 2.14-47.05h92.39v-32.43c0-2.76-2-2.66-3.86-2.66q-60.89 0-121.78 0c-2.82 0-4 .76-4.08 3.83l-.83 30.64-2.22 68.49c-.2 6.91 0 13.83 0 21.25l4.08-1.66c18.66-7.28 37.69-12 58-9.93 20 2.06 38.91 13.34 40.43 40.3.89 15.86-3.4 29.92-17.26 39.36-21.51 14.64-52.08 6.72-64-16.39l-3.1-6.37zm180-147.7l-22.5-7-5.37 16.79 22.13 8.17-13.62 18.8 14.16 10.76 14.1-18.58 14.62 19.06 14.42-10.55-13.59-19.43 22-7.7-5.45-16.72-22.42 6.47V173h-18.5zM167.02 322.92c-1 12.62-4.08 24.12-11.86 34-15.29 19.38-43.49 21.09-61.84 3.9-20.66-19.35-20.32-55.37.2-74.88s57.41-15.2 68.79 16.45c2.36 6.54 3.18 13.66 4.71 20.53z"/><defs /></svg>