<svg xmlns="http://www.w3.org/2000/svg" viewBox="0 0 512 512"  xmlns:v="https://vecta.io/nano"><path fill="#6c757d" d="M493.725 160.831l-.063.616c-1.411 12.654-5.402 26.269-11.776 40.396l-.01.01L371.66 482.304 76.455 413.069c-3.626-.711-7.147-1.536-10.553-2.476-6.781-1.839-13.093-4.086-18.902-6.729-17.752-25.046-31.117-53.415-38.964-83.989.878-3.668 2.288-9.331 4.148-16.29 7.168-26.843 21.096-72.85 37.836-97.04l1.63 55.965 110.299 7.356 149.514-71.084 64.543-94.772-28.588-45.756c47.689 11.567 77.908 22.016 96.935 30.26a220.76 220.76 0 0 1 8.558 3.897c19.111 9.226 22.779 14.838 22.779 14.838 6.301 5.308 11.024 11.536 13.897 18.662 4.18 10.344 5.486 22.141 4.138 34.92z"/><g fill="#768088"><path d="M51.649 262.51l-33.886 87.374a253.3 253.3 0 0 1-9.728-30.009l4.148-16.289 39.466-41.076zm324.363-158.501l117.651 57.437c-1.414 12.656-5.4 26.268-11.781 40.402l-.008.008c-4.771 10.589-10.891 21.472-18.261 32.452l-87.601-130.299z"/><path d="M311.466 198.785l88.418 105.65c-26.594 22.762-58.139 44.127-93.786 62.225l-4.918 2.46 10.286-170.335z"/><path d="M161.951,269.865l139.228,99.252c-39.168,19.38-78.524,32.754-115.176,40.321L161.951,269.865z"/></g><g fill="#5d6c6c"><ellipse transform="matrix(-.4527 -.8917 .8917 -.4527 159.2264 416.755)" cx="207.517" cy="159.51" rx="74.147" ry="167.273"/><path d="M311.466 198.785L301.18 369.117l-139.229-99.252z"/><path d="M481.873 201.857l-110.216 280.45 28.228-177.874c26.422-22.607 47.951-46.595 63.728-70.125 7.37-10.981 13.488-21.864 18.26-32.451z"/><path d="M376.012 104.009l87.601 130.299-152.147-35.523z"/></g><g fill="#7c8b98"><path d="M444.355 88.51l-68.344 15.499-28.596-45.761c47.69 11.577 77.912 22.019 96.94 30.262z"/><path d="M161.951 269.865L65.902 410.598 51.653 262.512z"/><path d="M301.18 369.117l70.476 113.191-185.652-72.87c36.652-7.566 76.008-20.941 115.176-40.321zM50.019 206.546l1.634 55.966-39.47 41.072c7.173-26.84 21.095-72.847 37.836-97.038z"/></g></svg>