<svg xmlns="http://www.w3.org/2000/svg" viewBox="0 0 480 480"><path fill="#6c757d" d="M.06 165v-10c2.49-3.43 4-7.48 7.33-10.42 8.16-7.09 16.05-14.5 24.09-21.74 9.55-8.58 18.44-9 28.67-1.21l75.92 57.66c3.53 2.71 5.55 2.93 9-.22Q237.38 94.7 329.89 10.52A29.18 29.18 0 0 1 338 5c16.53-.7 22.27 9.38 22 23.17l-.12 103.1a10.52 10.52 0 0 0-1.28.71L219.84 237.16c-3.47 2.58-2.85 3.6.16 5.86l69.28 52.45q35.22 26.63 70.54 53.16.12 54.72.22 109.44c0 6-3 10.43-7.58 13.95s-9.66 3.22-14.84 3.12a16.08 16.08 0 0 1-5.86-3.71q-48.48-44.19-97-88.43-45.19-41.21-90.21-82.6c-3-2.76-4.8-2.46-7.81-.15q-38.42 29.38-77 58.48c-9.68 7.32-18.84 6.88-27.93-1.24l-15.17-13.75C10.46 338.06 3.45 333.1.06 325v-9a31.32 31.32 0 0 1 8.1-12.27L75 242.87c2.83-2.54 2.35-3.68-.17-6l-61.22-55.74C8.37 176.38 3.07 171.69.06 165z"/><path fill="#7c8b98" d="M360 131.25l.12-103.1c.22-13.79-5.52-23.87-22-23.17 9.6-5.6 19.06-4 28.49.52l88.07 42.22c11.79 5.48 21.41 12.28 25.25 25.35v333.85c-3.67 12.68-12.63 19.88-24.36 25-17.44 7.63-34.57 16-51.74 24.2l-39 19.2c-9 4.36-18.15 4.93-27.15-.23 5.18.1 10.4.28 14.84-3.12s7.59-8 7.58-13.95q-.06-54.72-.22-109.44z"/></svg>
