<svg xmlns="http://www.w3.org/2000/svg" viewBox="0 0 512 512" fill="#6c757d"><path d="M510.77 215.28l-16.47 14.16-28.5 23.82q-18.24 15.27-36.45 30.56l-28 23.78-20.46 17.27a4.36 4.36 0 0 1-4.16.12l-27.65-23.4-35.73-29.94-30.28-25.93L354 185.85l-26.57-22.54-29.22-24.6-28.33-24.15c-3.28-2.78-6.81-5.27-9.94-8.2-2.1-2-3.65-1.63-5.57 0l-41.16 35.11-48.4 40.4a40.13 40.13 0 0 0-2.9 3.08l192.46 162.47-95.92 80.9L6.13 215.34l252.34-213zM18.18 306.74l35.7-30.05 204.55 172.63L290.94 422q18.58-15.58 37.16-31.19l34.35-29.22 42.47-35.65 28.31-24.09 27.58-23.41c.86-.71 3.11-1 3.83-.41l32.62 27.49c.34.29.46.83.92 1.68L258.47 509.64z"/></svg>