<?xml version="1.0" standalone="no"?>
<!DOCTYPE svg PUBLIC "-//W3C//DTD SVG 1.1//EN" "http://www.w3.org/Graphics/SVG/1.1/DTD/svg11.dtd" >
<svg xmlns="http://www.w3.org/2000/svg" xmlns:xlink="http://www.w3.org/1999/xlink" version="1.1">
<metadata></metadata>
<defs>
<font id="twenty-sevenregular" horiz-adv-x="1244" >
<font-face units-per-em="2048" ascent="1638" descent="-410" />
<missing-glyph horiz-adv-x="511" />
<glyph horiz-adv-x="0" />
<glyph unicode="&#xd;" horiz-adv-x="327" />
<glyph unicode=" "  horiz-adv-x="511" />
<glyph unicode="&#x09;" horiz-adv-x="511" />
<glyph unicode="&#xa0;" horiz-adv-x="511" />
<glyph unicode="!" horiz-adv-x="529" d="M399 1h-259l-2 261h252q9 -196 9 -261zM390 1008h-239v363h229q10 -126 10 -363zM390 777h-239v168zM390 809l-232 169h232v-169zM151 1401v193q36 -6 70 -17.5t54.5 -21.5t65.5 -33q32 -65 36 -121h-226zM390 745q-2 -19 -10 -263h-229v264z" />
<glyph unicode="&#x22;" horiz-adv-x="586" d="M532 1232l-174 21l1 232l194 -33q-14 -171 -21 -220zM359 1231l170 -21q-16 -124 -45 -163q-70 -35 -126 -35zM207 1232l-174 21l1 232l194 -33q-14 -171 -21 -220zM34 1231l170 -21q-16 -124 -45 -163q-70 -35 -126 -35z" />
<glyph unicode="#" horiz-adv-x="1368" d="M555 385l12 134h206l-12 -134h-206zM604 931l12 138h206l-12 -138h-206zM74 518l298 1l-12 -134h-284zM1299 931h-297l14 139h282zM1264 518l-26 -133h-284l12 134zM111 930l22 140h289l-14 -139zM375 238l32 356h138l-33 -356h-137zM512 207l-17 -203q-98 4 -137 8 l17 195h137zM775 207h137l-17 -195q-43 -4 -137 -8zM777 238l33 356h135l-33 -356h-135zM831 856l34 362h135l-32 -362h-137zM429 856l34 362h137l-33 -362h-138zM602 1249h-137l18 196q39 4 137 8zM865 1249l18 204q72 -3 137 -9l-18 -195h-137zM409 625l18 201h138 l-18 -201h-138zM812 625l18 201h135l-18 -201h-135z" />
<glyph unicode="$" horiz-adv-x="1172" d="M512 -231v200h166v-200h-166zM512 1485v200h166v-200h-166zM512 238v356h167v-356h-167zM513 856v362h166v-362h-166zM490 207v-203q-80 4 -111 8v195h111zM513 207h165v-204q-28 -1 -83 -1q-54 0 -82 1v204zM703 207h111v-195q-35 -4 -111 -8v203zM489 1249h-111v196 q33 4 111 8v-204zM513 1249v205q28 1 81 1q55 0 83 -1v-205h-164zM702 1249v204q59 -3 112 -9v-195h-112zM377 625v201h111v-201h-111zM512 625v201h166v-201h-166zM114 825h240v-170zM1074 625h-239v168zM836 1249v193q107 -17 191 -72q31 -63 35 -121h-226zM835 207h227 q-4 -60 -35 -122q-81 -54 -192 -72v194zM124 1249q7 68 34 119q93 69 196 74l1 -192zM124 207h230v-194q-121 18 -196 74q-27 50 -34 120zM703 625v201h109v-201h-109zM1077 593q-3 -182 -12 -355h-230v356zM113 855q2 213 8 364h235l-2 -363z" />
<glyph unicode="%" horiz-adv-x="1446" d="M411 317l115 -71l-149 -252q-72 40 -112 65zM425 342l173 301l118 -68l-171 -301zM918 1194l147 254q68 -38 113 -67l-144 -257zM726 860l174 307l118 -67l-173 -308zM611 667l100 171l117 -67l-97 -172zM339 954v-151q-31 0 -63 3v148h63zM352 954l50 -2v-149h-50v151z M416 952h62v-146q-32 -3 -62 -3v149zM339 1301h-63v148q52 5 63 5v-153zM352 1301v153h50v-153h-50zM416 1301v153q10 0 62 -5v-148h-62zM110 1171h153v-76zM108 1156l153 -76h-153v76zM108 1067l155 2v-102h-149q-6 77 -6 100zM642 1185h-153l2 105h147q4 -88 4 -105z M642 1080h-153v76zM642 1095l-151 76h151v-76zM491 1301v148q79 -11 125 -32q12 -22 20 -116h-145zM489 952h147q-11 -96 -20 -113q-49 -22 -127 -33v146zM114 1301q8 95 21 116q42 28 128 32v-147zM114 952h149v-146q-100 13 -128 33q-13 21 -21 113zM644 1067 q0 -23 -6 -100h-149v102zM108 1185l6 105h149v-105h-155zM1057 155v-153q-21 0 -63 4v149h63zM1069 155l51 -2v-151h-51v153zM1133 153h62v-147q-42 -4 -62 -4v151zM1057 501h-63v148q42 4 63 4v-152zM1069 501v152h51v-152h-51zM1133 501v152q20 0 62 -4v-148h-62zM828 371 h153v-76zM826 357l153 -76h-153v76zM826 267l155 1v-102h-149q-6 76 -6 101zM1360 385h-153l2 104h147q4 -88 4 -104zM1360 281h-153v76zM1360 295l-151 76h151v-76zM1209 501v148q77 -12 125 -33q12 -22 20 -115h-145zM1207 153h147q-8 -93 -20 -115q-44 -19 -127 -32v147z M832 501q8 94 21 115q43 29 128 33v-147zM832 153h149v-147q-102 15 -128 32q-13 21 -21 115zM1362 266q0 -24 -6 -100h-149v102zM826 385q0 24 1 51.5t2.5 31t2.5 21.5h149v-104h-155z" />
<glyph unicode="&#x26;" horiz-adv-x="1323" d="M1098 854h-239v213h229q9 -110 10 -213zM535 624v201h91v-201h-91zM860 207h222v-207h-222v207zM1116 624v201h112v-201h-112zM859 825h236v-171zM514 207v-203q-73 3 -109 8v195h109zM536 207h165v-205h-83h-82v205zM725 207h111v-195q-35 -5 -111 -8v203zM513 1247 h-112v195q46 5 112 7v-202zM535 1247v204q28 1 82 1q55 0 83 -1v-204h-165zM724 1247v202q58 -2 111 -8v-194h-111zM399 624v201h112v-201h-112zM143 825h235v-171zM136 591l242 2v-356h-233q-5 75 -9 354zM1097 624h-239v167zM147 1246q7 69 34 119q93 70 198 75l-1 -193z M147 207h231v-195q-123 20 -197 75q-28 53 -34 120zM725 624v201h109v-201h-109zM1098 591q-2 -193 -10 -354h-230v356zM136 853q2 212 8 363h234v-362z" />
<glyph unicode="'" horiz-adv-x="303" d="M216 1296l-183 22l1 243l203 -34q-14 -180 -21 -231zM34 1295l178 -22q-21 -158 -47 -194q-73 -36 -132 -37z" />
<glyph unicode="(" horiz-adv-x="642" d="M118 815h213l-1 -153zM116 786l212 -151h-214zM117 606l215 1l30 -321h-215q-25 167 -30 320zM118 843q2 118 33 328h215l-33 -327zM238 1566q7 21 23 42.5t27.5 32t39.5 34.5q90 56 181 67l-54 -176h-217zM200 1413l237 98l-24 -98h-213zM206 1443l24 95h214zM155 1200 l37 185h214l-35 -185h-216zM234 -110h217l57 -176q-92 11 -184 67q-69 49 -90 109zM195 43h214l26 -97zM202 14l231 -96h-205q-16 49 -26 96zM152 256h215l35 -185h-215z" />
<glyph unicode=")" horiz-adv-x="638" d="M524 815l-213 -153l-1 153h214zM526 786l2 -151h-215zM525 606q-5 -153 -30 -320h-215l29 321zM524 843l-216 1l-32 327h215q31 -210 33 -328zM403 1566h-216l-54 176q90 -11 181 -67q27 -23 39.5 -34.5t27.5 -32t22 -42.5zM442 1413h-213l-24 98zM436 1443l-238 95h213z M486 1200h-215l-36 185h215zM407 -110q-21 -61 -89 -109q-91 -55 -184 -67l57 176h216zM447 43l-240 -97l25 97h215zM440 14q-8 -39 -27 -96h-204zM490 256l-35 -185h-216l36 185h215z" />
<glyph unicode="*" horiz-adv-x="989" d="M840 932l78 -44q-28 -61 -70 -118l-76 44zM761 820l-138 79l69 119l137 -80zM771 1268l75 46q40 -52 71 -121l-78 -44zM830 1140l-138 -78l-70 119l137 80zM168 1150l-76 44q27 61 69 120l76 -44zM248 1263l137 -81l-69 -117l-137 77zM240 813l-76 -47q-39 54 -70 121 l78 44zM183 938l136 80l68 -120l-136 -79zM425 1312h148v-146h-148v146zM425 914h148v-147h-148v147zM425 1154h148v-228l-148 1v227zM572 1451l1 -126h-130zM555 1451l-130 -125v125h130zM425 629v128h127zM444 629l129 126l-1 -126h-128z" />
<glyph unicode="+" horiz-adv-x="1090" d="M445 625v201h207v-201h-207zM101 826h316v-170zM97 793l317 -167h-315zM994 625h-315v168zM995 657l-314 169h314v-169zM445 238v356h207v-356h-207zM447 856v362h205v-362h-205z" />
<glyph unicode="," horiz-adv-x="359" d="M269 -24l-203 25l1 270l226 -38q-16 -200 -24 -257zM67 -25l198 -24q-23 -176 -52 -216q-82 -40 -147 -41z" />
<glyph unicode="-" horiz-adv-x="1098" d="M453 625v201h196v-201h-196zM129 826h296v-170zM125 793l297 -167h-295zM971 625h-295v168zM972 657l-294 169h294v-169z" />
<glyph unicode="." horiz-adv-x="497" d="M384 0h-258l-2 261h252q8 -196 8 -261z" />
<glyph unicode="/" horiz-adv-x="710" d="M273 842l44 166l174 -47l-44 -165zM131 301l171 -47l-67 -252l-171 46zM136 325l79 298l172 -46l-79 -298zM413 1361l67 252l168 -47l-67 -252zM325 1032l80 302l173 -46l-80 -302zM221 648l45 168l174 -46l-46 -169z" />
<glyph unicode="0" horiz-adv-x="1229" d="M512 207v-203q-80 5 -110 8v195h110zM536 207h164v-204q-27 -1 -82 -1q-54 0 -82 1v204zM725 207h111v-195q-35 -4 -111 -8v203zM512 1249h-111v196q31 4 111 8v-204zM535 1249v205q28 1 82 1q55 0 83 -1v-205h-165zM724 1249v204q57 -3 111 -9v-195h-111zM534 625v201 h167v-201h-167zM137 825h241v-170zM136 792l236 -167h-236v167zM136 593l242 1v-356h-232q-8 161 -10 355zM1098 856h-241v363h231q9 -225 10 -363zM1097 625h-240v168zM1098 657l-234 169h234v-169zM858 1249v193q107 -17 191 -72q33 -65 35 -121h-226zM857 207h227 q-2 -57 -35 -122q-81 -54 -192 -72v194zM147 1249q7 68 34 119q93 69 195 74l2 -192zM146 207h230v-194q-120 18 -195 74q-28 53 -35 120zM1098 593q-4 -236 -10 -355h-231v356zM136 855q2 213 8 364h234v-363z" />
<glyph unicode="1" horiz-adv-x="728" d="M222 1249v203q57 -3 111 -9v-194h-111zM596 856h-239v363h230q6 -92 9 -363zM596 625h-239v168zM596 657l-238 169h238v-169zM357 1248v194q107 -17 191 -72q33 -65 35 -122h-226zM357 207h226q-4 -60 -35 -122q-84 -55 -191 -72v194zM597 593q-4 -236 -10 -355h-230v356 z" />
<glyph unicode="2" horiz-adv-x="1218" d="M504 207v-203q-82 5 -112 8v195h112zM528 207h163v-204q-27 -1 -81 -1q-55 0 -82 1v204zM716 207h111v-195q-35 -4 -111 -8v203zM503 1249h-111v196q34 5 111 8v-204zM527 1249v205q27 1 82 1t82 -1v-205h-164zM716 1249v204q57 -3 111 -9v-195h-111zM391 625v201h112 v-201h-112zM526 625v201h167v-201h-167zM127 826h241v-171zM126 792l240 -167h-240v167zM126 593l242 1v-356h-231q-7 118 -11 355zM1091 856h-240v363h228q11 -160 12 -363zM1089 625h-240v168zM1091 657l-240 169h240v-169zM850 1249v193q51 -8 90 -24t100 -48 q34 -64 36 -121h-226zM849 207h226q-3 -60 -35 -122q-75 -55 -191 -72v194zM138 1249q6 66 35 119q98 74 197 74v-193h-232zM138 207h230v-194h-1q-120 18 -195 74q-27 50 -34 120zM716 625v201h110v-201h-110z" />
<glyph unicode="3" horiz-adv-x="1180" d="M464 207v-203q-78 4 -111 8v195h111zM487 207h164v-204q-27 -1 -82 -1t-82 1v204zM676 207h111v-195q-35 -4 -111 -8v203zM463 1249h-111v196q33 4 111 8v-204zM486 1249v205q27 1 82 1t82 -1v-205h-164zM675 1249v204q58 -3 111 -9v-195h-111zM351 625v201h111v-201 h-111zM485 625v201h167v-201h-167zM1049 856h-239v363h228q9 -109 11 -363zM1048 625h-240v168zM1049 657l-239 169h239v-169zM810 1249v193q110 -10 190 -72q33 -65 35 -121h-225zM807 207h228q-2 -57 -35 -122q-73 -52 -193 -72v194zM98 1249q6 66 35 119q91 69 196 74 v-193h-231zM97 207h230v-194q-120 18 -194 74q-30 55 -36 120zM676 625v201h110v-201h-110zM1049 593q-4 -237 -11 -355h-231v356z" />
<glyph unicode="4" horiz-adv-x="1205" d="M375 625v201h111v-201h-111zM510 625v201h166v-201h-166zM112 825h240v-170zM1073 856h-239v363h229q8 -94 10 -363zM1073 625h-240v168zM1074 657l-240 169h239zM834 1249v193q121 -14 191 -72q31 -63 35 -121h-226zM833 207h227q-4 -60 -35 -122q-82 -53 -192 -72v194z M122 1249q7 68 34 119q93 69 199 74v-192zM701 625v201h109v-201h-109zM1074 593q-3 -209 -11 -355h-230v356zM111 855q2 213 8 364h236v-363z" />
<glyph unicode="5" horiz-adv-x="1202" d="M509 207v-203q-82 5 -111 8v195h111zM533 207h164v-204q-28 -1 -82 -1q-55 0 -82 1v204zM722 207h111v-195q-35 -4 -111 -8v203zM509 1250h-111v195q31 4 111 8v-203zM532 1250v204q28 1 82 1q55 0 83 -1v-204h-165zM721 1250v203q57 -3 111 -9v-194h-111zM396 625v201 h112v-201h-112zM531 625v201h167v-201h-167zM139 825h239l-5 -170zM132 792l240 -167h-240v167zM1095 625h-240v168zM855 1250v192q120 -14 191 -72q33 -65 35 -120h-226zM854 207h227q-4 -60 -35 -122q-75 -57 -192 -72v194zM143 1249q6 66 35 119q93 69 197 74v-192z M143 207h230v-194q-121 18 -196 74q-27 50 -34 120zM722 625v201h109v-201h-109zM1096 593q-3 -209 -11 -355h-231v356zM132 855q2 183 9 364h234v-363z" />
<glyph unicode="6" horiz-adv-x="1205" d="M513 207v-203q-80 4 -111 8v195h111zM536 207h165v-204q-28 -1 -83 -1q-54 0 -82 1v204zM725 207h111v-195q-35 -4 -111 -8v203zM512 1250h-111v195q33 4 111 8v-203zM535 1250v204q28 1 82 1q55 0 83 -1v-204h-165zM724 1250v203q58 -3 111 -9v-194h-111zM399 625v201 h112v-201h-112zM535 625v201h166v-201h-166zM138 825h239v-170zM136 792l239 -167h-239v167zM136 593l239 1v-356h-228q-7 118 -11 355zM1097 625h-239v168zM859 1250v192q116 -12 190 -72q32 -65 36 -120h-226zM857 207h228q-4 -57 -36 -122q-70 -53 -192 -72v194z M147 1249q7 68 34 119q93 69 196 74v-192zM147 207h230v-194q-121 18 -196 74q-29 53 -34 120zM725 625v201h109v-201h-109zM1098 593q-2 -194 -10 -355h-231v356zM136 855q2 213 8 364h233v-363z" />
<glyph unicode="7" horiz-adv-x="1157" d="M439 1249h-111v196q44 7 111 8v-204zM463 1249v205q27 1 82 1t82 -1v-205h-164zM652 1249v204q57 -1 111 -9v-195h-111zM1025 856h-239v363h229q8 -94 10 -363zM1024 625h-238v168zM1025 657l-233 169h233v-169zM786 1249v193q124 -22 190 -72q34 -64 36 -121h-226z M786 207h225q-3 -60 -35 -122q-70 -51 -190 -72v194zM74 1249q6 66 35 119q91 69 196 74v-193h-231zM1025 593q-4 -259 -10 -355h-229v356z" />
<glyph unicode="8" horiz-adv-x="1230" d="M513 207v-203q-72 4 -108 8v195h108zM536 207h165v-204q-28 -1 -83 -1q-54 0 -82 1v204zM725 207h111v-195q-35 -4 -111 -8v203zM512 1250h-111v195q46 5 111 8v-203zM535 1250v204q28 1 82 1q55 0 83 -1v-204h-165zM724 1250v203q58 -3 111 -9v-194h-111zM399 625v201 h112v-201h-112zM535 625v201h166v-201h-166zM142 826h236v-171zM136 593l242 1v-356h-233q-5 74 -9 355zM1098 856h-239v363h229q8 -94 10 -363zM1097 625h-239v168zM859 1249v193q118 -14 190 -72q32 -65 36 -121h-226zM857 207h228q-4 -57 -36 -122q-72 -55 -192 -72v194z M147 1249q7 68 34 119q93 69 198 74l-1 -192zM147 207h231v-194q-123 19 -197 74q-29 53 -34 120zM725 625v201h109v-201h-109zM1098 593q-2 -194 -10 -355h-230v356zM136 855q2 213 8 364h234v-363z" />
<glyph unicode="9" horiz-adv-x="1216" d="M499 207v-203q-82 5 -111 8v195h111zM523 207h164v-204q-28 -1 -82 -1q-55 0 -82 1v204zM712 207h111v-195q-35 -4 -111 -8v203zM499 1250h-111v195q49 7 111 8v-203zM522 1250v204q28 1 82 1q55 0 83 -1v-204h-165zM711 1250v203q57 -2 111 -9v-194h-111zM386 625v201 h112v-201h-112zM521 625v201h167v-201h-167zM123 826h242v-171zM1085 856h-239v363h229q8 -108 10 -363zM1084 625h-239v168zM1085 657l-239 169h239v-169zM845 1249v193q112 -12 191 -72q32 -62 35 -121h-226zM844 207h227q-4 -63 -35 -122q-67 -53 -192 -72v194zM133 1249 q6 66 35 119q93 69 196 74l1 -192zM133 207h230v-194q-121 18 -196 74q-27 50 -34 120zM712 625v201h109v-201h-109zM1086 593q-3 -209 -11 -355h-230v356zM122 855q2 183 9 364h234v-363z" />
<glyph unicode=":" horiz-adv-x="529" d="M384 237h-258l-2 261h252zM396 855h-260v261h252z" />
<glyph unicode=";" horiz-adv-x="531" d="M396 594h-260v261h252zM360 -24l-203 25l1 270l226 -38q-16 -200 -24 -257zM158 -25l198 -24q-23 -176 -52 -216q-82 -40 -147 -41z" />
<glyph unicode="&#x3c;" horiz-adv-x="729" d="M201 608h-124v103l221 197h149v-95zM326 933l121 108v-108h-121zM467 933v126l31 28q30 -8 73 -22q21 -7 59 -32q11 -22 22 -50l-59 -50h-126zM467 908h97l-97 -80v80zM201 583l245 -204v-95h-149l-220 197v102h124zM326 259h120v-108zM467 259h126l58 -49 q-13 -35 -22 -52q-22 -14 -47 -26q-16 -8 -33 -13q-34 -10 -52 -14l-30 27v127zM467 284v79l96 -79h-96z" />
<glyph unicode="=" horiz-adv-x="1115" d="M463 455v181h196v-181h-196zM139 636h296v-153zM135 606l297 -150h-295zM981 455h-295v151zM982 484l-294 152h294v-152zM463 815v181h196v-181h-196zM139 996h296v-153zM135 966l297 -150h-295zM981 815h-295v151zM982 844l-294 152h294v-152z" />
<glyph unicode="&#x3e;" horiz-adv-x="729" d="M529 608l-247 205v95h149l221 -197v-103h-123zM403 933h-121v108zM263 933h-127l-59 50q11 28 23 50q42 27 58 33q19 7 73 21l32 -28v-126zM263 908v-80l-97 80h97zM529 583h123v-102l-219 -197h-150v95zM404 259l-121 -108v108h121zM263 259v-127l-31 -27q-40 9 -52 14 q-13 5 -33 14t-47 25q-8 17 -22 52l58 49h127zM263 284h-96l96 79v-79z" />
<glyph unicode="?" horiz-adv-x="1140" d="M660 0h-258l-2 261h252q8 -196 8 -261zM453 533v210h167v-210h-167zM430 1397h-111v196q42 6 111 8v-204zM454 1397v205q27 1 82 1t82 -1v-205h-164zM643 1397v204q57 -2 111 -9v-195h-111zM453 773v201h167v-201h-167zM1017 1004h-241l1 363h229q9 -144 11 -363z M1016 773h-240v168zM1017 805l-239 169h239v-169zM777 1397v193q121 -18 191 -72q33 -65 35 -121h-226zM65 1397q6 66 35 119q91 69 196 74l2 -192zM643 773v201h110v-201h-110z" />
<glyph unicode="@" horiz-adv-x="1709" d="M1383 792h215v-160h-215v160zM1383 362h215v-160h-215v160zM1598 387h-215v175zM1598 424l-215 183h215v-183zM118 792h215v-160h-215v160zM118 362h215v-160h-215v160zM693 521h-192v253l192 2v-255zM1025 521v255h189v-255h-189zM693 494v-292h-192v292h192zM1598 820 h-218q0 177 -53 267h203q64 -99 68 -267zM333 387h-215v175zM333 424l-215 183h215v-183zM1214 803h-190l1 169q65 -8 189 -8v-161zM1214 202h-189v292h189v-292zM992 175v-188h-270v188h270zM725 803v175q65 5 125 5h14l131 -8v-170zM694 803h-193q0 101 107 147l86 25 v-172zM607 19q-106 53 -106 156h193l-1 -186zM1523 1114h-215q-86 39 -176 52v175q250 -59 391 -227zM925 1365v-178q-42 1 -78 1q-37 0 -70 -1v178q36 2 73 2t75 -2zM957 1364q78 -4 145 -16v-175q-73 5 -145 11v180zM747 1362v-177q-110 -5 -146 -12v173q69 12 146 16z M573 1340v-174q-82 -13 -142 -50l-227 -2q156 175 369 226zM187 1087h217q-71 -95 -71 -267h-213q0 166 67 267zM118 175h215q0 -181 80 -277l-213 -1q-79 147 -82 278zM220 -131h224q61 -33 132 -48v-183q-213 52 -356 231zM785 -386v179q40 -2 80 -2q67 0 133 5v-181 q-89 -4 -108 -4h-4q-16 0 -101 3zM754 -384q-76 4 -145 16v182q66 -12 145 -18v-180zM1176 -353q-69 -20 -146 -28v180q60 7 147 31zM1286 0h-149l-113 -10v185h262v-175zM1318 0v175h279l-3 -176z" />
<glyph unicode="A" horiz-adv-x="1243" d="M514 1250h-111v195q41 5 111 8v-203zM537 1250v204q28 1 82 1q55 0 83 -1v-204h-165zM726 1250v203q57 -2 111 -9v-194h-111zM401 625v201h112v-201h-112zM536 625v201h167v-201h-167zM138 825h242v-170zM137 792l242 -167h-242v167zM137 593l243 1v-356h-232 q-8 146 -11 355zM1099 856h-238v363h229q6 -92 9 -363zM1099 625h-239v168zM1099 657l-238 169h238v-169zM860 1249v193q104 -16 191 -72q33 -65 35 -121h-226zM859 207h227q-4 -60 -35 -122q-85 -55 -192 -72v194zM148 1249q6 66 35 119q75 55 197 74v-192zM148 207h232 v-194h-2q-121 18 -196 74q-27 50 -34 120zM726 625v201h110v-201h-110zM1099 593q-2 -217 -9 -355h-231v356zM137 855q2 183 9 364h234v-363z" />
<glyph unicode="B" horiz-adv-x="1240" d="M514 207v-203q-76 4 -109 8v195h109zM538 207h164v-204q-28 -1 -82 -1q-55 0 -82 1v204zM727 207h109v-195q-35 -4 -109 -8v203zM514 1249h-111v196q41 6 111 8v-204zM537 1249v205q28 1 82 1q55 0 83 -1v-205h-165zM726 1249v204q57 -2 111 -9v-195h-111zM401 625v200 h112v-200h-112zM536 625v200h167v-200h-167zM138 825h242v-170zM137 792l242 -167h-242v167zM137 593l243 1v-356h-232q-8 146 -11 355zM1099 856l-239 -1v364h230q6 -92 9 -363zM1099 625h-239v168zM860 1249v193q109 -11 191 -72q33 -65 35 -121h-226zM859 207h227 q-7 -66 -35 -122q-84 -55 -192 -72v194zM148 1249q6 66 35 119q93 69 196 74l1 -192zM148 207h233v-194q-125 19 -199 74q-27 50 -34 120zM726 625v200h110v-200h-110zM1100 593q-3 -209 -11 -355h-230v356zM137 855q2 183 9 364h234v-363z" />
<glyph unicode="C" horiz-adv-x="1181" d="M513 207v-203q-80 5 -111 8v195h111zM537 207h154v-204q-27 -1 -77 -1t-77 1v204zM716 207h111v-195q-35 -4 -111 -8v203zM513 1249h-111v196q41 6 111 8v-204zM537 1249v205q27 1 77 1q49 0 77 -1v-205h-154zM715 1249v204q59 -2 112 -9v-195h-112zM138 825h241v-170z M137 792l241 -167h-241v167zM136 593l243 1v-356h-232q-8 146 -11 355zM850 1249v193q93 -15 180 -72q33 -65 35 -121h-215zM849 207h216q-2 -57 -35 -122q-87 -57 -181 -72v194zM148 1248q7 70 34 120q93 69 198 74l-1 -193zM148 207h229v-194q-120 18 -195 74 q-27 50 -34 120zM137 855q2 213 8 364h234v-363z" />
<glyph unicode="D" horiz-adv-x="1243" d="M514 207v-203q-82 5 -111 8v195h111zM538 207h164v-204q-28 -1 -82 -1q-55 0 -82 1v204zM727 207h111v-195q-35 -4 -111 -8v203zM514 1250h-111v195q31 4 111 8v-203zM537 1250v204q28 1 82 1q55 0 83 -1v-204h-165zM726 1250v203q57 -3 111 -9v-194h-111zM146 825h234 v-170zM145 792l234 -167h-234v167zM145 593l235 1v-356h-235v355zM1099 856h-239v363h230q6 -92 9 -363zM1098 625h-238v168zM1099 657l-239 169h239v-169zM860 1249v193q107 -17 191 -72q33 -65 35 -121h-226zM859 207h227q-4 -60 -35 -122q-83 -55 -192 -72v194zM145 1249 v177l233 15l2 -191zM145 207h233v-192l-233 9v183zM1099 593q-2 -217 -9 -355h-231l1 356zM145 855v364h235v-363z" />
<glyph unicode="E" horiz-adv-x="1196" d="M514 207v-203q-82 5 -111 8v195h111zM538 207h164v-204q-28 -1 -82 -1q-55 0 -82 1v204zM727 207h111v-195q-35 -4 -111 -8v203zM514 1249h-111v196q41 6 111 8v-204zM537 1249v205q28 1 82 1q55 0 83 -1v-205h-165zM726 1249v204q57 -2 111 -9v-195h-111zM401 625v201 h112v-201h-112zM536 625v201h167v-201h-167zM138 826h242v-171zM137 792l239 -167h-239v167zM137 593l241 1v-356h-230q-8 146 -11 355zM860 1249v193q107 -17 191 -72q33 -65 35 -121h-226zM859 207h227q-4 -60 -35 -122q-83 -55 -192 -72v194zM148 1248q7 67 35 120 q93 69 197 74v-193zM148 207h230v-194q-121 18 -196 74q-27 50 -34 120zM726 625v201h110v-201h-110zM137 855q2 183 9 364h234v-363z" />
<glyph unicode="F" horiz-adv-x="1164" d="M513 1249h-111v196q41 5 111 8v-204zM537 1249v205q27 1 82 1t82 -1v-205h-164zM726 1249v204q57 -2 111 -9v-195h-111zM401 625v201h112v-201h-112zM536 625v201h167v-201h-167zM137 826h241v-171zM136 792l242 -167h-242v167zM137 593l241 1v-356h-230q-10 183 -11 355 zM860 1249v193q108 -17 190 -72q34 -64 36 -121h-226zM148 1248q7 67 35 120q91 69 196 74l1 -193zM148 207h230v-194h-1q-120 18 -195 74q-27 50 -34 120zM726 625v201h110v-201h-110zM136 855q1 153 10 364h234v-363z" />
<glyph unicode="G" horiz-adv-x="1241" d="M514 207v-203q-82 5 -111 8v195h111zM538 207h164v-204q-28 -1 -82 -1q-55 0 -82 1v204zM727 207h111v-195q-35 -4 -111 -8v203zM514 1249h-111v196q47 8 111 8v-204zM537 1249v205q56 2 82 2q27 0 83 -2v-205h-165zM726 1249v204q56 0 111 -9v-195h-111zM536 625v201 h167v-201h-167zM138 825l241 1l1 -171zM137 792l241 -167h-241v167zM137 593l241 1v-356h-230q-8 146 -11 355zM1099 625h-240v168zM1100 657l-239 169h239v-169zM860 1249v193q107 -17 191 -72q33 -65 35 -121h-226zM859 207h227q-4 -60 -35 -122q-83 -55 -192 -72v194z M148 1248q7 67 35 120q93 69 196 74l1 -193zM148 207h230v-194q-121 18 -196 74q-27 50 -34 120zM726 625v201h110v-201h-110zM1100 593q-4 -236 -10 -355h-231v356zM137 855q2 183 9 364h234v-363z" />
<glyph unicode="H" d="M401 625v201h112v-201h-112zM536 625v201h167v-201h-167zM139 825h239v-170zM137 792l241 -167h-241v167zM137 593l241 1v-356h-230q-8 146 -11 355zM1099 856h-238v363h229q6 -92 9 -363zM1099 625h-239v168zM1099 657l-238 169h238v-169zM861 1249v193q106 -17 190 -72 q33 -65 35 -121h-225zM860 207h226q-4 -60 -35 -122q-84 -55 -191 -72v194zM148 1249q6 66 35 119q93 69 195 74v-192zM148 207h230v-194q-121 18 -196 74q-27 50 -34 120zM726 625v201h110v-201h-110zM1100 593q-4 -236 -10 -355h-230v356zM137 855q2 183 9 364h232v-363z " />
<glyph unicode="I" horiz-adv-x="526" d="M138 825h239v-170zM137 792l239 -167h-239v167zM136 593l241 1v-356h-230q-8 146 -11 355zM148 1249q7 68 34 119q93 69 195 74l2 -192zM147 207h230v-194q-120 18 -195 74q-28 53 -35 120zM137 855q2 213 8 364h234l-2 -363z" />
<glyph unicode="J" horiz-adv-x="1203" d="M474 207v-203q-78 4 -111 8v195h111zM497 207h164v-204q-27 -1 -82 -1t-82 1v204zM686 207h111v-195q-35 -4 -111 -8v203zM473 1249h-111v196q33 4 111 8v-204zM496 1249v205q27 1 82 1t82 -1v-205h-164zM685 1249v204q58 -3 111 -9v-195h-111zM1059 856h-239v363h228 q9 -109 11 -363zM1058 625h-238v168zM1059 657l-239 169h239v-169zM820 1249v193q108 -17 190 -72q33 -65 35 -121h-225zM817 207h228q-2 -57 -35 -122q-80 -54 -193 -72v194zM108 1249q6 66 35 119q91 69 194 74l2 -193h-231zM107 207h230v-194q-120 18 -194 74 q-30 55 -36 120zM1059 593q-4 -237 -11 -355h-228v356z" />
<glyph unicode="K" horiz-adv-x="1172" d="M402 593h250l185 -194v-161h-146l-289 308v47zM402 625v200h222l-95 -102l93 -98h-220zM378 625h-241v167zM380 593v-355h-232q-8 146 -11 355h243zM137 855q2 183 9 364h234v-1v-363h-243zM380 825v-170l-241 170h241zM148 207h232v-194q-123 18 -198 74q-27 50 -34 120 zM837 82l-117 125h117v-125zM837 1054l-185 -199h-250v46l292 317h143v-164zM837 1374v-125h-115zM860 57v150h159l58 -61q-16 -42 -26 -62q-32 -21 -55 -32t-38.5 -16t-61.5 -17zM860 374l130 -136h-130v136zM860 1079v139h129zM860 1399l34 37q97 -26 156 -65 q14 -29 26 -60l-58 -62h-158v150zM380 1249h-232q7 66 35 119q93 69 195 74z" />
<glyph unicode="L" horiz-adv-x="1188" d="M514 207v-203q-82 5 -111 8v195h111zM538 207h164v-204q-28 -1 -82 -1q-55 0 -82 1v204zM727 207h111v-195q-35 -4 -111 -8v203zM138 825h242v-170zM137 792l241 -167h-241v167zM137 593l243 1v-356h-232q-8 146 -11 355zM859 207h227q-4 -60 -35 -122q-83 -55 -192 -72 v194zM148 1249q6 66 35 119q93 69 197 74v-192zM148 208h230v-195q-121 18 -196 74q-27 50 -34 121zM137 855q2 183 9 364h234v-363z" />
<glyph unicode="M" horiz-adv-x="1294" d="M539 1250h-136v195q59 8 136 8v-203zM751 1249v204q96 -4 136 -9v-195h-136zM562 856v362h166v-362h-166zM562 625v201h166v-201h-166zM139 825h241v-170zM137 792l241 -167h-241v167zM137 593l243 1v-356h-232q-8 146 -11 355zM1150 856h-240v363h229q9 -109 11 -363z M1149 625h-239v168zM1150 657l-239 169h239v-169zM910 1249v193q107 -17 191 -72q32 -62 35 -121h-226zM910 207h225q-3 -62 -34 -122q-82 -55 -191 -72v194zM148 1249q6 66 35 119q82 61 197 74v-192zM148 207h232v-194q-123 19 -198 74q-27 50 -34 120zM1151 593 q-3 -215 -12 -355h-229v356zM137 855q2 183 9 364h234v-363z" />
<glyph unicode="N" horiz-adv-x="1243" d="M725 238v356h111l-2 -356h-109zM400 856l2 362h111l-1 -362h-112zM536 625v201h166v-201h-166zM138 825h240v-170zM137 792l239 -167h-239v167zM137 593l241 1v-356h-230q-7 118 -11 355zM1099 856h-239v363h229q8 -94 10 -363zM1098 625h-238v168zM1099 657l-239 169 h239v-169zM860 1249v193q106 -17 190 -72q32 -65 36 -121h-226zM860 207h226q-4 -57 -36 -122q-82 -55 -190 -72v194zM148 1249q7 68 34 119q93 69 196 74l1 -192zM148 207h230v-194q-121 18 -196 74q-29 53 -34 120zM1099 593q-2 -194 -10 -355h-229v356zM137 855 q2 213 8 364h234l-1 -363z" />
<glyph unicode="O" d="M514 207v-203q-82 5 -111 8v195h111zM538 207h164v-204q-28 -1 -82 -1q-55 0 -82 1v204zM727 207h111v-195q-35 -4 -111 -8v203zM514 1249h-111v196q31 4 111 8v-204zM537 1249v205q28 1 82 1q55 0 83 -1v-205h-165zM726 1249v204q57 -3 111 -9v-195h-111zM139 825h241 v-170zM137 792l241 -167h-241v167zM137 593l243 1v-356h-232q-8 146 -11 355zM1099 856h-239v363h230q6 -92 9 -363zM1099 625h-239v168zM1099 657l-238 169h238v-169zM860 1248v194q107 -17 191 -72q33 -65 35 -122h-226zM860 207h226q-4 -60 -35 -122q-84 -55 -191 -72 v194zM148 1249q7 66 35 119q93 69 195 74l2 -193h-232zM148 207h232v-194q-123 18 -198 74q-27 50 -34 120zM1100 593q-4 -236 -10 -355h-230v356zM137 855q2 183 9 364h234v-363z" />
<glyph unicode="P" horiz-adv-x="1239" d="M514 1249h-111v196q41 6 111 8v-204zM537 1249v205q28 1 82 1q55 0 83 -1v-205h-165zM726 1249v204q57 -2 111 -9v-195h-111zM401 625v201h112v-201h-112zM536 625v201h167v-201h-167zM139 825h239v-170zM137 792l239 -167h-239v167zM137 593l241 1v-356h-230 q-8 146 -11 355zM1099 856h-238v363h229q6 -92 9 -363zM1099 625h-239v168zM1099 657l-238 169h238v-169zM860 1248v194q107 -17 191 -72q33 -65 35 -122h-226zM148 1248q7 67 35 120q93 69 195 74l2 -193zM148 207h230v-194q-109 9 -196 74q-27 50 -34 120zM726 625v201 h110v-201h-110zM137 855q2 183 9 364h234v-363z" />
<glyph unicode="Q" horiz-adv-x="1322" d="M577 -27h164v-204q-27 -1 -82 -1t-82 1v204zM577 238v356h166v-356h-166zM553 207v-203q-75 4 -151 8v195h151zM577 207h164v-204q-28 -1 -82 -1q-55 0 -82 1v204zM766 207h151v-195q-1 0 -151 -8v203zM553 1249h-151v196q6 1 151 8v-204zM576 1249v205q28 1 82 1 q55 0 83 -1v-205h-165zM765 1249v204q133 -7 151 -9v-195h-151zM138 825h241v-170zM136 792l241 -167h-241v167zM136 593l243 1v-356h-232q-8 146 -11 355zM1178 856h-239v363h230q6 -92 9 -363zM1178 625h-239v168zM1178 657l-238 169h238v-169zM939 1248v194 q107 -17 191 -72q33 -65 35 -122h-226zM939 207h226q-4 -60 -35 -122q-84 -55 -191 -72v194zM147 1248q7 67 35 120q93 69 195 74l2 -193zM147 207h230v-194q-121 18 -196 74q-27 50 -34 120zM1179 593q-4 -236 -10 -355h-230v356zM136 855q2 183 9 364h234v-363z" />
<glyph unicode="R" horiz-adv-x="1235" d="M514 1249h-111v196q31 4 111 8v-204zM537 1249v205q28 1 82 1q55 0 83 -1v-205h-165zM726 1249v204q57 -3 111 -9v-195h-111zM138 829h241v-174zM137 792l241 -167h-241v167zM137 593l242 1v-356h-231q-7 118 -11 355zM148 1247q7 71 34 121q93 69 196 74l1 -194z M148 207h231v-194q-123 19 -197 74q-29 53 -34 120zM137 855q2 213 8 364h234v-363zM553 593q33 -27 91 -74t107 -87.5t92 -79.5v-116h-176l-259 239v118h145zM701 205h142v-131zM866 205h149l69 -59q-22 -54 -26 -62q-45 -29 -69 -38.5t-87 -26.5l-36 33v153zM866 236v96 l113 -96h-113zM410 829h125v-198h-125v198zM559 829h133v-198h-133v198zM1105 829l-239 -168v168h239zM866 1248v193q109 -17 191 -72q32 -65 36 -120q-40 0 -113.5 -0.5t-113.5 -0.5zM717 829h124v-198h-124v198zM1107 861l-241 -2v357h230q9 -153 11 -355z" />
<glyph unicode="S" horiz-adv-x="1227" d="M507 207v-203q-80 4 -111 8v195h111zM531 207h164v-204q-28 -1 -82 -1q-55 0 -82 1v204zM719 207h112v-195q-34 -4 -112 -8v203zM507 1249h-111v196q41 6 111 8v-204zM530 1249v205q28 1 82 1q55 0 83 -1v-205h-165zM719 1249v204q57 -2 111 -9v-195h-111zM394 625v201 h111v-201h-111zM529 625v201h167v-201h-167zM132 826h240l-1 -171zM1091 625h-238v168zM853 1249v193q107 -17 191 -72q31 -63 35 -121h-226zM852 207h227q-4 -57 -36 -122q-82 -55 -191 -72v194zM141 1248q7 70 34 120q93 69 196 74l1 -193zM141 207h230v-194 q-121 18 -196 74q-27 50 -34 120zM719 625v201h110v-201h-110zM1094 593q-3 -182 -12 -355h-229v355h241zM130 855q2 183 9 364h233v-363z" />
<glyph unicode="T" horiz-adv-x="1235" d="M517 207h202v-204q-29 -1 -101 -1q-71 0 -101 1v204zM517 238v356h204v-356h-204zM491 1249h-127v196q35 4 127 8v-204zM517 1249v205q30 1 100 1q74 0 103 -1v-205h-203zM747 1249v204q71 -4 126 -9v-195h-126zM517 856v362h204v-362h-204zM517 625v201h204v-201h-204z M898 1249v193q139 -20 224 -72q35 -62 39 -121h-263zM70 1249q8 68 37 119q102 68 230 74l2 -193h-269z" />
<glyph unicode="U" d="M514 207v-203q-82 5 -111 8v195h111zM538 207h164v-204q-28 -1 -82 -1q-55 0 -82 1v204zM727 207h111v-195q-35 -4 -111 -8v203zM139 825h241v-170zM137 792l241 -167h-241v167zM137 593l243 1v-356h-232q-8 146 -11 355zM1099 856h-239v363h230q6 -92 9 -363zM1099 625 h-239v168zM1099 657l-238 169h238v-169zM860 1248v194q107 -17 191 -72q33 -65 35 -122h-226zM860 207h226q-4 -60 -35 -122q-84 -55 -191 -72v194zM148 1248q7 67 35 120q93 69 197 74v-193zM148 207h232v-194q-123 18 -198 74q-27 50 -34 120zM1100 593q-4 -236 -10 -355 h-230v356zM137 855q2 183 9 364h234v-363z" />
<glyph unicode="V" horiz-adv-x="1235" d="M132 825h241v-170zM131 792l240 -167h-240v167zM142 1249q7 68 34 119q93 69 197 74v-192zM131 855q2 213 8 364h234v-363zM722 598h108l2 -362h-108zM397 598h107l2 -362h-108zM532 205h165v-203l-85 -2l-80 2v203zM532 598h165v-362h-165v362zM1095 829l-240 -168v168 h240zM1097 797v-166h-239zM855 1247v194q109 -17 191 -72q34 -64 36 -121zM1097 861l-242 -2v357h230q11 -172 12 -355z" />
<glyph unicode="W" horiz-adv-x="1292" d="M539 207v-203q-128 7 -136 8v195h136zM751 207h134v-195q-10 -1 -134 -8v203zM560 238v356h168v-356h-168zM560 856v362h168v-362h-168zM560 625v201h168v-201h-168zM139 825h239v-170zM137 792l239 -167h-239v167zM137 593l241 1v-356h-230q-8 146 -11 355zM1148 856 h-240v363h229q9 -109 11 -363zM1147 625h-239v168zM1148 657l-239 169h239v-169zM908 1249v193q107 -17 191 -72q32 -62 35 -121h-226zM907 207h226q-3 -62 -34 -122q-81 -54 -192 -72v194zM148 1249q6 66 35 119q93 69 195 74v-192zM148 207h230v-194q-121 18 -196 74 q-27 50 -34 120zM1148 593q-4 -237 -11 -355h-229v356zM137 855q2 183 9 364h232v-363z" />
<glyph unicode="X" horiz-adv-x="1234" d="M398 829h108v-198h-108v198zM531 829h166v-198h-166v198zM132 861q3 182 12 355h229v-357zM1095 598q-1 -137 -10 -362h-230v362h240zM855 205h226q-3 -59 -35 -121q-82 -55 -191 -72v193zM855 1247v194q109 -17 191 -72q33 -65 35 -121zM144 205h230l-1 -193 q-102 5 -195 74q-27 51 -34 119zM144 1248q7 68 34 119q75 56 195 74v-193h-229zM722 829h107v-198h-107v198zM1096 861l-241 -2v357h230q8 -146 11 -355zM133 599l241 -1v-362h-232q-7 182 -9 363z" />
<glyph unicode="Y" horiz-adv-x="1249" d="M524 598h201v-362h-201v362zM524 205h201v-202l-96 -2l-105 2v202zM386 829h112v-198h-112v198zM524 829h201v-198h-201v198zM120 861q3 209 11 355h230v-357zM888 1247v194q109 -17 191 -72q32 -62 35 -121zM131 1248q6 66 35 119q75 56 195 74v-193h-230zM750 829h112 v-198h-112v198zM1129 861l-241 -2v357h230q8 -146 11 -355z" />
<glyph unicode="Z" horiz-adv-x="1210" d="M117 593l241 1v-356h-230q-8 146 -11 355zM381 625v201h112v-201h-112zM516 625v201h167v-201h-167zM1080 856h-240v363h230q8 -108 10 -363zM707 625v201h109v-201h-109zM494 207v-203q-80 5 -111 8v195h111zM518 207h164v-204q-27 -1 -82 -1t-82 1v204zM707 207h111 v-195q-35 -4 -111 -8v203zM494 1249h-111v196q41 6 111 8v-204zM517 1249v205q28 1 82 1q55 0 83 -1v-205h-165zM706 1249v204q57 -2 111 -9v-195h-111zM840 1249v193q106 -17 191 -72q32 -62 35 -121h-226zM839 207h227q-3 -60 -35 -122q-81 -54 -192 -72v194zM129 1249 q7 68 34 119q93 69 197 74v-193h-231zM128 207h230v-194q-120 18 -195 74q-28 53 -35 120z" />
<glyph unicode="[" horiz-adv-x="808" d="M153 806h210l1 -205zM150 772l211 -202h-211v202zM150 537l213 1v-397h-213v396zM150 837v405h213v-404zM392 1764h138v-143h-138v143zM558 1764h207v-143h-207v143zM155 1621l208 112v-112h-208zM150 1655v109h211zM150 1274v315h213v-315h-213zM392 -384v143h138v-143 h-138zM558 -384v143h207v-143h-207zM155 -241h208v-111zM150 -274l211 -110h-211v110zM150 107h213v-316h-213v316z" />
<glyph unicode="\" horiz-adv-x="699" d="M-1331 564zM-1331 564zM-1331 564zM-1331 564zM437 842l-174 -46l-44 165l174 47zM579 301l67 -253l-171 -46l-67 252zM574 325l-172 -46l-79 298l172 46zM297 1361l-168 -47l-67 252l168 47zM385 1032l-173 -46l-80 302l173 46zM489 648l-173 -47l-46 169l174 46z" />
<glyph unicode="]" horiz-adv-x="808" d="M656 806l-211 -205l1 205h210zM659 772v-202h-211zM659 537v-396h-213v397zM659 837l-213 1v404h213v-405zM417 1764v-143h-138v143h138zM251 1764v-143h-207v143h207zM654 1621h-208v112zM659 1655l-211 109h211v-109zM659 1274h-213v315h213v-315zM417 -384h-138v143 h138v-143zM251 -384h-207v143h207v-143zM654 -241l-208 -111v111h208zM659 -274v-110h-211zM659 107v-316h-213v316h213z" />
<glyph unicode="^" horiz-adv-x="727" d="M372 1368v190l266 -314l-132 -94zM352 1367l-134 -217l-132 94l266 314v-191z" />
<glyph unicode="_" horiz-adv-x="1154" d="M481 -259v201h196v-201h-196zM157 -58h296v-170zM153 -91l297 -167h-295zM999 -259h-295v168zM1000 -227l-294 169h294v-169z" />
<glyph unicode="`" horiz-adv-x="562" d="M337 1307l-263 357l164 118l222 -357z" />
<glyph unicode="a" horiz-adv-x="1134" d="M992 526l-215 134l215 1v-135zM466 166v-164q-15 1 -50 3t-51 3v158h101zM486 166h148v-164q-52 -2 -74 -2t-74 2v164zM657 166h100v-156q-16 -1 -49.5 -4t-50.5 -4v164zM466 999h-101v156q16 1 51 3t50 3v-162zM486 999v164q52 2 74 2t74 -2v-164h-148zM657 999v162 q11 -1 46.5 -3t53.5 -3v-156h-100zM363 500v159h101v-159h-101zM484 500v159h151v-159h-151zM126 659h217v-135zM126 633l217 -133h-217v133zM126 475h217v-285h-207q-6 97 -10 285zM992 684h-215v291h205q10 -113 10 -291zM992 500h-215v135zM777 999v153q57 -5 94 -16.5 t78 -40.5q27 -50 30 -96h-202zM776 166h203q-2 -44 -31 -99q-41 -27 -77.5 -38t-94.5 -19v156zM136 999q3 47 31 95q80 54 178 59v-154h-209zM136 166h207v-157q-110 15 -176 61q-27 48 -31 96zM657 500v159h99v-159h-99zM992 475q-4 -206 -10 -285h-206v285h216z" />
<glyph unicode="b" horiz-adv-x="1146" d="M150 1350h206v-140zM150 1319l206 -133h-207zM151 1379q8 72 30 116q64 51 175 70v-186h-205zM147 997l2 164h208v-164h-210zM664 999v164q15 -1 50 -3t51 -3v-158h-101zM644 999h-148v164q52 2 74 2q24 0 74 -2v-164zM475 999h-101v162l101 2v-164zM664 166h101v-156 q-16 -1 -51 -3t-50 -3v162zM644 166v-164q-50 -2 -74 -2q-22 0 -74 2v164h148zM475 166v-162q-68 4 -101 6v156h101zM1002 506h-214v135zM1004 532l-215 133h215v-133zM1004 690h-216v285h207q5 -99 9 -285zM136 481h219v-291h-206q-13 167 -13 291zM137 665h218v-135z M136 639l217 -135h-217v135zM353 166v-154q-72 11 -172 57q-28 54 -29 97h201zM995 166q-5 -49 -30 -95q-82 -54 -177 -59l-2 -2v156h209zM995 999h-207v156q109 -15 177 -60q25 -46 30 -96zM136 690q3 152 13 285h206v-285h-219zM1004 481q0 -65 -7 -291h-209v291h216z" />
<glyph unicode="c" horiz-adv-x="1087" d="M472 166v-164q-15 1 -50 3t-51 3v158h101zM492 166h137v-164q-50 -2 -69 -2q-16 0 -68 2v164zM652 166h101v-156q-16 -1 -50 -4t-51 -4v164zM472 999h-101v156q16 1 51 3t50 3v-162zM492 999v164q52 2 68 2q19 0 69 -2v-164h-137zM652 999v162l51 -3t50 -3v-156h-101z M134 659h216v-135zM132 633l216 -133h-216v133zM132 475h218v-285h-209q-5 75 -9 285zM773 999v154q85 -13 161 -57q32 -59 33 -97h-194zM772 166h195q-1 -40 -33 -98q-76 -45 -162 -58v156zM143 999q5 54 29 95q82 54 178 59v-154h-207zM141 166h208v-156q-108 15 -177 60 q-27 48 -31 96zM132 684q0 57 3.5 162t3.5 129h211v-291h-218z" />
<glyph unicode="d" horiz-adv-x="1143" d="M780 1350h206v-140zM780 1319l206 -133h-207zM984 1379h-205v186q111 -19 175 -70q22 -44 30 -116zM988 997h-210v164h208zM471 999h-101v158q16 1 51 3t50 3v-164zM491 999v164q50 2 74 2q22 0 74 -2v-164h-148zM660 999v164l101 -2v-162h-101zM471 166v-162 q-15 1 -50 3t-51 3v156h101zM491 166h148v-164q-52 -2 -74 -2q-24 0 -74 2v164zM660 166h101v-156q-33 -2 -101 -6v162zM345 506h-214v135zM347 532l-215 133h215v-133zM131 690q4 186 9 285h207v-285h-216zM999 481q0 -124 -13 -291h-206v291h219zM781 665h218v-135z M780 639l217 -135h-217v135zM782 166h201q-1 -43 -29 -97q-100 -46 -172 -57v154zM140 166h209v-156l-2 2q-95 5 -177 59q-25 46 -30 95zM140 999q5 50 30 96q68 45 177 60v-156h-207zM999 690h-219v285h206q10 -133 13 -285zM131 481h216v-291h-209q-7 226 -7 291z" />
<glyph unicode="e" horiz-adv-x="1136" d="M130 639l215 -134l-215 -1v135zM656 999v164q16 -1 52 -3t51 -3v-158h-103zM635 999h-147v164q52 2 74 2q23 0 73 -2v-164zM465 999h-99v156q17 1 50 4t49 4v-164zM656 166h103v-156q-15 -1 -51 -3t-52 -3v162zM635 166v-164q-50 -2 -73 -2q-22 0 -74 2v164h147zM465 166 v-162l-99 6v156h99zM760 665v-159h-102v159h102zM639 665v-159h-153v159h153zM996 506h-217v135zM996 532l-217 133h217v-133zM996 690h-217v285h207q6 -79 10 -285zM130 481h215v-291h-205q-10 112 -10 291zM130 665h215v-135zM345 166v-154q-100 15 -172 57q-27 52 -28 97 h200zM346 999h-201q1 45 30 98q74 44 171 58v-156zM986 166q-2 -45 -31 -95q-76 -51 -176 -59l-2 -2v156h209zM986 999h-207v156q109 -15 176 -60q29 -50 31 -96zM465 665v-159h-98v159h98zM130 690q4 188 10 285h206v-285h-216z" />
<glyph unicode="f" horiz-adv-x="763" d="M150 1375h206v-165zM150 1344l206 -158h-207zM151 1400q4 40 30 91q64 51 175 70v-161h-205zM147 168h210v-158q-112 15 -180 61q-26 46 -30 97zM479 997h-98v163h98v-163zM503 997v163h147v-163h-147zM479 1400h-100v165q16 1 50 2.5t50 2.5v-170zM499 1400v172 q52 2 74 2q43 0 93 -2v-172h-167zM147 997l2 164h208v-164h-210zM140 659h217v-135zM140 633l215 -133h-215v133zM140 475h217v-285h-210q-2 40 -7 285zM140 684l6 291h211v-291h-217z" />
<glyph unicode="g" horiz-adv-x="1142" d="M142 999q4 49 30 95q82 54 178 59v-154h-208zM471 166v-164q-17 1 -52 3t-48 3v158h100zM492 166h147v-164q-50 -2 -74 -2q-21 0 -73 2v164zM661 166h102v-156q-16 -1 -51 -4t-51 -4v164zM471 999h-100v156q13 1 48 3t52 3v-162zM492 999v164q52 2 73 2q24 0 74 -2v-164 h-147zM661 999v162q16 -1 51 -3t51 -3v-156h-102zM134 659h214v-135zM132 633l215 -133h-215v133zM132 475h216v-285h-207q-5 75 -9 285zM997 684h-215v291h205q10 -113 10 -291zM997 500h-215v135zM997 526l-215 135h215v-135zM782 999v154q100 -15 172 -57q29 -52 31 -97 h-203zM141 166h207v-156q-108 15 -177 60q-26 46 -30 96zM997 475q-2 -154 -10 -285h-205v285h215zM132 684l6 291h210v-291h-216zM479 -190v-191q-87 6 -98 7v184h98zM500 -190h146v-193q-25 -1 -74 -1l-72 1v193zM667 -190h98v-184q-14 -2 -98 -7v191zM782 -190h205 q-1 -53 -30 -114q-77 -54 -175 -70v184zM156 -190h204v-184q-110 17 -173 70q-26 48 -31 114zM987 -160h-205v101zM987 -129l-205 100h205v-100zM782 166h205v-166h-205v166z" />
<glyph unicode="h" horiz-adv-x="1146" d="M664 999v164q15 -1 50 -3t51 -3v-158h-101zM644 999h-148v164q52 2 74 2q24 0 74 -2v-164zM475 999h-101v156q16 1 50 4t51 4v-164zM1002 506h-214v135zM1004 532l-215 133h215v-133zM1004 690h-216v285h207q5 -99 9 -285zM136 481h219v-291h-206q-13 167 -13 291z M137 665h218v-135zM136 639l217 -135h-217v135zM353 166v-154q-72 11 -172 57q-28 54 -29 97h201zM995 166q-5 -49 -30 -95q-82 -54 -177 -59l-2 -2v156h209zM995 999h-207v156q109 -15 177 -60q25 -46 30 -96zM136 690q3 152 13 285h206v-285h-219zM1004 481q0 -65 -7 -291 h-209v291h216zM352 1355h-203q0 9 1.5 17.5t4 18t4 14.5t6.5 17t6 14.5t7.5 16.5t7.5 15q3 2 17 10t17.5 9.5t15 8t16 8.5t15 7.5t16 7.5t15.5 5.5t17.5 5.5t17 4t19.5 4v-183zM151 1325h201v-101zM149 1294l202 -100h-202v100zM355 999h-206v165h206v-165z" />
<glyph unicode="i" horiz-adv-x="501" d="M353 1594v-210h-217l10 200zM145 999q4 49 30 95q82 54 178 59v-154h-208zM138 659h215v-135zM136 633l215 -133h-215v133zM136 475h217v-285h-208q-5 75 -9 285zM145 166h207v-156q-108 15 -177 60q-26 46 -30 96zM136 684l6 291h211v-291h-217z" />
<glyph unicode="j" horiz-adv-x="540" d="M179 1588l207 -10l10 -200h-217v210zM395 693h-216v266h205q11 -124 11 -266zM395 509h-216v135zM395 535l-216 134h216v-134zM179 984v156q101 -15 173 -57q28 -54 29 -99h-202zM395 482q-3 -171 -11 -289h-205v289h216zM179 169h206v-169h-206v169zM63 -191h97v-185 q-19 -2 -55.5 -4t-41.5 -2v191zM179 -191h207q-2 -54 -31 -114q-74 -53 -176 -71v185zM384 -162h-205v102zM385 -130l-203 100h203v-100z" />
<glyph unicode="k" horiz-adv-x="1081" d="M148 1350h206v-140zM148 1319l206 -133h-207zM149 1379q8 72 30 116q64 51 175 70v-186h-205zM501 631h-127v120l229 228h155v-111zM631 1008l127 124v-124h-127zM778 1008v145l32 32q53 -15 74.5 -24.5t62.5 -37.5q10 -21 15 -35.5t9 -23.5l-62 -56h-131zM778 979h100 l-100 -92v92zM504 600l261 -248v-116h-158l-232 241v123h129zM639 205h126v-131zM785 205h135l61 -59q-13 -40 -22 -61q-41 -29 -63 -39t-77 -27l-34 32v154zM785 236v97l102 -97h-102zM138 631l216 170v-170h-216zM138 665v168h215zM138 863q3 194 9 298h207v-298h-216z M147 205h207v-193q-95 8 -177 76q-26 57 -30 117zM138 600h216v-364h-210q-1 41 -2.5 115t-2.5 134.5t-1 114.5z" />
<glyph unicode="l" horiz-adv-x="678" d="M149 1350h206v-140zM150 1319l205 -133h-206zM150 1379q8 72 30 116q64 51 175 70v-186h-205zM147 997l2 164h206v-164h-208zM478 166v-164q-15 1 -50 3t-50 3v158h100zM498 166h147v-164q-50 -2 -73 -2q-22 0 -74 2v164zM140 659h215v-135zM140 633l214 -133h-214v133z M140 475h215v-285h-206q-5 75 -9 285zM149 166h206v-156q-107 15 -176 60q-26 46 -30 96zM140 684l6 291h209v-291h-215z" />
<glyph unicode="m" horiz-adv-x="1236" d="M141 998l2 157h208v-157h-210zM540 166h149v-164q-52 -2 -76 -2q-21 0 -73 2v164zM540 190v285h149v-285h-149zM519 998h-146v157q16 1 73 3t73 3v-163zM710 999v162q17 -1 74.5 -3t74.5 -3v-156h-149zM540 684v291h149v-291h-149zM540 500v159h149v-159h-149zM136 659 h215v-135zM134 633l215 -133h-215v133zM134 475h217v-285h-208q-5 75 -9 285zM1093 684h-215v291h205q10 -113 10 -291zM1093 500h-215v135zM1093 526l-215 135h215v-135zM878 999v154q99 -15 172 -57q29 -52 31 -97h-203zM878 166h203q-2 -38 -33 -98q-72 -43 -170 -58v156 zM143 166h208v-156q-109 15 -178 60q-26 46 -30 96zM1096 475q-2 -120 -13 -285h-205v285h218zM134 684l6 291h211v-291h-217z" />
<glyph unicode="n" horiz-adv-x="1141" d="M140 999l2 157h208v-157h-210zM472 999h-99v156q14 1 48 3l51 3v-162zM494 999v164q52 2 73 2q24 0 74 -2v-164h-147zM663 999v162q66 -4 100 -6v-156h-100zM134 659h216v-135zM134 633l215 -133h-215v133zM134 475h216v-285h-207q-5 75 -9 285zM999 684h-216v291h206 q10 -113 10 -291zM997 500h-214v135zM999 526l-215 135h215v-135zM783 999v154q99 -15 172 -57q30 -58 32 -97h-204zM783 166h204q-2 -40 -32 -98q-76 -44 -172 -58v156zM143 166h207v-156q-108 15 -177 60q-26 46 -30 96zM999 475q-2 -154 -10 -285h-206v285h216zM134 684 l6 291h210v-291h-216z" />
<glyph unicode="o" horiz-adv-x="1139" d="M141 999q4 49 30 95q82 54 178 59v-154h-208zM471 166v-164q-17 1 -52 3t-48 3v158h100zM492 166h147v-164q-50 -2 -74 -2q-21 0 -73 2v164zM661 166h102v-156q-16 -1 -51 -4t-51 -4v164zM471 999h-100v156q13 1 48 3t52 3v-162zM492 999v164q52 2 73 2q24 0 74 -2v-164 h-147zM661 999v162q16 -1 51 -3t51 -3v-156h-102zM134 659h215v-135zM132 633l215 -133h-215v133zM132 475h217v-285h-208q-5 75 -9 285zM997 684h-216v291h206q10 -113 10 -291zM997 500h-216v135zM997 526l-215 135h215v-135zM782 999v154q100 -15 172 -57q29 -52 31 -97 h-203zM781 166h204q-2 -40 -32 -98q-76 -44 -172 -58v156zM141 166h207v-156q-108 15 -177 60q-26 46 -30 96zM997 475q-2 -154 -10 -285h-206v285h216zM132 684l6 291h211v-291h-217z" />
<glyph unicode="p" horiz-adv-x="1139" d="M141 999q4 49 30 95q82 54 178 59v-154h-208zM471 166v-164q-17 1 -52 3t-48 3v158h100zM492 166h147v-164q-50 -2 -74 -2q-21 0 -73 2v164zM661 166h102v-156q-16 -1 -51 -4t-51 -4v164zM471 999h-100v156q13 1 48 3t52 3v-162zM492 999v164q52 2 73 2q24 0 74 -2v-164 h-147zM661 999v162q16 -1 51 -3t51 -3v-156h-102zM134 659h215v-135zM132 633l215 -133h-215v133zM132 475h217v-285h-208q-5 75 -9 285zM997 684h-216v291h206q10 -113 10 -291zM997 500h-216v135zM997 526l-215 135h215v-135zM782 999v154q100 -15 172 -57q29 -52 31 -97 h-203zM781 166h204q-2 -40 -32 -98q-76 -44 -172 -58v156zM997 475q-2 -154 -10 -285h-206v285h216zM132 684l6 291h211v-291h-217zM349 164v-165h-203v165h203zM146 -197h203v-194q-111 19 -173 74q-24 46 -30 120zM150 -28h199v-107zM146 -59l202 -107h-202v107z" />
<glyph unicode="q" horiz-adv-x="1141" d="M140 999q4 49 30 95q82 54 178 59v-154h-208zM470 166v-164q-17 1 -52 3t-48 3v158h100zM491 166h147v-164q-50 -2 -74 -2q-21 0 -73 2v164zM660 166h102v-156q-16 -1 -51 -4t-51 -4v164zM470 999h-100v156q13 1 48 3t52 3v-162zM491 999v164q52 2 73 2q24 0 74 -2v-164 h-147zM660 999v162q16 -1 51 -3t51 -3v-156h-102zM133 659h215v-135zM131 633l215 -133h-215v133zM131 475h217v-285h-208q-5 75 -9 285zM996 684h-216v291h206q10 -113 10 -291zM996 500h-216v135zM996 526l-215 135h215v-135zM781 999v154q100 -15 172 -57q29 -52 31 -97 h-203zM140 166h207v-156q-108 15 -177 60q-26 46 -30 96zM996 475q-2 -154 -10 -285h-206v285h216zM131 684l6 291h211v-291h-217zM780 -190h206q-1 -52 -32 -114q-100 -58 -174 -70v184zM985 -160h-205v101zM986 -129l-203 100h203v-100zM780 166h206v-166h-206v166z" />
<glyph unicode="r" horiz-adv-x="1064" d="M145 998l1 157h208v-157h-209zM473 999h-100v156q13 1 48 3t52 3v-162zM494 999v164q52 2 73 2q24 0 74 -2v-164h-147zM663 999v162q16 -1 51 -3t51 -3v-156h-102zM136 659h215v-135zM134 633l215 -133h-215v133zM134 475h217v-285h-208q-5 75 -9 285zM784 999v154 q100 -15 172 -57q29 -52 31 -97h-203zM143 166h207v-156q-108 15 -177 60q-26 46 -30 96zM134 684l6 291h211v-291h-217z" />
<glyph unicode="s" horiz-adv-x="1123" d="M463 166v-164l-51 3t-48 3v158h99zM485 166h148v-164q-50 -2 -74 -2q-22 0 -74 2v164zM656 166h98v-156q-17 -1 -49 -4t-49 -4v164zM463 999h-99v156q14 1 48 3l51 3v-162zM484 999v164q52 2 74 2q25 0 75 -2v-164h-149zM656 999v162q17 -1 49 -3t49 -3v-156h-98z M363 500v159h100v-159h-100zM484 500v159h149v-159h-149zM125 659h217v-135zM989 500h-214v135zM775 999v154q98 -15 171 -57q32 -62 33 -97h-204zM775 166h204q-1 -36 -33 -98q-76 -44 -171 -58v156zM135 999q3 44 31 95q82 54 176 59v-154h-207zM135 166h207l-2 -156 q-97 10 -174 60q-28 51 -31 96zM656 500v159h98v-159h-98zM991 475q-4 -210 -9 -285h-207v285h216zM125 684q0 57 3 162t4 129h210v-291h-217z" />
<glyph unicode="t" horiz-adv-x="711" d="M150 1350h206v-140zM150 1319l206 -133h-207zM151 1375q8 72 30 116q64 51 175 70v-186h-205zM479 997h-98v164h98v-164zM503 997v164h175v-164h-175zM147 997l2 164h208v-164h-210zM140 659h217v-135zM140 633l215 -133h-215v133zM140 475h217v-285h-210q-2 40 -7 285z M140 684l6 291h211v-291h-217zM147 168h210v-158q-112 15 -180 61q-26 46 -30 97z" />
<glyph unicode="u" horiz-adv-x="1139" d="M471 166v-164q-17 1 -52 3t-48 3v158h100zM492 166h147v-164q-50 -2 -74 -2q-21 0 -73 2v164zM661 166h102v-156q-16 -1 -51 -4t-51 -4v164zM134 659h215v-135zM132 633l215 -133h-215v133zM132 475h217v-285h-208q-5 75 -9 285zM997 684h-216v291h206q10 -113 10 -291z M997 500h-216v135zM997 526l-215 135h215v-135zM782 999v154q100 -15 172 -57q29 -52 31 -97h-203zM781 166h204q-2 -40 -32 -98q-76 -44 -172 -58v156zM141 999q4 49 30 95q82 54 178 59v-154h-208zM141 166h207v-156q-108 15 -177 60q-26 46 -30 96zM997 475 q-2 -154 -10 -285h-206v285h216zM132 684l6 291h211v-291h-217z" />
<glyph unicode="v" horiz-adv-x="1129" d="M131 999q4 49 30 95q82 54 178 59v-154h-208zM121 659h218v-135zM121 633l218 -133h-218v133zM121 684l9 291h209v-291h-218zM654 479h98l1 -291h-97zM361 479h96l3 -291h-98zM482 164h150v-164q-52 -2 -75 -2t-75 2v164zM482 479h150v-291h-150v291zM990 663l-217 -135 v135h217zM992 637v-133h-218zM773 997v156q103 -15 174 -57q29 -55 31 -99h-205zM992 688h-219v285h208q8 -120 11 -285z" />
<glyph unicode="w" horiz-adv-x="1235" d="M141 999q4 49 30 95q82 54 178 59v-154h-208zM519 166v-164q-16 1 -74 3t-74 3v158h148zM710 166h149v-156q-16 -1 -74 -4t-75 -4v164zM538 190v285h151v-285h-151zM538 500v159h151v-159h-151zM134 659h215v-135zM132 633l215 -133h-215v133zM132 475h217v-285h-208 q-5 75 -9 285zM1093 684h-217v291h207q10 -113 10 -291zM1093 500h-217v135zM1093 526l-215 135h215v-135zM876 999v154q101 -15 174 -57q29 -52 31 -97h-205zM876 166h205q-2 -38 -33 -98q-74 -44 -172 -58v156zM141 166h207v-156q-108 15 -177 60q-26 46 -30 96zM1093 475 q0 -130 -10 -285h-207v285h217zM132 684l6 291h211v-291h-217z" />
<glyph unicode="x" horiz-adv-x="1133" d="M368 663h98v-159h-98v159zM487 663h150v-159h-150v159zM127 688q3 143 12 285h208v-285h-220zM995 479q0 -90 -9 -291h-207v291h216zM779 164h203q-1 -41 -31 -96q-75 -43 -173 -58zM779 997v156q99 -15 172 -57q30 -55 31 -99h-203zM139 164h207l-1 -154q-91 5 -175 60 q-28 48 -31 94zM139 997q4 49 31 97q67 44 177 59v-156h-208zM660 663h97v-159h-97v159zM995 688h-216v285h207q8 -141 9 -285zM129 479h218l-1 -291h-209q-8 194 -8 291z" />
<glyph unicode="y" horiz-adv-x="1142" d="M987 -160h-205v101zM987 -129l-205 100h205v-100zM142 999q4 49 30 95q82 54 178 59v-154h-208zM471 166v-164q-17 1 -52 3t-48 3v158h100zM492 166h147v-164q-50 -2 -74 -2q-21 0 -73 2v164zM661 166h102v-156q-16 -1 -51 -4t-51 -4v164zM134 659h214v-135zM132 633 l215 -133h-215v133zM132 475h216v-285h-207q-5 75 -9 285zM997 684h-215v291h205q10 -113 10 -291zM997 500h-215v135zM997 526l-215 135h215v-135zM782 999v154q100 -15 172 -57q29 -52 31 -97h-203zM141 166h207v-156q-108 15 -177 60q-26 46 -30 96zM997 475 q-2 -154 -10 -285h-205v285h215zM132 684l6 291h210v-291h-216zM479 -190v-191q-87 6 -98 7v184h98zM500 -190h146v-193q-25 -1 -74 -1l-72 1v193zM667 -190h98v-184q-14 -2 -98 -7v191zM782 -190h205q-1 -53 -30 -114q-77 -54 -175 -70v184zM156 -190h204v-184 q-110 17 -173 70q-26 48 -31 114zM782 166h205v-166h-205v166z" />
<glyph unicode="z" horiz-adv-x="1117" d="M118 475h219v-285h-207q-9 142 -12 285zM357 500v159h99v-159h-99zM477 500v159h150v-159h-150zM984 684h-214v291h206q8 -103 8 -291zM649 500v159h98v-159h-98zM457 166v-164q-15 1 -49 3t-49 3v158h98zM479 166h148v-164q-50 -2 -74 -2q-22 0 -74 2v164zM650 166h99 v-156q-16 -1 -49 -4t-50 -4v164zM457 999h-100v156q13 1 48 3t52 3v-162zM479 999v164q52 2 73 2q22 0 74 -2v-164h-147zM649 999v162q11 -1 46.5 -3t53.5 -3v-156h-100zM770 999v154q99 -15 171 -57q32 -59 33 -97h-204zM768 166h206q-1 -40 -33 -98q-73 -43 -173 -58v156z M130 999q4 48 29 95q82 54 177 59l1 -154h-207zM130 166h205v-156q-107 15 -176 60q-25 47 -29 96z" />
<glyph unicode="{" horiz-adv-x="1143" d="M84 570v236h206v-236h-206zM320 570v236h135v-236h-135zM488 806h200l1 -205zM485 772l201 -202h-201v202zM485 537l203 1v-397h-203v396zM485 837v405h203v-404zM717 1764h138v-143h-138v143zM883 1764h207v-143h-207v143zM490 1621l198 112v-112h-198zM485 1655v109 h201zM485 1274v315h203v-315h-203zM717 -384v143h138v-143h-138zM883 -384v143h207v-143h-207zM490 -241h198v-111zM485 -274l201 -110h-201v110zM485 107h203v-316h-203v316z" />
<glyph unicode="|" horiz-adv-x="492" d="M147 716h200l1 -175zM144 682l201 -172h-201v172zM144 477l203 1v-367h-203v366zM144 747v375h203v-374zM149 1471l198 112v-112h-198zM144 1505v109h201zM144 1154v285h203v-285h-203zM149 -241h198v-111zM144 -274l201 -110h-201v110zM144 77h203v-286h-203v286z" />
<glyph unicode="}" horiz-adv-x="1137" d="M1060 570h-206v236h206v-236zM824 570h-135v236h135v-236zM656 806l-201 -205l1 205h200zM659 772v-202h-201zM659 537v-396h-203v397zM659 837l-203 1v404h203v-405zM427 1764v-143h-138v143h138zM261 1764v-143h-207v143h207zM654 1621h-198v112zM659 1655l-201 109 h201v-109zM659 1274h-203v315h203v-315zM427 -384h-138v143h138v-143zM261 -384h-207v143h207v-143zM654 -241l-198 -111v111h198zM659 -274v-110h-201zM659 107v-316h-203v316h203z" />
<glyph unicode="~" horiz-adv-x="1312" d="M991 625v201h196v-201h-196zM125 624v201h198v-201h-198zM558 625v201h198v-201h-198zM342 731v201h198v-201h-198zM775 519v201h196v-201h-196z" />
<glyph horiz-adv-x="327" />
<glyph unicode="&#xa1;" horiz-adv-x="530" d="M398 1594q0 -66 -9 -262h-252l2 262h259zM389 595q0 -237 -10 -363h-229v363h239zM389 826l-239 -168v168h239zM389 794v-169h-232zM150 202h226q-4 -56 -36 -121q-73 -53 -190 -72v193zM389 858l-239 -1v264h229q8 -244 10 -263z" />
<glyph unicode="&#xa2;" horiz-adv-x="1153" d="M527 856v362h167v-362h-167zM528 -231v200h167v-200h-167zM528 1485v200h167v-200h-167zM528 238v356h167v-356h-167zM528 625v201h167v-201h-167zM504 207v-203q-80 5 -111 8v195h111zM528 207h164v-204q-27 -1 -82 -1t-82 1v204zM716 207h111v-195q-35 -4 -111 -8v203z M503 1249h-111v196q41 4 111 8v-204zM528 1249v205q27 1 82 1q54 0 81 -1v-205h-163zM716 1249v204q60 -2 111 -9v-195h-111zM128 825h241v-170zM126 792l241 -167h-239zM127 593l242 1v-356h-231q-10 183 -11 355zM851 1249v193q107 -17 189 -72q34 -64 36 -121h-225z M849 207h227q-2 -58 -36 -122q-82 -55 -191 -72v194zM139 1249q7 68 34 119q91 69 195 74l2 -192zM139 207h229v-194q-122 19 -195 74q-27 50 -34 120zM128 855q0 170 8 364h235l-2 -363z" />
<glyph unicode="&#xa3;" horiz-adv-x="1332" d="M88 625v201h166v-201h-166zM284 625v201h109v-201h-109zM701 207v-203q-72 4 -108 8v195h108zM724 207h165v-204q-28 -1 -83 -1q-54 0 -82 1v204zM913 207h111v-195q-35 -4 -111 -8v203zM799 1250h-111v195q43 6 111 8v-203zM822 1250v204q28 1 82 1q55 0 83 -1v-204 h-165zM695 625v201h112v-201h-112zM837 625v201h166v-201h-166zM429 826h236v-171zM423 792l239 -167h-239v167zM423 593l242 1l-99 -356h-233zM1045 207h228q-4 -57 -36 -122q-71 -61 -192 -72v194zM434 1249q7 68 34 119q93 69 196 74l1 -192zM332 207h234v-194l-227 6z M423 855q2 213 8 364h234v-363z" />
<glyph unicode="&#xa4;" horiz-adv-x="1241" d="M1063 287l-154 152l93 93l155 -151zM238 1039l-148 150l93 93l148 -150zM91 374l151 153l95 -93l-153 -155zM911 1126l151 148l92 -92l-149 -148zM542 615v-146q-23 2 -85 4v142h85zM622 468l-62 1v146h124v-146zM704 615h86v-140q-58 -4 -86 -6v146zM542 955h-85v140 q62 2 85 4v-144zM622 1101l62 -1v-145h-124v145zM704 955v144q28 -2 86 -4v-140h-86zM284 773h154v-143h-146q-6 69 -8 143zM960 793h-154l1 147h144q9 -87 9 -147zM807 955v138q22 -2 115 -36q24 -33 26 -102h-141zM806 615h142q-2 -66 -27 -103q-107 -36 -115 -37v140z M292 955q9 80 25 101q71 35 121 37l1 2v-140h-147zM292 615h146v-140q-60 6 -121 38q-16 21 -25 102zM961 773q0 -31 -10 -143h-145v143h155zM284 793q1 0 6 147h149l-1 -147h-154z" />
<glyph unicode="&#xa5;" horiz-adv-x="1222" d="M396 480v150h111v-150h-111zM133 630h240v-120zM130 596l241 -116h-239zM1094 480h-240v117zM1094 511l-238 119h238v-119zM721 480v150h110v-150h-110zM396 168v150h111v-150h-111zM531 168v150h167v-150h-167zM133 318h240v-121zM130 284l241 -116h-239zM1094 168h-240 v117zM1094 199l-238 119h238v-119zM721 168v150h110v-150h-110zM531 0v137l166 1v-138h-166zM531 630h166v-272h-166v272zM399 829h107v-97h-107v97zM532 829h165v-167h-165v167zM132 861q3 215 12 355h230v-357zM855 1247v194q109 -17 191 -72q32 -65 36 -121 q-40 0 -113.5 -0.5t-113.5 -0.5zM144 1248q6 66 35 119q74 56 195 74v-193h-230zM722 829h108v-97h-108v97zM1096 861l-241 -2v357h230q8 -146 11 -355z" />
<glyph unicode="&#xa6;" horiz-adv-x="499" d="M144 442l213 1v-332h-213v331zM144 782v340h213v-339zM149 1471l208 112v-112h-208zM144 1505v109h211zM144 1154v285h213v-285h-213zM149 -241h208v-111zM144 -274l211 -110h-211v110zM144 77h213v-286h-213v286z" />
<glyph unicode="&#xa7;" horiz-adv-x="1169" d="M1054 303h-232v135zM1056 771q-4 -188 -10 -285h-224v285h234zM379 795v160h108v-160h-108zM510 795v160h160v-160h-160zM135 461h222v-155h-2q-113 15 -186 60q-31 48 -34 95zM695 795v160h105v-160h-105zM124 980q0 31 8 290h228l-3 -290h-233zM487 -33v-163 q-17 1 -53 3t-53 3v157h106zM512 -33h158v-163q-28 -1 -79 -1t-79 1v163zM695 -33h105v-155q-17 -1 -52 -4t-53 -4v163zM487 1295h-106v156l106 6v-162zM510 1295v164q54 2 80 2q24 0 80 -2v-164h-160zM695 1295v162l105 -6v-156h-105zM379 302v159h108v-159h-108zM510 302 v159h160v-159h-160zM124 955h233v-135zM1054 795h-232v135zM822 1295v154q107 -15 185 -57q33 -57 35 -97h-220zM822 -32h220q-2 -40 -35 -97q-81 -44 -185 -58v155zM135 1295q3 47 34 95q87 54 188 59v-154h-222zM135 -33h222v-155h-2q-113 15 -186 60q-31 48 -34 95z M695 302v159h105v-159h-105zM1056 278q-4 -188 -10 -285h-224v285h234zM124 486q0 32 8 291h228l-3 -291h-233z" />
<glyph unicode="&#xa8;" horiz-adv-x="834" d="M512 1332v197h199v-197h-199zM117 1334v195h204v-195h-204z" />
<glyph unicode="&#xa9;" horiz-adv-x="1246" d="M190 1046q0 -181 126 -308q127 -128 306 -128q177 0 305 128q127 127 127 308q0 182 -126 308q-127 127 -306 127t-305.5 -127.5t-126.5 -307.5zM101 1046q0 220 152 372q153 153 369 153q214 0 368 -154q153 -153 153 -371q0 -219 -152 -372q-153 -154 -369 -154 t-368.5 154t-152.5 372zM383 790q-17 24 -19 48h128h178v-82q-232 0 -287 34zM865 789q-74 -33 -180 -33v82h199q0 -21 -19 -49zM493 1254h-128q2 24 18 47q54 34 287 34v-81h-177zM884 1254h-199v80q95 0 180 -32q19 -28 19 -48zM358 1039h135v-189h-129q-3 94 -6 189z M358 1050l5 191h130v-191h-135z" />
<glyph unicode="&#xaa;" horiz-adv-x="1062" d="M935 1133l-203 96l203 1v-97zM437 877v-117q-15 1 -48 2.5t-48 2.5v112h96zM457 877h139v-117q-12 0 -35 -0.5t-34 -0.5t-34.5 0.5t-35.5 0.5v117zM618 877h94v-111q-14 0 -29.5 -1t-34.5 -2.5t-30 -2.5v117zM437 1470h-96v112q15 0 48 2t48 2v-116zM457 1470v118 q12 0 35.5 0.5t34.5 0.5t34 -0.5t35 -0.5v-118h-139zM618 1470v116q16 0 47 -2t47 -2v-112h-94zM340 1115v114h95v-114h-95zM454 1115v114h144v-114h-144zM116 1229h206v-97zM116 1209l206 -94h-206v94zM116 1097h206v-203h-197q-7 80 -9 203zM935 1246h-203v208h194 q9 -82 9 -208zM935 1115h-203v96zM732 1470v111q70 -9 163 -42q24 -35 27 -69h-190zM731 877h191q-2 -32 -29 -70q-92 -33 -162 -41v111zM125 1470q3 34 29 68q76 39 168 43l1 1v-112h-198zM125 877h197v-111q-104 11 -168 42q-26 34 -29 69zM618 1115v114h93v-114h-93z M935 1097q-2 -123 -9 -203h-195v203h204z" />
<glyph unicode="&#xab;" horiz-adv-x="1233" d="M703 608h-124v103l222 199h150v-96zM830 935l121 109v-109h-121zM971 935v127l31 28q47 -13 74 -22q18 -6 59 -33q11 -22 22 -50l-59 -50h-127zM971 910h97l-97 -81v81zM703 583l247 -205v-96h-150l-221 199v102h124zM829 257h121v-109zM971 257h127l58 -49 q-14 -35 -22 -52q-36 -22 -47 -27q-29 -12 -33 -13q-12 -3 -53 -14l-30 27v128zM971 282v80l96 -80h-96zM201 608h-124v103l222 199h150v-96zM328 935l121 109v-109h-121zM469 935v127l31 28q47 -13 74 -22q18 -6 59 -33q11 -22 22 -50l-59 -50h-127zM469 910h97l-97 -81v81 zM201 583l247 -205v-96h-150l-221 199v102h124zM327 257h121v-109zM469 257h127l58 -49q-14 -35 -22 -52q-36 -22 -47 -27q-25 -11 -33 -13q-12 -4 -53 -14l-30 27v128zM469 282v80l96 -80h-96z" />
<glyph unicode="&#xac;" horiz-adv-x="1380" d="M1252 593q-3 -201 -14 -355h-224v356zM448 625v201h138v-201h-138zM615 625v201h206v-201h-206zM124 825h296v-170zM120 792l297 -167h-295zM1250 625h-236v168zM1251 657l-235 169h235v-169zM849 625v201h136v-201h-136z" />
<glyph unicode="&#xad;" horiz-adv-x="1443" d="M454 625v201h138v-201h-138zM621 625v201h206v-201h-206zM130 825h296v-170zM126 792l297 -167h-295zM1316 625h-296v168zM1317 657l-295 169h295v-169zM855 625v201h136v-201h-136z" />
<glyph unicode="&#xae;" horiz-adv-x="1246" d="M868 1082l-119 -67v235v79q42 -6 95 -29q17 -27 18 -48q4 -62 6 -170zM190 1046q0 -181 126 -308q127 -128 306 -128q177 0 305 128q127 127 127 308q0 182 -126 308q-127 127 -306 127t-305.5 -127.5t-126.5 -307.5zM101 1046q0 220 152 372q153 153 369 153 q214 0 368 -154q153 -153 153 -371q0 -219 -152 -372q-153 -154 -369 -154t-368.5 154t-152.5 372zM408 783q-19 30 -22 250l120 1v-281q-63 8 -98 30zM391 1251q2 26 17 49q49 30 97 30h1v-280h-120q0 78 5 201zM767 755l-246 184v48h72l264 -180l-12 -25q-15 -14 -78 -27z M736 1002h-214v80h214v-80zM737 1251h-216v79q58 5 106 5t110 -5v-79z" />
<glyph unicode="&#xaf;" horiz-adv-x="1053" d="M351 1468v145h90v-145h-90zM459 1468v145h136v-145h-136zM137 1613h195l1 -121zM135 1585l196 -117h-194zM916 1468h-195v118zM917 1494l-194 119h194v-119zM614 1468v145h89v-145h-89z" />
<glyph unicode="&#xb0;" horiz-adv-x="829" d="M545 1427h163v-217h-163v217zM115 1427h163v-217h-163v217zM399 1185v-162q-16 1 -51 3t-51 3v156h102zM278 1185v-154q-46 7 -132 57q-29 52 -31 97h163zM424 1185h102v-156q-16 -1 -51 -3t-51 -3v162zM545 1185h163q-2 -45 -31 -97q-86 -50 -132 -57v154zM399 1452 h-102v156q16 1 51 3t51 3v-162zM278 1452h-163q2 45 31 97q86 50 132 57v-154zM424 1452v162q16 -1 51 -3t51 -3v-156h-102zM545 1452v154q46 -7 132 -57q29 -52 31 -97h-163z" />
<glyph unicode="&#xb1;" horiz-adv-x="1099" d="M451 768v201h207v-201h-207zM107 969h316v-170zM103 936l317 -167h-315zM1000 768h-315v168zM1001 800l-314 169h314v-169zM451 381v356h207v-356h-207zM453 999v362h205v-362h-205zM452 0v201h206v-201h-206zM128 201h296v-170zM124 168l297 -168h-295zM980 0h-295v168z M981 32l-294 169h294v-169z" />
<glyph unicode="&#xb2;" horiz-adv-x="961" d="M401 800v-122q-57 2 -83 5v117h83zM418 800h121v-123h-60h-61v123zM558 800h82v-117q-29 -3 -82 -5v122zM400 1425h-82v117q27 3 82 5v-122zM417 1425v123h61h61v-123h-122zM558 1425v122q23 -1 81 -5v-117h-81zM316 1051v120h83v-120h-83zM417 1051v120h123v-120h-123z M121 1171h178v-102zM120 1151l177 -100h-177v100zM120 1032h179v-214h-171q-6 87 -8 214zM835 1190h-178v217h170q7 -90 8 -217zM834 1051h-178v101zM835 1070l-178 101h178v-101zM656 1425v115q63 -8 142 -42q24 -39 26 -73h-168zM655 800h169q-2 -35 -26 -74 q-76 -33 -143 -43v117zM129 1425q5 38 27 71q64 41 143 44l1 1v-116h-171zM129 800h170v-117h-1q-93 13 -143 44q-21 31 -26 73zM558 1051v120h80v-120h-80z" />
<glyph unicode="&#xb3;" horiz-adv-x="939" d="M373 800v-122q-56 2 -82 5v117h82zM390 800h122v-123h-61h-61v123zM530 800h83v-117q-28 -3 -83 -5v122zM372 1425h-81v117q27 3 81 5v-122zM390 1425v123h60h61v-123h-121zM530 1425v122q29 -1 82 -5v-117h-82zM290 1051v120h82v-120h-82zM389 1051v120h123v-120h-123z M807 1190h-177v217h169q6 -64 8 -217zM806 1051h-177v101zM807 1070l-177 101h177v-101zM630 1425v115q60 -8 140 -42q25 -42 26 -73h-166zM628 800h168q-1 -33 -26 -74q-76 -34 -142 -43v117zM102 1425q5 40 26 71q64 41 144 44l1 1v-116h-171zM101 800h171v-117 q-94 13 -144 44q-22 33 -27 73zM530 1051v120h82v-120h-82zM807 1032q-4 -163 -8 -214h-171v214h179z" />
<glyph unicode="&#xb4;" horiz-adv-x="557" d="M222 1307l-124 118l222 357l165 -118z" />
<glyph unicode="&#xb5;" horiz-adv-x="1125" d="M987 -129l-202 100h203zM784 166h204v-165h-204v165zM658 166h101v-158q-15 -1 -50 -3t-51 -3v164zM638 166v-164q-50 -2 -74 -2q-22 0 -74 2v164h148zM469 166v-164q-17 1 -51 4t-51 4v156h102zM997 659l-215 -135v135h215zM1000 633l-2 -133h-215zM998 475 q-4 -186 -9 -285h-207v285h216zM132 684q0 162 10 291h205l2 -291h-217zM132 500l217 135v-135h-217zM132 526v135h215zM347 999h-202q2 43 30 97q82 46 172 57v-154zM989 999h-209v156l2 -2q95 -5 177 -59q25 -46 30 -95zM130 475h219v-285h-207q-9 142 -12 285zM998 684 h-216l-2 291h211q7 -226 7 -291zM346 166v-165h-204v165h204zM145 -196h202v-194q-108 19 -172 74q-24 49 -30 120zM146 -27h201v-107zM142 -58l204 -107h-204v107z" />
<glyph unicode="&#xb6;" horiz-adv-x="1203" d="M509 856v363h166v-363h-166zM499 207h165v-204q-28 -1 -82 -1q-55 0 -83 1v204zM374 856v363h112v-363h-112zM498 238v356h167v-356h-167zM486 1249h-111v196q41 6 111 8v-204zM509 1249v205q28 1 83 1q54 0 82 -1v-205h-165zM699 1249v204q57 -2 111 -9v-195h-111z M373 625v201h112v-201h-112zM508 625v201h167v-201h-167zM111 825h241v-170zM1072 856h-240v363h230q8 -108 10 -363zM1071 625h-239v168zM1072 657l-239 169h239v-169zM832 1249v193q104 -16 191 -72q32 -62 35 -121h-226zM831 207h227q-4 -63 -35 -122q-81 -54 -192 -72 v194zM120 1249q6 66 35 119q93 69 198 74l-1 -192zM699 625v201h110v-201h-110zM1073 593q-3 -209 -11 -355h-231v356zM109 855q2 183 9 364h234v-363z" />
<glyph unicode="&#xb7;" horiz-adv-x="544" d="M130 500q0 73 9 291h280l-2 -291h-287z" />
<glyph unicode="&#xb8;" horiz-adv-x="715" d="M327 -201v-202q-168 7 -177 8v194h177zM356 -201h203v-204q-34 -1 -102 -1q-67 0 -101 1v204zM354 -170v139h207v-139h-207z" />
<glyph unicode="&#xb9;" horiz-adv-x="465" d="M84 1425v121q37 -1 73 -5v-116h-73zM331 1189h-158v218h152q4 -56 6 -218zM331 1050h-158v101zM331 1069l-157 102h157v-102zM173 1424v116q70 -10 126 -43q22 -39 23 -73h-149zM173 799h149q-3 -36 -23 -73q-56 -33 -126 -43v116zM331 1031q-2 -142 -6 -213h-152v214z " />
<glyph unicode="&#xba;" horiz-adv-x="978" d="M128 1372q7 76 26 101q71 35 151 38v-139h-177zM408 1003v-145q-23 2 -85 4v141h85zM426 1003h125v-145q-11 0 -31.5 -0.5t-30.5 -0.5t-31 0.5t-32 0.5v145zM570 1003h85v-139q-15 -1 -43 -3l-42 -3v145zM408 1372h-85v140q23 2 85 4v-144zM426 1372v146q11 0 32 0.5 t31 0.5t30.5 -0.5t31.5 -0.5v-146h-125zM570 1372v144q54 -2 85 -4v-140h-85zM120 1177h184v-158h-176q-7 65 -8 158zM855 1195h-184v162h175q9 -73 9 -162zM673 1372v139q61 -7 146 -37q20 -29 26 -102h-172zM671 1003h174q-5 -71 -28 -103q-88 -30 -146 -36v139zM128 1003 h175v-139q-94 9 -149 38q-21 27 -26 101zM855 1177q-1 -68 -9 -158h-175v158h184zM120 1195q0 40 6 162h178v-162h-184z" />
<glyph unicode="&#xbb;" horiz-adv-x="1228" d="M528 608l-246 205v95h148l222 -197v-103h-124zM402 933h-120v108zM262 933h-126l-59 50q11 28 22 50q36 24 59 32q28 10 73 22l31 -28v-126zM262 908v-80l-97 80h97zM528 583h124v-102l-220 -197h-149v95zM403 259l-120 -108v108h120zM262 259v-127l-30 -27 q-42 11 -52 14q-4 1 -33 13q-15 6 -47 26q-9 17 -22 52l58 49h126zM262 284h-96l96 79v-79zM1028 608l-247 205v95h149l221 -197v-103h-123zM902 933h-121v108zM762 933h-127l-59 50q11 28 22 50q39 25 59 32q26 9 73 22l32 -28v-126zM762 908v-80l-97 80h97zM1028 583h123 v-102l-219 -197h-150v95zM903 259l-121 -108v108h121zM762 259v-127l-31 -27q-45 12 -52 14q-15 5 -33 13q-14 6 -47 26q-8 17 -22 52l58 49h127zM762 284h-96l96 79v-79z" />
<glyph unicode="&#xbc;" horiz-adv-x="1523" d="M70 1424v124q37 -1 73 -5v-119h-73zM901 379v124h84v-124h-84zM1002 379v124h125v-124h-125zM703 502h180v-104zM1425 520h-179v221h171q8 -79 8 -221zM1425 379h-181v103zM1426 400l-180 103h179zM1246 759v118q65 -9 142 -44q25 -38 27 -74h-169zM1244 126h171 q-2 -37 -27 -75q-80 -35 -144 -43v118zM711 759q5 39 26 73q65 41 148 45v-117zM1145 379v124h82v-124h-82zM1426 361q-1 -112 -9 -216h-173v217zM703 520q0 110 6 221h176v-221h-182zM469 849l63 187l157 -29l-62 -186zM267 242l154 -29l-65 -190q-135 23 -154 28zM274 269 l113 335l156 -29l-113 -334zM668 1432l65 190q111 -20 152 -30l-64 -189zM544 1063l114 339l156 -28l-115 -339zM397 632l63 188l157 -28l-64 -189zM339 1190h-176v216h169q7 -68 7 -216zM339 1051h-176v100zM339 1069l-171 102h171v-102zM163 1424v116q59 -7 141 -43 q24 -38 26 -73h-167zM163 799h167q-2 -35 -26 -73q-80 -35 -141 -43v116zM339 1031q-2 -144 -7 -213h-169v214z" />
<glyph unicode="&#xbd;" horiz-adv-x="1476" d="M71 1424v124q37 -1 73 -5v-119h-73zM950 124v-122q-56 2 -82 5v117h82zM967 124h121v-123h-60h-61v123zM1107 124h83v-117q-28 -3 -83 -5v122zM949 749h-81v117q27 3 81 5v-122zM966 749v123h61h61v-123h-122zM1107 749v122q25 -1 82 -5v-117h-82zM866 375v120h82v-120 h-82zM966 375v120h123v-120h-123zM671 495h178v-102zM670 475l177 -100h-177v100zM670 356h179v-214h-172q-5 71 -7 214zM1384 513h-177v218h169q7 -89 8 -218zM1383 375h-177v101zM1384 394l-177 101h177v-101zM1206 749v115q63 -8 142 -42q23 -38 25 -73h-167zM1205 124 h168q-3 -37 -25 -74q-76 -33 -143 -43v117zM678 749q5 38 27 71q64 41 144 44l1 1v-116h-172zM678 124h171v-117h-1q-94 13 -144 44q-21 31 -26 73zM1107 375v120h81v-120h-81zM432 849l63 187l157 -29l-63 -186zM229 242l155 -29l-65 -190q-135 23 -154 28zM237 269 l113 335l155 -29l-112 -334zM631 1432l64 190q111 -20 152 -30l-64 -189zM506 1063l114 339l156 -28l-114 -339zM359 632l63 188l158 -28l-65 -189zM340 1190h-176v216h168q8 -78 8 -216zM340 1051h-176v100zM340 1069l-171 102h171v-102zM164 1424v116q59 -7 141 -43 q24 -38 26 -73h-167zM164 799h167q-2 -35 -26 -73q-80 -35 -141 -43v116zM340 1031q-2 -127 -8 -213h-168v214z" />
<glyph unicode="&#xbe;" horiz-adv-x="1947" d="M1325 379v124h84v-124h-84zM1426 379v124h125v-124h-125zM1127 502h181v-104zM1849 520h-179v221h171q8 -79 8 -221zM1849 379h-181v103zM1850 400l-180 103h179zM1670 759v118q65 -9 142 -44q25 -38 27 -74h-169zM1668 126h171q-2 -37 -27 -75q-80 -35 -144 -43v118z M1135 759q5 39 26 73q65 41 149 45v-117zM1569 379v124h83v-124h-83zM1850 361q-1 -112 -9 -216h-173v217zM1127 520q0 110 6 221h177v-221h-183zM893 849l63 187l157 -29l-62 -186zM691 242l155 -29l-66 -190q-135 23 -154 28zM698 269l113 335l156 -29l-113 -334z M1093 1432l64 190q111 -20 152 -30l-64 -189zM968 1063l114 339l156 -28l-115 -339zM821 632l63 188l157 -28l-64 -189zM364 800v-122q-55 2 -82 5v117h82zM381 800h122v-123h-61h-61v123zM521 800h83v-117q-29 -3 -83 -5v122zM363 1425h-81v117q27 3 81 5v-122zM381 1425 v123h60h61v-123h-121zM521 1425v122q29 -1 82 -5v-117h-82zM281 1051v120h82v-120h-82zM380 1051v120h123v-120h-123zM798 1190h-177v217h169q6 -64 8 -217zM797 1051h-177v101zM798 1070l-177 101h177v-101zM621 1425v115q61 -8 141 -42q24 -40 25 -73h-166zM619 800h168 q-1 -34 -25 -74q-76 -33 -143 -43v117zM93 1425q5 40 26 71q64 41 144 44l1 1v-116h-171zM92 800h171v-117q-94 13 -144 44q-22 33 -27 73zM521 1051v120h82v-120h-82zM798 1032q-4 -163 -8 -214h-171v214h179z" />
<glyph unicode="&#xbf;" horiz-adv-x="1117" d="M708 1603q0 -64 -7 -290h-227l2 290h232zM673 1070v-209h-167v209h167zM694 207h111v-197q-31 -3 -111 -8v205zM671 207v-205q-56 -2 -83 -2t-81 2v205h164zM481 207v-205q-38 2 -111 10v195h111zM672 830v-201h-167v201h167zM108 599h241l-1 -362h-229q-10 144 -11 362z M109 830h240v-168zM108 798l239 -169h-239v169zM348 207v-193q-52 8 -90.5 23.5t-100.5 47.5q-33 63 -35 122h226zM1060 207q-7 -67 -35 -120q-91 -68 -195 -73q-1 0 -1 -1t-1 -1v193zM481 830v-201h-110v201h110z" />
<glyph unicode="&#xc0;" horiz-adv-x="1243" d="M620 1598l-263 357l164 118l222 -357zM514 1250h-111v195q41 5 111 8v-203zM537 1250v204q28 1 82 1q55 0 83 -1v-204h-165zM726 1250v203q57 -2 111 -9v-194h-111zM401 625v201h112v-201h-112zM536 625v201h167v-201h-167zM138 825h242v-170zM137 792l242 -167h-242v167 zM137 593l243 1v-356h-232q-8 146 -11 355zM1099 856h-238v363h229q6 -92 9 -363zM1099 625h-239v168zM1099 657l-238 169h238v-169zM860 1249v193q104 -16 191 -72q33 -65 35 -121h-226zM859 207h227q-4 -60 -35 -122q-85 -55 -192 -72v194zM148 1249q6 66 35 119 q75 55 197 74v-192zM148 207h232v-194h-2q-121 18 -196 74q-27 50 -34 120zM726 625v201h110v-201h-110zM1099 593q-2 -217 -9 -355h-231v356zM137 855q2 183 9 364h234v-363z" />
<glyph unicode="&#xc1;" horiz-adv-x="1243" d="M610 1598l-124 118l222 357l165 -118zM514 1250h-111v195q41 5 111 8v-203zM537 1250v204q28 1 82 1q55 0 83 -1v-204h-165zM726 1250v203q57 -2 111 -9v-194h-111zM401 625v201h112v-201h-112zM536 625v201h167v-201h-167zM138 825h242v-170zM137 792l242 -167h-242v167 zM137 593l243 1v-356h-232q-8 146 -11 355zM1099 856h-238v363h229q6 -92 9 -363zM1099 625h-239v168zM1099 657l-238 169h238v-169zM860 1249v193q104 -16 191 -72q33 -65 35 -121h-226zM859 207h227q-4 -60 -35 -122q-85 -55 -192 -72v194zM148 1249q6 66 35 119 q75 55 197 74v-192zM148 207h232v-194h-2q-121 18 -196 74q-27 50 -34 120zM726 625v201h110v-201h-110zM1099 593q-2 -217 -9 -355h-231v356zM137 855q2 183 9 364h234v-363z" />
<glyph unicode="&#xc2;" horiz-adv-x="1243" d="M628 1816v190l266 -314l-132 -94zM608 1815l-134 -217l-132 94l266 314v-191zM514 1250h-111v195q41 5 111 8v-203zM537 1250v204q28 1 82 1q55 0 83 -1v-204h-165zM726 1250v203q57 -2 111 -9v-194h-111zM401 625v201h112v-201h-112zM536 625v201h167v-201h-167z M138 825h242v-170zM137 792l242 -167h-242v167zM137 593l243 1v-356h-232q-8 146 -11 355zM1099 856h-238v363h229q6 -92 9 -363zM1099 625h-239v168zM1099 657l-238 169h238v-169zM860 1249v193q104 -16 191 -72q33 -65 35 -121h-226zM859 207h227q-4 -60 -35 -122 q-85 -55 -192 -72v194zM148 1249q6 66 35 119q75 55 197 74v-192zM148 207h232v-194h-2q-121 18 -196 74q-27 50 -34 120zM726 625v201h110v-201h-110zM1099 593q-2 -217 -9 -355h-231v356zM137 855q2 183 9 364h234v-363z" />
<glyph unicode="&#xc3;" horiz-adv-x="1243" d="M552 1658v171h134v-171h-134zM861 1829h141v-171h-141v171zM234 1828h143v-170h-143v170zM396 1718v171h138v-171h-138zM705 1598v171h136v-171h-136zM514 1250h-111v195q41 5 111 8v-203zM537 1250v204q28 1 82 1q55 0 83 -1v-204h-165zM726 1250v203q57 -2 111 -9v-194 h-111zM401 625v201h112v-201h-112zM536 625v201h167v-201h-167zM138 825h242v-170zM137 792l242 -167h-242v167zM137 593l243 1v-356h-232q-8 146 -11 355zM1099 856h-238v363h229q6 -92 9 -363zM1099 625h-239v168zM1099 657l-238 169h238v-169zM860 1249v193 q104 -16 191 -72q33 -65 35 -121h-226zM859 207h227q-4 -60 -35 -122q-85 -55 -192 -72v194zM148 1249q6 66 35 119q75 55 197 74v-192zM148 207h232v-194h-2q-121 18 -196 74q-27 50 -34 120zM726 625v201h110v-201h-110zM1099 593q-2 -217 -9 -355h-231v356zM137 855 q2 183 9 364h234v-363z" />
<glyph unicode="&#xc4;" horiz-adv-x="1243" d="M767 1598v197h199v-197h-199zM272 1600v195h204v-195h-204zM514 1250h-111v195q41 5 111 8v-203zM537 1250v204q28 1 82 1q55 0 83 -1v-204h-165zM726 1250v203q57 -2 111 -9v-194h-111zM401 625v201h112v-201h-112zM536 625v201h167v-201h-167zM138 825h242v-170z M137 792l242 -167h-242v167zM137 593l243 1v-356h-232q-8 146 -11 355zM1099 856h-238v363h229q6 -92 9 -363zM1099 625h-239v168zM1099 657l-238 169h238v-169zM860 1249v193q104 -16 191 -72q33 -65 35 -121h-226zM859 207h227q-4 -60 -35 -122q-85 -55 -192 -72v194z M148 1249q6 66 35 119q75 55 197 74v-192zM148 207h232v-194h-2q-121 18 -196 74q-27 50 -34 120zM726 625v201h110v-201h-110zM1099 593q-2 -217 -9 -355h-231v356zM137 855q2 183 9 364h234v-363z" />
<glyph unicode="&#xc5;" horiz-adv-x="1243" d="M631 2095q155 -5 223 -65q27 -36 31 -67h-254v132zM606 2095v-132h-254q4 31 31 67q68 60 223 65zM631 1564v132h254q-4 -31 -31 -67q-68 -60 -223 -65zM752 1938h133v-217h-133v217zM352 1938h133v-217h-133v217zM606 1564q-155 5 -223 65q-27 36 -31 67h254v-132z M514 1250h-111v195q41 5 111 8v-203zM537 1250v204q28 1 82 1q55 0 83 -1v-204h-165zM726 1250v203q57 -2 111 -9v-194h-111zM401 625v201h112v-201h-112zM536 625v201h167v-201h-167zM138 825h242v-170zM137 792l242 -167h-242v167zM137 593l243 1v-356h-232 q-8 146 -11 355zM1099 856h-238v363h229q6 -92 9 -363zM1099 625h-239v168zM1099 657l-238 169h238v-169zM860 1249v193q104 -16 191 -72q33 -65 35 -121h-226zM859 207h227q-4 -60 -35 -122q-85 -55 -192 -72v194zM148 1249q6 66 35 119q75 55 197 74v-192zM148 207h232 v-194h-2q-121 18 -196 74q-27 50 -34 120zM726 625v201h110v-201h-110zM1099 593q-2 -217 -9 -355h-231v356zM137 855q2 183 9 364h234v-363z" />
<glyph unicode="&#xc6;" horiz-adv-x="1910" d="M857 318q-4 167 -6 276h248q-2 -194 -5 -291l-1 -65h-234zM860 1249v193h234v-193h-234zM1229 207v-203q-80 4 -112 8v195h112zM1252 207h164v-204q-28 -1 -82 -1t-82 1v204zM1441 207h111v-195q-35 -4 -111 -8v203zM1228 1249h-111v196q33 4 111 8v-204zM1252 1249v205 q27 1 81 1q55 0 83 -1v-205h-164zM1440 1249v204q58 -3 111 -9v-195h-111zM1115 625v201h112v-201h-112zM1251 625v201h167v-201h-167zM852 826h247v-171zM851 792l247 -167h-247v167zM1575 1249v193q36 -6 69.5 -17t55.5 -21.5t65 -33.5q32 -65 36 -121h-226zM1573 207h227 q-4 -60 -35 -122q-60 -32 -100 -48t-92 -24v194zM1440 625v201h110v-201h-110zM514 1250h-111v195q31 4 111 8v-203zM537 1250v204q28 1 82 1q55 0 83 -1v-204h-165zM726 1250v203q57 -3 111 -9v-194h-111zM401 625v201h112v-201h-112zM536 625v201h167v-201h-167zM138 825 h242v-170zM137 792l242 -167h-242v167zM137 593l243 1v-356h-232q-8 146 -11 355zM148 1249q6 66 35 119q93 69 195 74h1l1 1v-193zM148 207h232v-194h-2q-121 18 -196 74q-27 50 -34 120zM726 625v201h110v-201h-110zM137 855q2 183 9 364h234v-363zM851 855q2 183 9 364h1 h233l5 -363zM859 13v194h234v-194h-1h-233z" />
<glyph unicode="&#xc7;" horiz-adv-x="1197" d="M513 -201v-202q-75 4 -151 8v194h151zM537 -201h164v-204q-27 -1 -82 -1t-82 1v204zM535 -170v139h168v-139h-168zM513 207v-203q-80 5 -111 8v195h111zM537 207h164v-204q-27 -1 -82 -1t-82 1v204zM726 207h111v-195q-35 -4 -111 -8v203zM513 1249h-111v196q31 4 111 8 v-204zM537 1249v205q27 1 82 1q54 0 82 -1v-205h-164zM725 1249v204q59 -3 112 -9v-195h-112zM138 825h241v-170zM137 792l241 -167h-241v167zM136 593l243 1v-356h-232q-8 146 -11 355zM860 1249v193q106 -17 190 -72q33 -65 35 -121h-225zM859 207h226q-2 -57 -35 -122 q-82 -55 -191 -72v194zM148 1248q7 70 34 120q93 69 195 74q1 0 1 0.5t1 0.5v-194zM148 207h229v-194q-120 18 -195 74q-27 50 -34 120zM137 855q2 213 8 364h234v-363z" />
<glyph unicode="&#xc8;" horiz-adv-x="1196" d="M617 1577l-263 357l164 118l222 -357zM514 207v-203q-82 5 -111 8v195h111zM538 207h164v-204q-28 -1 -82 -1q-55 0 -82 1v204zM727 207h111v-195q-35 -4 -111 -8v203zM514 1249h-111v196q41 6 111 8v-204zM537 1249v205q28 1 82 1q55 0 83 -1v-205h-165zM726 1249v204 q57 -2 111 -9v-195h-111zM401 625v201h112v-201h-112zM536 625v201h167v-201h-167zM138 826h242v-171zM137 792l239 -167h-239v167zM137 593l241 1v-356h-230q-8 146 -11 355zM860 1249v193q107 -17 191 -72q33 -65 35 -121h-226zM859 207h227q-4 -60 -35 -122 q-83 -55 -192 -72v194zM148 1248q7 67 35 120q93 69 197 74v-193zM148 207h230v-194q-121 18 -196 74q-27 50 -34 120zM726 625v201h110v-201h-110zM137 855q2 183 9 364h234v-363z" />
<glyph unicode="&#xc9;" horiz-adv-x="1196" d="M634 1577l-124 118l222 357l165 -118zM514 207v-203q-82 5 -111 8v195h111zM538 207h164v-204q-28 -1 -82 -1q-55 0 -82 1v204zM727 207h111v-195q-35 -4 -111 -8v203zM514 1249h-111v196q41 6 111 8v-204zM537 1249v205q28 1 82 1q55 0 83 -1v-205h-165zM726 1249v204 q57 -2 111 -9v-195h-111zM401 625v201h112v-201h-112zM536 625v201h167v-201h-167zM138 826h242v-171zM137 792l239 -167h-239v167zM137 593l241 1v-356h-230q-8 146 -11 355zM860 1249v193q107 -17 191 -72q33 -65 35 -121h-226zM859 207h227q-4 -60 -35 -122 q-83 -55 -192 -72v194zM148 1248q7 67 35 120q93 69 197 74v-193zM148 207h230v-194q-121 18 -196 74q-27 50 -34 120zM726 625v201h110v-201h-110zM137 855q2 183 9 364h234v-363z" />
<glyph unicode="&#xca;" horiz-adv-x="1196" d="M645 1795v190l266 -314l-132 -94zM625 1794l-134 -217l-132 94l266 314v-191zM514 207v-203q-82 5 -111 8v195h111zM538 207h164v-204q-28 -1 -82 -1q-55 0 -82 1v204zM727 207h111v-195q-35 -4 -111 -8v203zM514 1249h-111v196q41 6 111 8v-204zM537 1249v205q28 1 82 1 q55 0 83 -1v-205h-165zM726 1249v204q57 -2 111 -9v-195h-111zM401 625v201h112v-201h-112zM536 625v201h167v-201h-167zM138 826h242v-171zM137 792l239 -167h-239v167zM137 593l241 1v-356h-230q-8 146 -11 355zM860 1249v193q107 -17 191 -72q33 -65 35 -121h-226z M859 207h227q-4 -60 -35 -122q-83 -55 -192 -72v194zM148 1248q7 67 35 120q93 69 197 74v-193zM148 207h230v-194q-121 18 -196 74q-27 50 -34 120zM726 625v201h110v-201h-110zM137 855q2 183 9 364h234v-363z" />
<glyph unicode="&#xcb;" horiz-adv-x="1196" d="M732 1577v197h199v-197h-199zM337 1579v195h204v-195h-204zM514 207v-203q-82 5 -111 8v195h111zM538 207h164v-204q-28 -1 -82 -1q-55 0 -82 1v204zM727 207h111v-195q-35 -4 -111 -8v203zM514 1249h-111v196q41 6 111 8v-204zM537 1249v205q28 1 82 1q55 0 83 -1v-205 h-165zM726 1249v204q57 -2 111 -9v-195h-111zM401 625v201h112v-201h-112zM536 625v201h167v-201h-167zM138 826h242v-171zM137 792l239 -167h-239v167zM137 593l241 1v-356h-230q-8 146 -11 355zM860 1249v193q107 -17 191 -72q33 -65 35 -121h-226zM859 207h227 q-4 -60 -35 -122q-83 -55 -192 -72v194zM148 1248q7 67 35 120q93 69 197 74v-193zM148 207h230v-194q-121 18 -196 74q-27 50 -34 120zM726 625v201h110v-201h-110zM137 855q2 183 9 364h234v-363z" />
<glyph unicode="&#xcc;" horiz-adv-x="526" d="M266 1577l-263 357l164 118l222 -357zM138 825h239v-170zM137 792l239 -167h-239v167zM136 593l241 1v-356h-230q-8 146 -11 355zM148 1249q7 68 34 119q93 69 195 74l2 -192zM147 207h230v-194q-120 18 -195 74q-28 53 -35 120zM137 855q2 213 8 364h234l-2 -363z" />
<glyph unicode="&#xcd;" horiz-adv-x="526" d="M287 1577l-124 118l222 357l165 -118zM138 825h239v-170zM137 792l239 -167h-239v167zM136 593l241 1v-356h-230q-8 146 -11 355zM148 1249q7 68 34 119q93 69 195 74l2 -192zM147 207h230v-194q-120 18 -195 74q-28 53 -35 120zM137 855q2 213 8 364h234l-2 -363z" />
<glyph unicode="&#xce;" horiz-adv-x="526" d="M288 1795v190l266 -314l-132 -94zM268 1794l-134 -217l-132 94l266 314v-191zM138 825h239v-170zM137 792l239 -167h-239v167zM136 593l241 1v-356h-230q-8 146 -11 355zM148 1249q7 68 34 119q93 69 195 74l2 -192zM147 207h230v-194q-120 18 -195 74q-28 53 -35 120z M137 855q2 213 8 364h234l-2 -363z" />
<glyph unicode="&#xcf;" horiz-adv-x="526" d="M375 1577v197h199v-197h-199zM-20 1579v195h204v-195h-204zM138 825h239v-170zM137 792l239 -167h-239v167zM136 593l241 1v-356h-230q-8 146 -11 355zM148 1249q7 68 34 119q93 69 195 74l2 -192zM147 207h230v-194q-120 18 -195 74q-28 53 -35 120zM137 855 q2 213 8 364h234l-2 -363z" />
<glyph unicode="&#xd0;" horiz-adv-x="1342" d="M638 625v201h167v-201h-167zM100 625v201h112v-201h-112zM501 625v201h112v-201h-112zM613 207v-203q-80 4 -112 8v195h112zM636 207h164v-204q-28 -1 -82 -1t-82 1v204zM825 207h111v-195q-35 -4 -111 -8v203zM612 1250h-111v195q33 4 111 8v-203zM635 1250v204 q28 1 82 1q55 0 83 -1v-204h-165zM824 1250v203q58 -3 111 -9v-194h-111zM236 825h241v-170zM235 792l242 -167h-242v167zM235 593l242 1v-356h-230q-9 140 -12 355zM1198 856h-240v363h230q8 -94 10 -363zM1197 625h-239v168zM1198 657l-239 169h239v-169zM959 1249v193 q106 -17 190 -72q32 -65 36 -121h-226zM957 207h227q-4 -60 -35 -122q-81 -54 -192 -72v194zM247 1249l5 177l225 15v-191zM248 207h229l-1 -192l-223 9zM1198 593q-4 -236 -10 -355h-231l1 356zM235 855q2 183 9 364h233v-363z" />
<glyph unicode="&#xd1;" horiz-adv-x="1243" d="M569 1670v171h134v-171h-134zM878 1841h141v-171h-141v171zM251 1840h143v-170h-143v170zM413 1730v171h138v-171h-138zM722 1610v171h136v-171h-136zM725 238v356h111l-2 -356h-109zM400 856l2 362h111l-1 -362h-112zM536 625v201h166v-201h-166zM138 825h240v-170z M137 792l239 -167h-239v167zM137 593l241 1v-356h-230q-7 118 -11 355zM1099 856h-239v363h229q8 -94 10 -363zM1098 625h-238v168zM1099 657l-239 169h239v-169zM860 1249v193q106 -17 190 -72q32 -65 36 -121h-226zM860 207h226q-4 -57 -36 -122q-82 -55 -190 -72v194z M148 1249q7 68 34 119q93 69 196 74l1 -192zM148 207h230v-194q-121 18 -196 74q-29 53 -34 120zM1099 593q-2 -194 -10 -355h-229v356zM137 855q2 213 8 364h234l-1 -363z" />
<glyph unicode="&#xd2;" d="M617 1598l-263 357l164 118l222 -357zM514 207v-203q-82 5 -111 8v195h111zM538 207h164v-204q-28 -1 -82 -1q-55 0 -82 1v204zM727 207h111v-195q-35 -4 -111 -8v203zM514 1249h-111v196q31 4 111 8v-204zM537 1249v205q28 1 82 1q55 0 83 -1v-205h-165zM726 1249v204 q57 -3 111 -9v-195h-111zM139 825h241v-170zM137 792l241 -167h-241v167zM137 593l243 1v-356h-232q-8 146 -11 355zM1099 856h-239v363h230q6 -92 9 -363zM1099 625h-239v168zM1099 657l-238 169h238v-169zM860 1248v194q107 -17 191 -72q33 -65 35 -122h-226zM860 207h226 q-4 -60 -35 -122q-84 -55 -191 -72v194zM148 1249q7 66 35 119q93 69 195 74l2 -193h-232zM148 207h232v-194q-123 18 -198 74q-27 50 -34 120zM1100 593q-4 -236 -10 -355h-230v356zM137 855q2 183 9 364h234v-363z" />
<glyph unicode="&#xd3;" d="M603 1598l-124 118l222 357l165 -118zM514 207v-203q-82 5 -111 8v195h111zM538 207h164v-204q-28 -1 -82 -1q-55 0 -82 1v204zM727 207h111v-195q-35 -4 -111 -8v203zM514 1249h-111v196q31 4 111 8v-204zM537 1249v205q28 1 82 1q55 0 83 -1v-205h-165zM726 1249v204 q57 -3 111 -9v-195h-111zM139 825h241v-170zM137 792l241 -167h-241v167zM137 593l243 1v-356h-232q-8 146 -11 355zM1099 856h-239v363h230q6 -92 9 -363zM1099 625h-239v168zM1099 657l-238 169h238v-169zM860 1248v194q107 -17 191 -72q33 -65 35 -122h-226zM860 207h226 q-4 -60 -35 -122q-84 -55 -191 -72v194zM148 1249q7 66 35 119q93 69 195 74l2 -193h-232zM148 207h232v-194q-123 18 -198 74q-27 50 -34 120zM1100 593q-4 -236 -10 -355h-230v356zM137 855q2 183 9 364h234v-363z" />
<glyph unicode="&#xd4;" d="M628 1816v190l266 -314l-132 -94zM608 1815l-134 -217l-132 94l266 314v-191zM514 207v-203q-82 5 -111 8v195h111zM538 207h164v-204q-28 -1 -82 -1q-55 0 -82 1v204zM727 207h111v-195q-35 -4 -111 -8v203zM514 1249h-111v196q31 4 111 8v-204zM537 1249v205q28 1 82 1 q55 0 83 -1v-205h-165zM726 1249v204q57 -3 111 -9v-195h-111zM139 825h241v-170zM137 792l241 -167h-241v167zM137 593l243 1v-356h-232q-8 146 -11 355zM1099 856h-239v363h230q6 -92 9 -363zM1099 625h-239v168zM1099 657l-238 169h238v-169zM860 1248v194 q107 -17 191 -72q33 -65 35 -122h-226zM860 207h226q-4 -60 -35 -122q-84 -55 -191 -72v194zM148 1249q7 66 35 119q93 69 195 74l2 -193h-232zM148 207h232v-194q-123 18 -198 74q-27 50 -34 120zM1100 593q-4 -236 -10 -355h-230v356zM137 855q2 183 9 364h234v-363z" />
<glyph unicode="&#xd5;" d="M553 1658v171h134v-171h-134zM862 1829h141v-171h-141v171zM235 1828h143v-170h-143v170zM397 1718v171h138v-171h-138zM706 1598v171h136v-171h-136zM514 207v-203q-82 5 -111 8v195h111zM538 207h164v-204q-28 -1 -82 -1q-55 0 -82 1v204zM727 207h111v-195 q-35 -4 -111 -8v203zM514 1249h-111v196q31 4 111 8v-204zM537 1249v205q28 1 82 1q55 0 83 -1v-205h-165zM726 1249v204q57 -3 111 -9v-195h-111zM139 825h241v-170zM137 792l241 -167h-241v167zM137 593l243 1v-356h-232q-8 146 -11 355zM1099 856h-239v363h230 q6 -92 9 -363zM1099 625h-239v168zM1099 657l-238 169h238v-169zM860 1248v194q107 -17 191 -72q33 -65 35 -122h-226zM860 207h226q-4 -60 -35 -122q-84 -55 -191 -72v194zM148 1249q7 66 35 119q93 69 195 74l2 -193h-232zM148 207h232v-194q-123 18 -198 74 q-27 50 -34 120zM1100 593q-4 -236 -10 -355h-230v356zM137 855q2 183 9 364h234v-363z" />
<glyph unicode="&#xd6;" d="M769 1598v197h199v-197h-199zM274 1600v195h204v-195h-204zM514 207v-203q-82 5 -111 8v195h111zM538 207h164v-204q-28 -1 -82 -1q-55 0 -82 1v204zM727 207h111v-195q-35 -4 -111 -8v203zM514 1249h-111v196q31 4 111 8v-204zM537 1249v205q28 1 82 1q55 0 83 -1v-205 h-165zM726 1249v204q57 -3 111 -9v-195h-111zM139 825h241v-170zM137 792l241 -167h-241v167zM137 593l243 1v-356h-232q-8 146 -11 355zM1099 856h-239v363h230q6 -92 9 -363zM1099 625h-239v168zM1099 657l-238 169h238v-169zM860 1248v194q107 -17 191 -72 q33 -65 35 -122h-226zM860 207h226q-4 -60 -35 -122q-84 -55 -191 -72v194zM148 1249q7 66 35 119q93 69 195 74l2 -193h-232zM148 207h232v-194q-123 18 -198 74q-27 50 -34 120zM1100 593q-4 -236 -10 -355h-230v356zM137 855q2 183 9 364h234v-363z" />
<glyph unicode="&#xd7;" horiz-adv-x="1008" d="M708 608l-114 -143l-79 98l115 142zM780 237l-170 209l97 120zM801 257l-74 328l168 -208zM216 1216l169 -209l-96 -119zM196 1195l72 -328l-169 208zM479 891l-115 -142l-78 96l116 142zM402 465l-115 142l78 98l116 -143zM497 582l-115 142l118 146l115 -142zM101 376 l170 210l98 -119zM118 352l266 92l-169 -209zM895 1073l-170 -209l-95 120zM877 1098l-265 -89l169 208zM632 749l-115 142l77 96l115 -142z" />
<glyph unicode="&#xd8;" horiz-adv-x="1254" d="M540 721l41 107h126v-96l-40 -105h-127v94zM137 858q1 161 9 366h236v-366h-245zM518 596v-358h-112v130l86 228h26zM540 294v302h115zM707 1160v-301h-115zM731 1224h114v-130l-90 -235h-24v365zM519 208v-204q-101 7 -113 9v195h113zM541 208h166v-205h-82h-84v205z M733 208h113v-195q-16 -3 -113 -9v204zM518 1253h-112v197q51 5 112 8v-205zM540 1253v206q29 1 84 1t83 -1v-206h-167zM731 1253v205q41 -2 114 -9v-196h-114zM139 828h243v-171zM137 795l243 -168h-243v168zM137 596h245v-358h-233q-8 121 -12 358zM1109 859h-242v365h232 q10 -128 10 -365zM1109 627h-242v170zM1109 660l-241 168h241v-168zM867 1252v194q114 -16 194 -71q32 -70 34 -123h-228zM867 208h227q-2 -55 -33 -123q-75 -52 -194 -72v195zM149 1252q6 65 34 120q91 69 197 74l1 2h1v-195zM149 208h231v-195q-125 20 -197 74 q-28 51 -34 121zM1110 596q-1 -154 -11 -358h-233l1 358h243z" />
<glyph unicode="&#xd9;" d="M615 1577l-263 357l164 118l222 -357zM514 207v-203q-82 5 -111 8v195h111zM538 207h164v-204q-28 -1 -82 -1q-55 0 -82 1v204zM727 207h111v-195q-35 -4 -111 -8v203zM139 825h241v-170zM137 792l241 -167h-241v167zM137 593l243 1v-356h-232q-8 146 -11 355zM1099 856 h-239v363h230q6 -92 9 -363zM1099 625h-239v168zM1099 657l-238 169h238v-169zM860 1248v194q107 -17 191 -72q33 -65 35 -122h-226zM860 207h226q-4 -60 -35 -122q-84 -55 -191 -72v194zM148 1248q7 67 35 120q93 69 197 74v-193zM148 207h232v-194q-123 18 -198 74 q-27 50 -34 120zM1100 593q-4 -236 -10 -355h-230v356zM137 855q2 183 9 364h234v-363z" />
<glyph unicode="&#xda;" d="M641 1559l-124 118l222 357l165 -118zM514 207v-203q-82 5 -111 8v195h111zM538 207h164v-204q-28 -1 -82 -1q-55 0 -82 1v204zM727 207h111v-195q-35 -4 -111 -8v203zM139 825h241v-170zM137 792l241 -167h-241v167zM137 593l243 1v-356h-232q-8 146 -11 355zM1099 856 h-239v363h230q6 -92 9 -363zM1099 625h-239v168zM1099 657l-238 169h238v-169zM860 1248v194q107 -17 191 -72q33 -65 35 -122h-226zM860 207h226q-4 -60 -35 -122q-84 -55 -191 -72v194zM148 1248q7 67 35 120q93 69 197 74v-193zM148 207h232v-194q-123 18 -198 74 q-27 50 -34 120zM1100 593q-4 -236 -10 -355h-230v356zM137 855q2 183 9 364h234v-363z" />
<glyph unicode="&#xdb;" d="M646 1795v190l266 -314l-132 -94zM626 1794l-134 -217l-132 94l266 314v-191zM514 207v-203q-82 5 -111 8v195h111zM538 207h164v-204q-28 -1 -82 -1q-55 0 -82 1v204zM727 207h111v-195q-35 -4 -111 -8v203zM139 825h241v-170zM137 792l241 -167h-241v167zM137 593 l243 1v-356h-232q-8 146 -11 355zM1099 856h-239v363h230q6 -92 9 -363zM1099 625h-239v168zM1099 657l-238 169h238v-169zM860 1248v194q107 -17 191 -72q33 -65 35 -122h-226zM860 207h226q-4 -60 -35 -122q-84 -55 -191 -72v194zM148 1248q7 67 35 120q93 69 197 74v-193 zM148 207h232v-194q-123 18 -198 74q-27 50 -34 120zM1100 593q-4 -236 -10 -355h-230v356zM137 855q2 183 9 364h234v-363z" />
<glyph unicode="&#xdc;" d="M734 1577v197h199v-197h-199zM339 1579v195h204v-195h-204zM514 207v-203q-82 5 -111 8v195h111zM538 207h164v-204q-28 -1 -82 -1q-55 0 -82 1v204zM727 207h111v-195q-35 -4 -111 -8v203zM139 825h241v-170zM137 792l241 -167h-241v167zM137 593l243 1v-356h-232 q-8 146 -11 355zM1099 856h-239v363h230q6 -92 9 -363zM1099 625h-239v168zM1099 657l-238 169h238v-169zM860 1248v194q107 -17 191 -72q33 -65 35 -122h-226zM860 207h226q-4 -60 -35 -122q-84 -55 -191 -72v194zM148 1248q7 67 35 120q93 69 197 74v-193zM148 207h232 v-194q-123 18 -198 74q-27 50 -34 120zM1100 593q-4 -236 -10 -355h-230v356zM137 855q2 183 9 364h234v-363z" />
<glyph unicode="&#xdd;" horiz-adv-x="1249" d="M654 1571l-124 118l222 357l165 -118zM524 598h201v-362h-201v362zM524 205h201v-202l-96 -2l-105 2v202zM386 829h112v-198h-112v198zM524 829h201v-198h-201v198zM120 861q3 209 11 355h230v-357zM888 1247v194q109 -17 191 -72q32 -62 35 -121zM131 1248q6 66 35 119 q75 56 195 74v-193h-230zM750 829h112v-198h-112v198zM1129 861l-241 -2v357h230q8 -146 11 -355z" />
<glyph unicode="&#xde;" horiz-adv-x="1217" d="M513 460v-163h-107v163h107zM536 460h158v-163q-54 -2 -79 -2q-23 0 -79 2v163zM718 460h108v-155q-18 -1 -54.5 -4t-53.5 -4v163zM513 996h-107v163h107v-163zM536 996v164q56 2 79 2q25 0 79 -2v-164h-158zM718 996v162l108 -6v-156h-108zM1080 739h-234v233h222 q12 -135 12 -233zM848 996v154q110 -15 185 -57q29 -51 32 -97h-217zM846 460h219q-2 -42 -34 -97q-76 -43 -185 -58v155zM1080 711q-2 -90 -12 -226h-222v226h234zM138 825h239v-170zM137 792l239 -167h-239v167zM136 593l241 1v-356h-230q-8 146 -11 355zM148 1249 q7 68 34 119q93 69 195 74l2 -192zM147 207h230v-194q-108 10 -195 74q-28 53 -35 120zM137 855q2 213 8 364h234l-2 -363z" />
<glyph unicode="&#xdf;" horiz-adv-x="1147" d="M149 183h208v-177q-120 19 -176 66q-26 48 -32 111zM525 187h122v-185q-50 -2 -61 -2t-61 2v185zM670 187h101v-176q-31 -4 -32 -4q-14 1 -38 -1q-13 -1 -31 -2v183zM478 1268h-99v175l99 6v-181zM499 1268v183q50 2 74 2q10 0 74 -2v-183h-148zM669 1268v181q2 0 42 -2 t60 -4v-175h-102zM546 624v200h103v-200h-103zM141 824h216v-171zM138 790l217 -166h-215zM140 592h217v-376h-208q-7 132 -9 376zM1006 854h-217v384h206q11 -156 11 -384zM1006 624h-217v169zM789 1268v171q114 -19 174 -62q29 -65 30 -109h-204zM788 187h205 q-1 -48 -30 -112q-57 -42 -175 -62v174zM149 1268q4 47 32 106q70 58 174 65h2v-171h-208zM670 624v200h98v-200h-98zM1007 592q-1 -176 -12 -376h-207v376h219zM140 854q0 192 8 384h210l-1 -384h-217z" />
<glyph unicode="&#xe0;" horiz-adv-x="1134" d="M524 1287l-263 357l164 118l222 -357zM992 526l-215 134l215 1v-135zM466 166v-164q-15 1 -50 3t-51 3v158h101zM486 166h148v-164q-52 -2 -74 -2t-74 2v164zM657 166h100v-156q-16 -1 -49.5 -4t-50.5 -4v164zM466 999h-101v156q16 1 51 3t50 3v-162zM486 999v164 q52 2 74 2t74 -2v-164h-148zM657 999v162q11 -1 46.5 -3t53.5 -3v-156h-100zM363 500v159h101v-159h-101zM484 500v159h151v-159h-151zM126 659h217v-135zM126 633l217 -133h-217v133zM126 475h217v-285h-207q-6 97 -10 285zM992 684h-215v291h205q10 -113 10 -291zM992 500 h-215v135zM777 999v153q57 -5 94 -16.5t78 -40.5q27 -50 30 -96h-202zM776 166h203q-2 -44 -31 -99q-41 -27 -77.5 -38t-94.5 -19v156zM136 999q3 47 31 95q80 54 178 59v-154h-209zM136 166h207v-157q-110 15 -176 61q-27 48 -31 96zM657 500v159h99v-159h-99zM992 475 q-4 -206 -10 -285h-206v285h216z" />
<glyph unicode="&#xe1;" horiz-adv-x="1134" d="M540 1308l-124 118l222 357l165 -118zM992 526l-215 134l215 1v-135zM466 166v-164q-15 1 -50 3t-51 3v158h101zM486 166h148v-164q-52 -2 -74 -2t-74 2v164zM657 166h100v-156q-16 -1 -49.5 -4t-50.5 -4v164zM466 999h-101v156q16 1 51 3t50 3v-162zM486 999v164 q52 2 74 2t74 -2v-164h-148zM657 999v162q11 -1 46.5 -3t53.5 -3v-156h-100zM363 500v159h101v-159h-101zM484 500v159h151v-159h-151zM126 659h217v-135zM126 633l217 -133h-217v133zM126 475h217v-285h-207q-6 97 -10 285zM992 684h-215v291h205q10 -113 10 -291zM992 500 h-215v135zM777 999v153q57 -5 94 -16.5t78 -40.5q27 -50 30 -96h-202zM776 166h203q-2 -44 -31 -99q-41 -27 -77.5 -38t-94.5 -19v156zM136 999q3 47 31 95q80 54 178 59v-154h-209zM136 166h207v-157q-110 15 -176 61q-27 48 -31 96zM657 500v159h99v-159h-99zM992 475 q-4 -206 -10 -285h-206v285h216z" />
<glyph unicode="&#xe2;" horiz-adv-x="1134" d="M569 1526v190l266 -314l-132 -94zM549 1525l-134 -217l-132 94l266 314v-191zM992 526l-215 134l215 1v-135zM466 166v-164q-15 1 -50 3t-51 3v158h101zM486 166h148v-164q-52 -2 -74 -2t-74 2v164zM657 166h100v-156q-16 -1 -49.5 -4t-50.5 -4v164zM466 999h-101v156 q16 1 51 3t50 3v-162zM486 999v164q52 2 74 2t74 -2v-164h-148zM657 999v162q11 -1 46.5 -3t53.5 -3v-156h-100zM363 500v159h101v-159h-101zM484 500v159h151v-159h-151zM126 659h217v-135zM126 633l217 -133h-217v133zM126 475h217v-285h-207q-6 97 -10 285zM992 684h-215 v291h205q10 -113 10 -291zM992 500h-215v135zM777 999v153q57 -5 94 -16.5t78 -40.5q27 -50 30 -96h-202zM776 166h203q-2 -44 -31 -99q-41 -27 -77.5 -38t-94.5 -19v156zM136 999q3 47 31 95q80 54 178 59v-154h-209zM136 166h207v-157q-110 15 -176 61q-27 48 -31 96z M657 500v159h99v-159h-99zM992 475q-4 -206 -10 -285h-206v285h216z" />
<glyph unicode="&#xe3;" horiz-adv-x="1134" d="M493 1368v171h134v-171h-134zM802 1539h141v-171h-141v171zM175 1538h143v-170h-143v170zM337 1428v171h138v-171h-138zM646 1308v171h136v-171h-136zM992 526l-215 134l215 1v-135zM466 166v-164q-15 1 -50 3t-51 3v158h101zM486 166h148v-164q-52 -2 -74 -2t-74 2v164z M657 166h100v-156q-16 -1 -49.5 -4t-50.5 -4v164zM466 999h-101v156q16 1 51 3t50 3v-162zM486 999v164q52 2 74 2t74 -2v-164h-148zM657 999v162q11 -1 46.5 -3t53.5 -3v-156h-100zM363 500v159h101v-159h-101zM484 500v159h151v-159h-151zM126 659h217v-135zM126 633 l217 -133h-217v133zM126 475h217v-285h-207q-6 97 -10 285zM992 684h-215v291h205q10 -113 10 -291zM992 500h-215v135zM777 999v153q57 -5 94 -16.5t78 -40.5q27 -50 30 -96h-202zM776 166h203q-2 -44 -31 -99q-41 -27 -77.5 -38t-94.5 -19v156zM136 999q3 47 31 95 q80 54 178 59v-154h-209zM136 166h207v-157q-110 15 -176 61q-27 48 -31 96zM657 500v159h99v-159h-99zM992 475q-4 -206 -10 -285h-206v285h216z" />
<glyph unicode="&#xe4;" horiz-adv-x="1134" d="M657 1308v197h199v-197h-199zM262 1310v195h204v-195h-204zM992 526l-215 134l215 1v-135zM466 166v-164q-15 1 -50 3t-51 3v158h101zM486 166h148v-164q-52 -2 -74 -2t-74 2v164zM657 166h100v-156q-16 -1 -49.5 -4t-50.5 -4v164zM466 999h-101v156q16 1 51 3t50 3v-162 zM486 999v164q52 2 74 2t74 -2v-164h-148zM657 999v162q11 -1 46.5 -3t53.5 -3v-156h-100zM363 500v159h101v-159h-101zM484 500v159h151v-159h-151zM126 659h217v-135zM126 633l217 -133h-217v133zM126 475h217v-285h-207q-6 97 -10 285zM992 684h-215v291h205 q10 -113 10 -291zM992 500h-215v135zM777 999v153q57 -5 94 -16.5t78 -40.5q27 -50 30 -96h-202zM776 166h203q-2 -44 -31 -99q-41 -27 -77.5 -38t-94.5 -19v156zM136 999q3 47 31 95q80 54 178 59v-154h-209zM136 166h207v-157q-110 15 -176 61q-27 48 -31 96zM657 500v159 h99v-159h-99zM992 475q-4 -206 -10 -285h-206v285h216z" />
<glyph unicode="&#xe5;" horiz-adv-x="1134" d="M571 1839q155 -5 223 -65q27 -36 31 -67h-254v132zM546 1839v-132h-254q4 31 31 67q68 60 223 65zM571 1308v132h254q-4 -31 -31 -67q-68 -60 -223 -65zM692 1682h133v-217h-133v217zM292 1682h133v-217h-133v217zM546 1308q-155 5 -223 65q-27 36 -31 67h254v-132z M992 526l-215 134l215 1v-135zM466 166v-164q-15 1 -50 3t-51 3v158h101zM486 166h148v-164q-52 -2 -74 -2t-74 2v164zM657 166h100v-156q-16 -1 -49.5 -4t-50.5 -4v164zM466 999h-101v156q16 1 51 3t50 3v-162zM486 999v164q52 2 74 2t74 -2v-164h-148zM657 999v162 q11 -1 46.5 -3t53.5 -3v-156h-100zM363 500v159h101v-159h-101zM484 500v159h151v-159h-151zM126 659h217v-135zM126 633l217 -133h-217v133zM126 475h217v-285h-207q-6 97 -10 285zM992 684h-215v291h205q10 -113 10 -291zM992 500h-215v135zM777 999v153q57 -5 94 -16.5 t78 -40.5q27 -50 30 -96h-202zM776 166h203q-2 -44 -31 -99q-41 -27 -77.5 -38t-94.5 -19v156zM136 999q3 47 31 95q80 54 178 59v-154h-209zM136 166h207v-157q-110 15 -176 61q-27 48 -31 96zM657 500v159h99v-159h-99zM992 475q-4 -206 -10 -285h-206v285h216z" />
<glyph unicode="&#xe6;" horiz-adv-x="1784" d="M1304 999v164q15 -1 50 -3t51 -3v-158h-101zM1283 999h-147v164q50 2 73 2q22 0 74 -2v-164zM1113 999h-101v156q16 1 50 4t51 4v-164zM1304 166h101v-156q-16 -1 -51 -3t-50 -3v162zM1283 166v-164q-52 -2 -74 -2q-23 0 -73 2v164h147zM1113 166v-162q-68 4 -101 6v156 h101zM1407 660v-159h-101v159h101zM1286 660v-159h-152v159h152zM1644 501h-219v135zM1644 527l-219 133h219v-133zM1644 685h-219v290h209q6 -95 10 -290zM777 479h215v-289h-216zM777 660h215v-135zM992 166v-154l-216 -2v156h216zM1634 166q-3 -44 -31 -95 q-82 -54 -179 -59v154h210zM1634 999h-209v156q109 -15 178 -60q28 -51 31 -96zM1113 660v-159h-99v159h99zM466 166v-164q-15 1 -50 3t-51 3v158h101zM486 166h148v-164q-52 -2 -74 -2t-74 2v164zM657 166h100v-156q-16 -1 -49.5 -4t-50.5 -4v164zM466 999h-101v156 q16 1 51 3t50 3v-162zM486 999v164q52 2 74 2t74 -2v-164h-148zM657 999v162q11 -1 46.5 -3t53.5 -3v-156h-100zM363 500v159h101v-159h-101zM484 500v159h151v-159h-151zM126 659h217v-135zM126 633l217 -133h-217v133zM126 475h217v-285h-207q-6 97 -10 285zM992 684h-215 v291h216zM992 500h-215v135zM777 999v154l216 2v-156h-216zM136 999q3 47 31 95q80 54 178 59v-154h-209zM136 166h207v-156q-109 15 -176 60q-27 48 -31 96zM657 500v159h99v-159h-99z" />
<glyph unicode="&#xe7;" horiz-adv-x="1104" d="M472 -192v-192l-138 8v184h138zM492 -192h146v-194h-73h-73v194zM491 -162v131h149v-131h-149zM471 166v-164q-15 1 -50 3t-51 3v158h101zM491 166h147v-164q-50 -2 -74 -2q-21 0 -73 2v164zM661 166h101v-156q-16 -1 -50 -4t-51 -4v164zM471 999h-101v156q16 1 51 3 t50 3v-162zM491 999v164q52 2 73 2q24 0 74 -2v-164h-147zM661 999v162l51 -3t50 -3v-156h-101zM133 659h216v-135zM131 633l216 -133h-216v133zM131 475h218v-285h-209q-5 75 -9 285zM782 999v154q99 -15 171 -57q32 -59 33 -97h-204zM781 166h205q-1 -40 -33 -98 q-73 -43 -172 -58v156zM142 999q5 54 29 95q82 54 178 59v-154h-207zM140 166h208v-156q-108 15 -177 60q-27 48 -31 96zM131 684q0 57 3.5 162t3.5 129h211v-291h-218z" />
<glyph unicode="&#xe8;" horiz-adv-x="1136" d="M558 1308l-263 357l164 118l222 -357zM130 639l215 -134l-215 -1v135zM656 999v164q16 -1 52 -3t51 -3v-158h-103zM635 999h-147v164q52 2 74 2q23 0 73 -2v-164zM465 999h-99v156q17 1 50 4t49 4v-164zM656 166h103v-156q-15 -1 -51 -3t-52 -3v162zM635 166v-164 q-50 -2 -73 -2q-22 0 -74 2v164h147zM465 166v-162l-99 6v156h99zM760 665v-159h-102v159h102zM639 665v-159h-153v159h153zM996 506h-217v135zM996 532l-217 133h217v-133zM996 690h-217v285h207q6 -79 10 -285zM130 481h215v-291h-205q-10 112 -10 291zM130 665h215v-135z M345 166v-154q-100 15 -172 57q-27 52 -28 97h200zM346 999h-201q1 45 30 98q74 44 171 58v-156zM986 166q-2 -45 -31 -95q-76 -51 -176 -59l-2 -2v156h209zM986 999h-207v156q109 -15 176 -60q29 -50 31 -96zM465 665v-159h-98v159h98zM130 690q4 188 10 285h206v-285h-216 z" />
<glyph unicode="&#xe9;" horiz-adv-x="1136" d="M548 1308l-124 118l222 357l165 -118zM130 639l215 -134l-215 -1v135zM656 999v164q16 -1 52 -3t51 -3v-158h-103zM635 999h-147v164q52 2 74 2q23 0 73 -2v-164zM465 999h-99v156q17 1 50 4t49 4v-164zM656 166h103v-156q-15 -1 -51 -3t-52 -3v162zM635 166v-164 q-50 -2 -73 -2q-22 0 -74 2v164h147zM465 166v-162l-99 6v156h99zM760 665v-159h-102v159h102zM639 665v-159h-153v159h153zM996 506h-217v135zM996 532l-217 133h217v-133zM996 690h-217v285h207q6 -79 10 -285zM130 481h215v-291h-205q-10 112 -10 291zM130 665h215v-135z M345 166v-154q-100 15 -172 57q-27 52 -28 97h200zM346 999h-201q1 45 30 98q74 44 171 58v-156zM986 166q-2 -45 -31 -95q-76 -51 -176 -59l-2 -2v156h209zM986 999h-207v156q109 -15 176 -60q29 -50 31 -96zM465 665v-159h-98v159h98zM130 690q4 188 10 285h206v-285h-216 z" />
<glyph unicode="&#xea;" horiz-adv-x="1136" d="M578 1526v190l266 -314l-132 -94zM558 1525l-134 -217l-132 94l266 314v-191zM130 639l215 -134l-215 -1v135zM656 999v164q16 -1 52 -3t51 -3v-158h-103zM635 999h-147v164q52 2 74 2q23 0 73 -2v-164zM465 999h-99v156q17 1 50 4t49 4v-164zM656 166h103v-156 q-15 -1 -51 -3t-52 -3v162zM635 166v-164q-50 -2 -73 -2q-22 0 -74 2v164h147zM465 166v-162l-99 6v156h99zM760 665v-159h-102v159h102zM639 665v-159h-153v159h153zM996 506h-217v135zM996 532l-217 133h217v-133zM996 690h-217v285h207q6 -79 10 -285zM130 481h215v-291 h-205q-10 112 -10 291zM130 665h215v-135zM345 166v-154q-100 15 -172 57q-27 52 -28 97h200zM346 999h-201q1 45 30 98q74 44 171 58v-156zM986 166q-2 -45 -31 -95q-76 -51 -176 -59l-2 -2v156h209zM986 999h-207v156q109 -15 176 -60q29 -50 31 -96zM465 665v-159h-98 v159h98zM130 690q4 188 10 285h206v-285h-216z" />
<glyph unicode="&#xeb;" horiz-adv-x="1136" d="M712 1308v197h199v-197h-199zM217 1310v195h204v-195h-204zM130 639l215 -134l-215 -1v135zM656 999v164q16 -1 52 -3t51 -3v-158h-103zM635 999h-147v164q52 2 74 2q23 0 73 -2v-164zM465 999h-99v156q17 1 50 4t49 4v-164zM656 166h103v-156q-15 -1 -51 -3t-52 -3v162z M635 166v-164q-50 -2 -73 -2q-22 0 -74 2v164h147zM465 166v-162l-99 6v156h99zM760 665v-159h-102v159h102zM639 665v-159h-153v159h153zM996 506h-217v135zM996 532l-217 133h217v-133zM996 690h-217v285h207q6 -79 10 -285zM130 481h215v-291h-205q-10 112 -10 291z M130 665h215v-135zM345 166v-154q-100 15 -172 57q-27 52 -28 97h200zM346 999h-201q1 45 30 98q74 44 171 58v-156zM986 166q-2 -45 -31 -95q-76 -51 -176 -59l-2 -2v156h209zM986 999h-207v156q109 -15 176 -60q29 -50 31 -96zM465 665v-159h-98v159h98zM130 690 q4 188 10 285h206v-285h-216z" />
<glyph unicode="&#xec;" horiz-adv-x="498" d="M247 1292l-263 357l164 118l222 -357zM134 669h218v-137zM132 642l213 -135h-213v135zM132 482h220v-289h-211q-5 75 -9 289zM141 1014q3 48 31 96q81 55 180 60v-156h-211zM141 168h211v-158q-112 15 -180 61q-27 48 -31 97zM132 694q0 1 6 295h214v-295h-220z" />
<glyph unicode="&#xed;" horiz-adv-x="498" d="M274 1292l-124 118l222 357l165 -118zM134 669h218v-137zM132 642l213 -135h-213v135zM132 482h220v-289h-211q-5 75 -9 289zM141 1014q3 48 31 96q81 55 180 60v-156h-211zM141 168h211v-158q-112 15 -180 61q-27 48 -31 97zM132 694q0 1 6 295h214v-295h-220z" />
<glyph unicode="&#xee;" horiz-adv-x="498" d="M273 1510v190l266 -314l-132 -94zM253 1509l-134 -217l-132 94l266 314v-191zM134 669h218v-137zM132 642l213 -135h-213v135zM132 482h220v-289h-211q-5 75 -9 289zM141 1014q3 48 31 96q81 55 180 60v-156h-211zM141 168h211v-158q-112 15 -180 61q-27 48 -31 97z M132 694q0 1 6 295h214v-295h-220z" />
<glyph unicode="&#xef;" horiz-adv-x="724" d="M461 1332v197h199v-197h-199zM67 1334v195h202v-195h-202zM257 659h215v-135zM256 633l210 -133h-210v133zM256 475h216v-285h-207q-7 113 -9 285zM265 999q4 49 30 95q80 54 177 59v-154h-207zM265 166h207v-156q-110 15 -177 60q-26 46 -30 96zM256 684l6 291h210v-291 h-216z" />
<glyph unicode="&#xf0;" horiz-adv-x="1137" d="M603 1432l-103 154l156 155l102 -155zM296 1379l187 188l84 -132zM308 1352l274 57l-186 -185zM962 1790l-188 -187l-84 131zM946 1817l-272 -55l186 185zM469 999h-100v158q13 1 48 3t52 3v-164zM490 999v164q52 2 73 2q24 0 74 -2v-164h-147zM659 999v164q16 -1 51 -4 t51 -4v-156h-102zM469 166v-162q-17 1 -52 3t-48 3v156h100zM490 166h147v-164q-50 -2 -74 -2q-21 0 -73 2v164zM659 166h102v-156q-16 -1 -51 -3t-51 -3v162zM132 506l214 135v-135h-214zM130 532v133h215zM130 690q4 210 9 285h207v-285h-216zM995 481q0 -179 -10 -291 h-205v291h215zM995 665l-215 -135v135h215zM995 639v-135h-215zM780 166h203q-2 -45 -31 -97q-72 -42 -172 -57v154zM139 166h208v-156l-1 2q-95 5 -177 59q-26 46 -30 95zM139 999q4 50 30 96q69 45 177 60v-156h-207zM997 690h-217v285h205q9 -115 12 -285zM130 481h216 v-291h-210zM483 1616l-94 141q36 27 72 43q35 16 93 33q56 -28 81 -64zM763 1562l-2 -367l-143 214zM780 1516l197 -322h-197v322zM780 999v165h197l8 -165h-205z" />
<glyph unicode="&#xf1;" horiz-adv-x="1141" d="M515 1387v171h134v-171h-134zM824 1558h141v-171h-141v171zM197 1557h143v-170h-143v170zM359 1447v171h138v-171h-138zM668 1327v171h136v-171h-136zM140 999l2 157h208v-157h-210zM472 999h-99v156q14 1 48 3l51 3v-162zM494 999v164q52 2 73 2q24 0 74 -2v-164h-147z M663 999v162q66 -4 100 -6v-156h-100zM134 659h216v-135zM134 633l215 -133h-215v133zM134 475h216v-285h-207q-5 75 -9 285zM999 684h-216v291h206q10 -113 10 -291zM997 500h-214v135zM999 526l-215 135h215v-135zM783 999v154q99 -15 172 -57q30 -58 32 -97h-204z M783 166h204q-2 -40 -32 -98q-76 -44 -172 -58v156zM143 166h207v-156q-108 15 -177 60q-26 46 -30 96zM999 475q-2 -154 -10 -285h-206v285h216zM134 684l6 291h210v-291h-216z" />
<glyph unicode="&#xf2;" horiz-adv-x="1139" d="M577 1308l-263 357l164 118l222 -357zM141 999q4 49 30 95q82 54 178 59v-154h-208zM471 166v-164q-17 1 -52 3t-48 3v158h100zM492 166h147v-164q-50 -2 -74 -2q-21 0 -73 2v164zM661 166h102v-156q-16 -1 -51 -4t-51 -4v164zM471 999h-100v156q13 1 48 3t52 3v-162z M492 999v164q52 2 73 2q24 0 74 -2v-164h-147zM661 999v162q16 -1 51 -3t51 -3v-156h-102zM134 659h215v-135zM132 633l215 -133h-215v133zM132 475h217v-285h-208q-5 75 -9 285zM997 684h-216v291h206q10 -113 10 -291zM997 500h-216v135zM997 526l-215 135h215v-135z M782 999v154q100 -15 172 -57q29 -52 31 -97h-203zM781 166h204q-2 -40 -32 -98q-76 -44 -172 -58v156zM141 166h207v-156q-108 15 -177 60q-26 46 -30 96zM997 475q-2 -154 -10 -285h-206v285h216zM132 684l6 291h211v-291h-217z" />
<glyph unicode="&#xf3;" horiz-adv-x="1139" d="M556 1308l-124 118l222 357l165 -118zM141 999q4 49 30 95q82 54 178 59v-154h-208zM471 166v-164q-17 1 -52 3t-48 3v158h100zM492 166h147v-164q-50 -2 -74 -2q-21 0 -73 2v164zM661 166h102v-156q-16 -1 -51 -4t-51 -4v164zM471 999h-100v156q13 1 48 3t52 3v-162z M492 999v164q52 2 73 2q24 0 74 -2v-164h-147zM661 999v162q16 -1 51 -3t51 -3v-156h-102zM134 659h215v-135zM132 633l215 -133h-215v133zM132 475h217v-285h-208q-5 75 -9 285zM997 684h-216v291h206q10 -113 10 -291zM997 500h-216v135zM997 526l-215 135h215v-135z M782 999v154q100 -15 172 -57q29 -52 31 -97h-203zM781 166h204q-2 -40 -32 -98q-76 -44 -172 -58v156zM141 166h207v-156q-108 15 -177 60q-26 46 -30 96zM997 475q-2 -154 -10 -285h-206v285h216zM132 684l6 291h211v-291h-217z" />
<glyph unicode="&#xf4;" horiz-adv-x="1139" d="M574 1526v190l266 -314l-132 -94zM554 1525l-134 -217l-132 94l266 314v-191zM141 999q4 49 30 95q82 54 178 59v-154h-208zM471 166v-164q-17 1 -52 3t-48 3v158h100zM492 166h147v-164q-50 -2 -74 -2q-21 0 -73 2v164zM661 166h102v-156q-16 -1 -51 -4t-51 -4v164z M471 999h-100v156q13 1 48 3t52 3v-162zM492 999v164q52 2 73 2q24 0 74 -2v-164h-147zM661 999v162q16 -1 51 -3t51 -3v-156h-102zM134 659h215v-135zM132 633l215 -133h-215v133zM132 475h217v-285h-208q-5 75 -9 285zM997 684h-216v291h206q10 -113 10 -291zM997 500 h-216v135zM997 526l-215 135h215v-135zM782 999v154q100 -15 172 -57q29 -52 31 -97h-203zM781 166h204q-2 -40 -32 -98q-76 -44 -172 -58v156zM141 166h207v-156q-108 15 -177 60q-26 46 -30 96zM997 475q-2 -154 -10 -285h-206v285h216zM132 684l6 291h211v-291h-217z" />
<glyph unicode="&#xf5;" horiz-adv-x="1139" d="M499 1368v171h134v-171h-134zM808 1539h141v-171h-141v171zM181 1538h143v-170h-143v170zM343 1428v171h138v-171h-138zM652 1308v171h136v-171h-136zM141 999q4 49 30 95q82 54 178 59v-154h-208zM471 166v-164q-17 1 -52 3t-48 3v158h100zM492 166h147v-164 q-50 -2 -74 -2q-21 0 -73 2v164zM661 166h102v-156q-16 -1 -51 -4t-51 -4v164zM471 999h-100v156q13 1 48 3t52 3v-162zM492 999v164q52 2 73 2q24 0 74 -2v-164h-147zM661 999v162q16 -1 51 -3t51 -3v-156h-102zM134 659h215v-135zM132 633l215 -133h-215v133zM132 475h217 v-285h-208q-5 75 -9 285zM997 684h-216v291h206q10 -113 10 -291zM997 500h-216v135zM997 526l-215 135h215v-135zM782 999v154q100 -15 172 -57q29 -52 31 -97h-203zM781 166h204q-2 -40 -32 -98q-76 -44 -172 -58v156zM141 166h207v-156q-108 15 -177 60q-26 46 -30 96z M997 475q-2 -154 -10 -285h-206v285h216zM132 684l6 291h211v-291h-217z" />
<glyph unicode="&#xf6;" horiz-adv-x="1139" d="M713 1308v197h199v-197h-199zM218 1310v195h204v-195h-204zM141 999q4 49 30 95q82 54 178 59v-154h-208zM471 166v-164q-17 1 -52 3t-48 3v158h100zM492 166h147v-164q-50 -2 -74 -2q-21 0 -73 2v164zM661 166h102v-156q-16 -1 -51 -4t-51 -4v164zM471 999h-100v156 q13 1 48 3t52 3v-162zM492 999v164q52 2 73 2q24 0 74 -2v-164h-147zM661 999v162q16 -1 51 -3t51 -3v-156h-102zM134 659h215v-135zM132 633l215 -133h-215v133zM132 475h217v-285h-208q-5 75 -9 285zM997 684h-216v291h206q10 -113 10 -291zM997 500h-216v135zM997 526 l-215 135h215v-135zM782 999v154q100 -15 172 -57q29 -52 31 -97h-203zM781 166h204q-2 -40 -32 -98q-76 -44 -172 -58v156zM141 166h207v-156q-108 15 -177 60q-26 46 -30 96zM997 475q-2 -154 -10 -285h-206v285h216zM132 684l6 291h211v-291h-217z" />
<glyph unicode="&#xf7;" horiz-adv-x="1142" d="M483 625v201h155v-201h-155zM475 221v221h171v-221h-171zM358 625v201h104v-201h-104zM475 1009v221h171v-221h-171zM113 825h223v-170zM110 792l224 -167h-222zM1007 625h-223v168zM1007 657l-222 169h222v-169zM659 625v201h103v-201h-103z" />
<glyph unicode="&#xf8;" horiz-adv-x="1142" d="M471 475v-285h-100v103l78 182h22zM491 235v240h103zM491 575l36 85h113v-76l-36 -84h-113v75zM640 924v-239l-102 -1zM662 976h101v-104l-80 -187h-21v291zM472 166v-163q-90 6 -101 7v156h101zM492 166h148v-164h-73h-75v164zM663 166h101v-156q-14 -2 -101 -7v163z M471 999h-100v157q46 4 100 6v-163zM491 999v164q26 1 75 1t74 -1v-164h-149zM662 999v163q36 -1 101 -7v-156h-101zM133 660h217v-136zM131 634l217 -134h-217v134zM131 475h219v-285h-208q-7 96 -11 285zM999 685h-216v291h207q9 -102 9 -291zM999 500h-216v135zM999 526 l-215 134h215v-134zM783 998v155q102 -13 173 -57q29 -56 31 -98h-204zM783 166h203q-2 -44 -30 -98q-67 -42 -173 -58v156zM142 998q5 52 30 96q82 55 176 59l1 1h1v-155zM142 166h206v-156q-111 16 -176 59q-25 41 -30 97zM1000 475q-1 -123 -10 -285h-208l1 285h217z M131 684q1 128 8 292h211v-292h-219z" />
<glyph unicode="&#xf9;" horiz-adv-x="1139" d="M561 1308l-263 357l164 118l222 -357zM471 166v-164q-17 1 -52 3t-48 3v158h100zM492 166h147v-164q-50 -2 -74 -2q-21 0 -73 2v164zM661 166h102v-156q-16 -1 -51 -4t-51 -4v164zM134 659h215v-135zM132 633l215 -133h-215v133zM132 475h217v-285h-208q-5 75 -9 285z M997 684h-216v291h206q10 -113 10 -291zM997 500h-216v135zM997 526l-215 135h215v-135zM782 999v154q100 -15 172 -57q29 -52 31 -97h-203zM781 166h204q-2 -40 -32 -98q-76 -44 -172 -58v156zM141 999q4 49 30 95q82 54 178 59v-154h-208zM141 166h207v-156 q-108 15 -177 60q-26 46 -30 96zM997 475q-2 -154 -10 -285h-206v285h216zM132 684l6 291h211v-291h-217z" />
<glyph unicode="&#xfa;" horiz-adv-x="1139" d="M545 1308l-124 118l222 357l165 -118zM471 166v-164q-17 1 -52 3t-48 3v158h100zM492 166h147v-164q-50 -2 -74 -2q-21 0 -73 2v164zM661 166h102v-156q-16 -1 -51 -4t-51 -4v164zM134 659h215v-135zM132 633l215 -133h-215v133zM132 475h217v-285h-208q-5 75 -9 285z M997 684h-216v291h206q10 -113 10 -291zM997 500h-216v135zM997 526l-215 135h215v-135zM782 999v154q100 -15 172 -57q29 -52 31 -97h-203zM781 166h204q-2 -40 -32 -98q-76 -44 -172 -58v156zM141 999q4 49 30 95q82 54 178 59v-154h-208zM141 166h207v-156 q-108 15 -177 60q-26 46 -30 96zM997 475q-2 -154 -10 -285h-206v285h216zM132 684l6 291h211v-291h-217z" />
<glyph unicode="&#xfb;" horiz-adv-x="1139" d="M548 1526v190l266 -314l-132 -94zM528 1525l-134 -217l-132 94l266 314v-191zM471 166v-164q-17 1 -52 3t-48 3v158h100zM492 166h147v-164q-50 -2 -74 -2q-21 0 -73 2v164zM661 166h102v-156q-16 -1 -51 -4t-51 -4v164zM134 659h215v-135zM132 633l215 -133h-215v133z M132 475h217v-285h-208q-5 75 -9 285zM997 684h-216v291h206q10 -113 10 -291zM997 500h-216v135zM997 526l-215 135h215v-135zM782 999v154q100 -15 172 -57q29 -52 31 -97h-203zM781 166h204q-2 -40 -32 -98q-76 -44 -172 -58v156zM141 999q4 49 30 95q82 54 178 59v-154 h-208zM141 166h207v-156q-108 15 -177 60q-26 46 -30 96zM997 475q-2 -154 -10 -285h-206v285h216zM132 684l6 291h211v-291h-217z" />
<glyph unicode="&#xfc;" horiz-adv-x="1139" d="M713 1308v197h199v-197h-199zM218 1310v195h204v-195h-204zM471 166v-164q-17 1 -52 3t-48 3v158h100zM492 166h147v-164q-50 -2 -74 -2q-21 0 -73 2v164zM661 166h102v-156q-16 -1 -51 -4t-51 -4v164zM134 659h215v-135zM132 633l215 -133h-215v133zM132 475h217v-285 h-208q-5 75 -9 285zM997 684h-216v291h206q10 -113 10 -291zM997 500h-216v135zM997 526l-215 135h215v-135zM782 999v154q100 -15 172 -57q29 -52 31 -97h-203zM781 166h204q-2 -40 -32 -98q-76 -44 -172 -58v156zM141 999q4 49 30 95q82 54 178 59v-154h-208zM141 166h207 v-156q-108 15 -177 60q-26 46 -30 96zM997 475q-2 -154 -10 -285h-206v285h216zM132 684l6 291h211v-291h-217z" />
<glyph unicode="&#xfd;" horiz-adv-x="1142" d="M585 1287l-124 118l222 357l165 -118zM987 -160h-205v101zM987 -129l-205 100h205v-100zM142 999q4 49 30 95q82 54 178 59v-154h-208zM471 166v-164q-17 1 -52 3t-48 3v158h100zM492 166h147v-164q-50 -2 -74 -2q-21 0 -73 2v164zM661 166h102v-156q-16 -1 -51 -4 t-51 -4v164zM134 659h214v-135zM132 633l215 -133h-215v133zM132 475h216v-285h-207q-5 75 -9 285zM997 684h-215v291h205q10 -113 10 -291zM997 500h-215v135zM997 526l-215 135h215v-135zM782 999v154q100 -15 172 -57q29 -52 31 -97h-203zM141 166h207v-156 q-108 15 -177 60q-26 46 -30 96zM997 475q-2 -154 -10 -285h-205v285h215zM132 684l6 291h210v-291h-216zM479 -190v-191q-87 6 -98 7v184h98zM500 -190h146v-193q-25 -1 -74 -1l-72 1v193zM667 -190h98v-184q-14 -2 -98 -7v191zM782 -190h205q-1 -53 -30 -114 q-77 -54 -175 -70v184zM156 -190h204v-184q-110 17 -173 70q-26 48 -31 114zM782 166h205v-166h-205v166z" />
<glyph unicode="&#xfe;" horiz-adv-x="1104" d="M146 619v201h167v-201h-167zM148 -31h164v-204q-54 -2 -83 -2q-27 0 -81 2v204zM146 0v357h167v-357h-167zM147 1243v205q27 1 82 1t82 -1v-204zM147 851v361h167v-361h-167zM146 388v200h167v-200h-167zM436 166v-164q-15 1 -50 3t-51 3v158h101zM456 166h148v-164 q-50 -2 -74 -2q-22 0 -74 2v164zM626 166h101v-156q-16 -1 -50 -4t-51 -4v164zM436 999h-101v156q16 1 51 3t50 3v-162zM456 999v164q52 2 74 2q24 0 74 -2v-164h-148zM626 999v162l51 -3t50 -3v-156h-101zM962 684h-217v291h206q11 -124 11 -291zM962 500h-217v135z M962 526l-215 135h215v-135zM747 999v154q99 -15 172 -57q27 -50 30 -97h-202zM745 166h204q-2 -40 -32 -98q-70 -43 -172 -58v156zM962 475q-2 -160 -11 -285h-206v285h217z" />
<glyph unicode="&#xff;" horiz-adv-x="1142" d="M687 1287v197h199v-197h-199zM292 1289v195h204v-195h-204zM993 -160h-205v101zM993 -129l-205 100h205v-100zM148 999q4 49 30 95q82 54 178 59v-154h-208zM477 166v-164q-17 1 -52 3t-48 3v158h100zM498 166h147v-164q-50 -2 -74 -2q-21 0 -73 2v164zM667 166h102v-156 q-16 -1 -51 -4t-51 -4v164zM140 659h214v-135zM138 633l215 -133h-215v133zM138 475h216v-285h-207q-5 75 -9 285zM1003 684h-215v291h205q10 -113 10 -291zM1003 500h-215v135zM1003 526l-215 135h215v-135zM788 999v154q100 -15 172 -57q29 -52 31 -97h-203zM147 166h207 v-156q-108 15 -177 60q-26 46 -30 96zM1003 475q-2 -154 -10 -285h-205v285h215zM138 684l6 291h210v-291h-216zM485 -190v-191q-87 6 -98 7v184h98zM506 -190h146v-193q-25 -1 -74 -1l-72 1v193zM673 -190h98v-184q-14 -2 -98 -7v191zM788 -190h205q-1 -53 -30 -114 q-77 -54 -175 -70v184zM162 -190h204v-184q-110 17 -173 70q-26 48 -31 114zM788 166h205v-166h-205v166z" />
<glyph unicode="&#x131;" horiz-adv-x="498" d="M134 669h218v-137zM132 642l213 -135h-213v135zM132 482h220v-289h-211q-5 75 -9 289zM141 1014q3 48 31 96q81 55 180 60v-156h-211zM141 168h211v-158q-112 15 -180 61q-27 48 -31 97zM132 694q0 1 6 295h214v-295h-220z" />
<glyph unicode="&#x152;" horiz-adv-x="1925" d="M860 207h247v-194h-247v194zM860 593h247v-355h-247v355zM860 1219h249v-363h-249v363zM860 1248v194h249v-194h-249zM1243 207v-203q-82 5 -111 8v195h111zM1267 207h164v-204q-28 -1 -82 -1q-55 0 -82 1v204zM1456 207h111v-195q-35 -4 -111 -8v203zM1243 1249h-111 v196q31 4 111 8v-204zM1266 1249v205q28 1 82 1q55 0 83 -1v-205h-165zM1455 1249v204q57 -3 111 -9v-195h-111zM1130 625v201h112v-201h-112zM1265 625v201h167v-201h-167zM867 826h242v-171zM1589 1249v193q107 -17 191 -72q33 -65 35 -121h-226zM1588 207h227 q-4 -60 -35 -122q-81 -54 -192 -72v194zM1455 625v201h110v-201h-110zM514 207v-203q-82 5 -111 8v195h111zM538 207h164v-204q-28 -1 -82 -1q-55 0 -82 1v204zM727 207h111v-195q-35 -4 -111 -8v203zM514 1249h-111v196q31 4 111 8v-204zM537 1249v205q28 1 82 1 q55 0 83 -1v-205h-165zM726 1249v204q57 -3 111 -9v-195h-111zM139 825h241v-170zM137 792l241 -167h-241v167zM137 593l243 1v-356h-232q-8 146 -11 355zM1099 625h-239v168zM148 1248q7 67 35 120q93 69 195 74l2 -193zM148 207h230v-194q-121 18 -196 74q-27 50 -34 120z M137 855q2 183 9 364h234v-363z" />
<glyph unicode="&#x153;" horiz-adv-x="1786" d="M781 166h214v-154h-214v154zM780 481h215v-291h-215v291zM781 975h215v-285h-215v285zM782 1153l214 2v-156h-214v154zM780 639l215 -134l-215 -1v135zM1306 999v164q16 -1 52 -3t51 -3v-158h-103zM1285 999h-147v164q52 2 74 2q23 0 73 -2v-164zM1115 999h-99v156 q17 1 50 4t49 4v-164zM1306 166h103v-156q-15 -1 -51 -3t-52 -3v162zM1285 166v-164q-50 -2 -73 -2q-22 0 -74 2v164h147zM1115 166v-162l-99 6v156h99zM1410 665v-159h-102v159h102zM1289 665v-159h-153v159h153zM1646 506h-217v135zM1646 532l-217 133h217v-133zM1646 690 h-217v285h207q6 -79 10 -285zM780 665h215v-135zM1636 166q-2 -45 -31 -95q-76 -51 -176 -59l-2 -2v156h209zM1636 999h-207v156q109 -15 176 -60q29 -50 31 -96zM1115 665v-159h-98v159h98zM141 999q4 49 30 95q82 54 178 59v-154h-208zM471 166v-164q-17 1 -52 3t-48 3 v158h100zM492 166h147v-164q-50 -2 -74 -2q-21 0 -73 2v164zM661 166h102v-156q-16 -1 -51 -4t-51 -4v164zM471 999h-100v156q13 1 48 3t52 3v-162zM492 999v164q52 2 73 2q24 0 74 -2v-164h-147zM661 999v162q16 -1 51 -3t51 -3v-156h-102zM134 659h215v-135zM132 633 l215 -133h-215v133zM132 475h217v-285h-208q-5 75 -9 285zM141 166h207v-156q-108 15 -177 60q-26 46 -30 96zM132 684l6 291h211v-291h-217z" />
<glyph unicode="&#x178;" horiz-adv-x="1249" d="M748 1577v197h199v-197h-199zM353 1579v195h204v-195h-204zM524 598h201v-362h-201v362zM524 205h201v-202l-96 -2l-105 2v202zM386 829h112v-198h-112v198zM524 829h201v-198h-201v198zM120 861q3 209 11 355h230v-357zM888 1247v194q109 -17 191 -72q32 -62 35 -121z M131 1248q6 66 35 119q75 56 195 74v-193h-230zM750 829h112v-198h-112v198zM1129 861l-241 -2v357h230q8 -146 11 -355z" />
<glyph unicode="&#x2c6;" horiz-adv-x="727" d="M372 1368v190l266 -314l-132 -94zM352 1367l-134 -217l-132 94l266 314v-191z" />
<glyph unicode="&#x2dc;" horiz-adv-x="972" d="M419 1433v171h134v-171h-134zM728 1604h141v-171h-141v171zM101 1603h143v-170h-143v170zM263 1493v171h138v-171h-138zM572 1373v171h136v-171h-136z" />
<glyph unicode="&#x300;" horiz-adv-x="562" d="M337 1307l-263 357l164 118l222 -357z" />
<glyph unicode="&#x301;" horiz-adv-x="557" d="M222 1307l-124 118l222 357l165 -118z" />
<glyph unicode="&#x302;" horiz-adv-x="727" d="M372 1368v190l266 -314l-132 -94zM352 1367l-134 -217l-132 94l266 314v-191z" />
<glyph unicode="&#x303;" horiz-adv-x="972" d="M419 1433v171h134v-171h-134zM728 1604h141v-171h-141v171zM101 1603h143v-170h-143v170zM263 1493v171h138v-171h-138zM572 1373v171h136v-171h-136z" />
<glyph unicode="&#x308;" horiz-adv-x="834" d="M563 1332v197h199v-197h-199zM68 1334v195h204v-195h-204z" />
<glyph unicode="&#x30a;" horiz-adv-x="764" d="M391 1584q155 -5 223 -65q27 -36 31 -67h-254v132zM366 1584v-132h-254q4 31 31 67q68 60 223 65zM391 1053v132h254q-4 -31 -31 -67q-68 -60 -223 -65zM512 1427h133v-217h-133v217zM112 1427h133v-217h-133v217zM366 1053q-155 5 -223 65q-27 36 -31 67h254v-132z" />
<glyph unicode="&#x2000;" horiz-adv-x="1047" />
<glyph unicode="&#x2001;" horiz-adv-x="2095" />
<glyph unicode="&#x2002;" horiz-adv-x="1047" />
<glyph unicode="&#x2003;" horiz-adv-x="2095" />
<glyph unicode="&#x2004;" horiz-adv-x="698" />
<glyph unicode="&#x2005;" horiz-adv-x="523" />
<glyph unicode="&#x2006;" horiz-adv-x="349" />
<glyph unicode="&#x2007;" horiz-adv-x="349" />
<glyph unicode="&#x2008;" horiz-adv-x="261" />
<glyph unicode="&#x2009;" horiz-adv-x="419" />
<glyph unicode="&#x200a;" horiz-adv-x="116" />
<glyph unicode="&#x2010;" horiz-adv-x="1098" d="M453 625v201h196v-201h-196zM129 826h296v-170zM125 793l297 -167h-295zM971 625h-295v168zM972 657l-294 169h294v-169z" />
<glyph unicode="&#x2011;" horiz-adv-x="1098" d="M453 625v201h196v-201h-196zM129 826h296v-170zM125 793l297 -167h-295zM971 625h-295v168zM972 657l-294 169h294v-169z" />
<glyph unicode="&#x2012;" horiz-adv-x="1098" d="M453 625v201h196v-201h-196zM129 826h296v-170zM125 793l297 -167h-295zM971 625h-295v168zM972 657l-294 169h294v-169z" />
<glyph unicode="&#x2013;" horiz-adv-x="1225" d="M502 625v201h226v-201h-226zM130 826h340v-170zM125 793l342 -167h-340zM1098 625h-339v168zM1099 657l-338 169h338v-169z" />
<glyph unicode="&#x2014;" horiz-adv-x="2060" d="M453 826zM1415 625v201h196v-201h-196zM1051 826h336v-170zM1047 793l337 -167h-335zM1933 625h-295v168zM1934 657l-294 169h294v-169zM453 625v201h196v-201h-196zM129 826h296v-170zM125 793l297 -167h-295zM1011 625h-335v168zM1012 657l-334 169h334v-169z" />
<glyph unicode="&#x2018;" horiz-adv-x="409" d="M128 1282l174 -22l-1 -231l-194 33q14 171 21 220zM301 1282l-170 21q16 124 45 164q70 34 126 35z" />
<glyph unicode="&#x2019;" horiz-adv-x="409" d="M281 1249l-174 21l1 232l194 -33q-14 -171 -21 -220zM108 1248l170 -20q-16 -125 -45 -164q-70 -34 -126 -35z" />
<glyph unicode="&#x201a;" horiz-adv-x="494" d="M324 -19l-174 21l1 232l193 -33q-14 -171 -20 -220zM150 -20l170 -21q-16 -124 -44 -163q-71 -35 -126 -35v219z" />
<glyph unicode="&#x201c;" horiz-adv-x="652" d="M87 1265l174 -22l-1 -231l-194 32q14 172 21 221zM260 1265l-170 21q16 124 45 164q70 34 126 35zM412 1265l174 -22l-1 -231l-194 32q14 172 21 221zM585 1265l-170 21q16 124 45 164q70 34 126 35z" />
<glyph unicode="&#x201d;" horiz-adv-x="652" d="M565 1232l-174 21l1 232l194 -33q-14 -171 -21 -220zM392 1231l170 -21q-16 -124 -45 -163q-70 -35 -126 -35zM240 1232l-174 21l1 232l194 -33q-14 -171 -21 -220zM67 1231l170 -21q-16 -124 -45 -163q-70 -35 -126 -35z" />
<glyph unicode="&#x201e;" horiz-adv-x="652" d="M565 0l-174 21l1 232l194 -33q-14 -171 -21 -220zM392 -1l170 -21q-16 -124 -45 -163q-70 -35 -126 -35zM240 0l-174 21l1 232l194 -33q-14 -171 -21 -220zM67 -1l170 -21q-16 -124 -45 -163q-70 -35 -126 -35z" />
<glyph unicode="&#x2022;" horiz-adv-x="641" d="M512 773h-382l-2 387h372q12 -310 12 -387z" />
<glyph unicode="&#x2026;" horiz-adv-x="1397" d="M1284 0h-258l-2 261h252q8 -196 8 -261zM834 0h-258l-2 261h252q8 -196 8 -261zM384 0h-258l-2 261h252q8 -196 8 -261z" />
<glyph unicode="&#x202f;" horiz-adv-x="419" />
<glyph unicode="&#x2039;" horiz-adv-x="866" d="M245 629h-145v125l260 239h175v-116zM393 1024l142 131v-131h-142zM558 1024v152l37 34q61 -16 85.5 -26t69.5 -40q13 -26 26 -61l-69 -59h-149zM558 993h114l-114 -97v97zM245 599l289 -247v-116h-176l-258 239v124h145zM392 205h142v-131zM558 205h149l68 -59 q-16 -42 -26 -62q-32 -21 -55 -32t-38.5 -16t-61.5 -17l-36 33v153zM558 236v96l113 -96h-113z" />
<glyph unicode="&#x203a;" horiz-adv-x="868" d="M630 629l-290 248v116h175l260 -239v-125h-145zM482 1024h-142v131zM317 1024h-149l-69 59q13 35 26 61q45 30 69.5 40t85.5 26l37 -34v-152zM317 993v-97l-114 97h114zM630 599h145v-124l-258 -239h-176v116zM483 205l-142 -131v131h142zM317 205v-153l-36 -33 q-46 12 -61.5 17t-38.5 16t-55 32q-10 20 -26 62l68 59h149zM317 236h-113l113 96v-96z" />
<glyph unicode="&#x205f;" horiz-adv-x="523" />
<glyph unicode="&#x20ac;" horiz-adv-x="1349" d="M98 958h195v-137zM96 931l195 -135h-193zM956 796h-194v135zM957 822l-193 136h193v-136zM576 796v162h168v-162h-168zM98 618h195v-138zM96 591l195 -135h-193zM956 456h-194v136zM957 482l-193 136h193v-136zM576 456v162h168v-162h-168zM689 207v-203q-78 4 -111 8 v195h111zM712 207h165v-204q-28 -1 -82 -1q-55 0 -83 1v204zM902 207h111v-195q-35 -4 -111 -8v203zM688 1249h-110v196q34 4 110 8v-204zM712 1249v205q28 1 83 1q53 0 81 -1v-205h-164zM901 1249v204q58 -3 112 -9v-195h-112zM313 825h241v-170zM311 792l240 -167h-239z M311 593l243 1v-356h-231q-9 140 -12 355zM1036 1249v193q106 -17 190 -72q31 -63 35 -121h-225zM1034 207h227q-4 -60 -35 -122q-81 -54 -192 -72v194zM324 1249q5 65 34 119q91 69 195 74l1 -192zM324 207h229v-194q-121 18 -195 74q-29 53 -34 120zM312 855q1 163 8 364 h235l-1 -363z" />
<glyph unicode="&#x2122;" horiz-adv-x="1369" d="M282 780h126v-113h-63h-63v113zM282 797v196h127v-196h-127zM269 1353h-58v108q19 2 58 4v-112zM282 1353v113h62h64v-113h-126zM422 1353v112q11 -1 58 -5v-107h-58zM282 1137v199h127v-199h-127zM282 1010v110h127v-110h-127zM492 1353v106q59 -10 105 -40 q18 -36 19 -66h-124zM71 1353q4 39 18 65q51 38 108 41l1 -106h-127zM900 1353h-74v108q5 1 74 4v-112zM1017 1353v112q45 -2 74 -5v-107h-74zM913 1137v199h91v-199h-91zM913 1010v110h91v-110h-91zM681 1120h132v-94zM679 1101l133 -91h-133v91zM679 992l134 1v-196h-128 q-1 18 -6 195zM1235 1137h-132v199h126q6 -74 6 -199zM1235 1010h-132v92zM1235 1027l-131 93h131v-93zM1103 1353v106q59 -10 106 -40q18 -36 19 -66h-125zM1103 780h124q-1 -34 -18 -67q-43 -30 -106 -40v107zM685 1353q4 37 20 65q45 34 108 41v-106h-128zM685 780h128 v-107q-69 11 -109 41q-15 29 -19 66zM1236 992q-2 -112 -7 -195h-126v196zM679 1136q1 69 5 200h129v-199z" />
<glyph unicode="&#x25fc;" horiz-adv-x="1155" d="M0 1155h1155v-1155h-1155v1155z" />
</font>
</defs>
</svg>
